<svg width="1249" height="215" viewBox="0 0 1249 215" fill="none" xmlns="http://www.w3.org/2000/svg">
<path d="M137.31 199.34C126.78 199.34 116.965 197.65 107.865 194.27C98.8947 190.76 91.0947 185.82 84.4647 179.45C77.8347 173.08 72.6347 165.605 68.8647 157.025C65.2247 148.445 63.4047 139.02 63.4047 128.75C63.4047 118.48 65.2247 109.055 68.8647 100.475C72.6347 91.895 77.8347 84.42 84.4647 78.05C91.2247 71.68 99.0897 66.805 108.06 63.425C117.03 59.915 126.845 58.16 137.505 58.16C149.335 58.16 159.995 60.24 169.485 64.4C179.105 68.43 187.165 74.41 193.665 82.34L173.385 101.06C168.705 95.73 163.505 91.765 157.785 89.165C152.065 86.435 145.825 85.07 139.065 85.07C132.695 85.07 126.845 86.11 121.515 88.19C116.185 90.27 111.57 93.26 107.67 97.16C103.77 101.06 100.715 105.675 98.5047 111.005C96.4247 116.335 95.3847 122.25 95.3847 128.75C95.3847 135.25 96.4247 141.165 98.5047 146.495C100.715 151.825 103.77 156.44 107.67 160.34C111.57 164.24 116.185 167.23 121.515 169.31C126.845 171.39 132.695 172.43 139.065 172.43C145.825 172.43 152.065 171.13 157.785 168.53C163.505 165.8 168.705 161.705 173.385 156.245L193.665 174.965C187.165 182.895 179.105 188.94 169.485 193.1C159.995 197.26 149.27 199.34 137.31 199.34ZM282.341 199.34C271.551 199.34 261.541 197.585 252.311 194.075C243.211 190.565 235.281 185.625 228.521 179.255C221.891 172.885 216.691 165.41 212.921 156.83C209.281 148.25 207.461 138.89 207.461 128.75C207.461 118.61 209.281 109.25 212.921 100.67C216.691 92.09 221.956 84.615 228.716 78.245C235.476 71.875 243.406 66.935 252.506 63.425C261.606 59.915 271.486 58.16 282.146 58.16C292.936 58.16 302.816 59.915 311.786 63.425C320.886 66.935 328.751 71.875 335.381 78.245C342.141 84.615 347.406 92.09 351.176 100.67C354.946 109.12 356.831 118.48 356.831 128.75C356.831 138.89 354.946 148.315 351.176 157.025C347.406 165.605 342.141 173.08 335.381 179.45C328.751 185.69 320.886 190.565 311.786 194.075C302.816 197.585 293.001 199.34 282.341 199.34ZM282.146 172.43C288.256 172.43 293.846 171.39 298.916 169.31C304.116 167.23 308.666 164.24 312.566 160.34C316.466 156.44 319.456 151.825 321.536 146.495C323.746 141.165 324.851 135.25 324.851 128.75C324.851 122.25 323.746 116.335 321.536 111.005C319.456 105.675 316.466 101.06 312.566 97.16C308.796 93.26 304.311 90.27 299.111 88.19C293.911 86.11 288.256 85.07 282.146 85.07C276.036 85.07 270.381 86.11 265.181 88.19C260.111 90.27 255.626 93.26 251.726 97.16C247.826 101.06 244.771 105.675 242.561 111.005C240.481 116.335 239.441 122.25 239.441 128.75C239.441 135.12 240.481 141.035 242.561 146.495C244.771 151.825 247.761 156.44 251.531 160.34C255.431 164.24 259.981 167.23 265.181 169.31C270.381 171.39 276.036 172.43 282.146 172.43ZM384.472 197L384.472 60.5L410.602 60.5L491.137 158.78L478.462 158.78L478.462 60.5L509.662 60.5L509.662 197L483.727 197L402.997 98.72L415.672 98.72L415.672 197L384.472 197ZM574.133 197L574.133 86.24L530.453 86.24L530.453 60.5L649.403 60.5L649.403 86.24L605.723 86.24L605.723 197L574.133 197ZM645.504 197L706.344 60.5L737.544 60.5L798.579 197L765.429 197L715.509 76.49L727.989 76.49L677.874 197L645.504 197ZM675.924 167.75L684.309 143.765L754.509 143.765L763.089 167.75L675.924 167.75ZM880.062 199.34C869.532 199.34 859.717 197.65 850.617 194.27C841.647 190.76 833.847 185.82 827.217 179.45C820.587 173.08 815.387 165.605 811.617 157.025C807.977 148.445 806.157 139.02 806.157 128.75C806.157 118.48 807.977 109.055 811.617 100.475C815.387 91.895 820.587 84.42 827.217 78.05C833.977 71.68 841.842 66.805 850.812 63.425C859.782 59.915 869.597 58.16 880.257 58.16C892.087 58.16 902.747 60.24 912.237 64.4C921.857 68.43 929.917 74.41 936.417 82.34L916.137 101.06C911.457 95.73 906.257 91.765 900.537 89.165C894.817 86.435 888.577 85.07 881.817 85.07C875.447 85.07 869.597 86.11 864.267 88.19C858.937 90.27 854.322 93.26 850.422 97.16C846.522 101.06 843.467 105.675 841.257 111.005C839.177 116.335 838.137 122.25 838.137 128.75C838.137 135.25 839.177 141.165 841.257 146.495C843.467 151.825 846.522 156.44 850.422 160.34C854.322 164.24 858.937 167.23 864.267 169.31C869.597 171.39 875.447 172.43 881.817 172.43C888.577 172.43 894.817 171.13 900.537 168.53C906.257 165.8 911.457 161.705 916.137 156.245L936.417 174.965C929.917 182.895 921.857 188.94 912.237 193.1C902.747 197.26 892.022 199.34 880.062 199.34ZM988.591 197L988.591 86.24L944.911 86.24L944.911 60.5L1063.86 60.5L1063.86 86.24L1020.18 86.24L1020.18 197L988.591 197ZM1149.15 199.34C1138.36 199.34 1128.35 197.585 1119.12 194.075C1110.02 190.565 1102.09 185.625 1095.33 179.255C1088.7 172.885 1083.5 165.41 1079.73 156.83C1076.09 148.25 1074.27 138.89 1074.27 128.75C1074.27 118.61 1076.09 109.25 1079.73 100.67C1083.5 92.09 1088.77 84.615 1095.53 78.245C1102.29 71.875 1110.22 66.935 1119.32 63.425C1128.42 59.915 1138.3 58.16 1148.96 58.16C1159.75 58.16 1169.63 59.915 1178.6 63.425C1187.7 66.935 1195.56 71.875 1202.19 78.245C1208.95 84.615 1214.22 92.09 1217.99 100.67C1221.76 109.12 1223.64 118.48 1223.64 128.75C1223.64 138.89 1221.76 148.315 1217.99 157.025C1214.22 165.605 1208.95 173.08 1202.19 179.45C1195.56 185.69 1187.7 190.565 1178.6 194.075C1169.63 197.585 1159.81 199.34 1149.15 199.34ZM1148.96 172.43C1155.07 172.43 1160.66 171.39 1165.73 169.31C1170.93 167.23 1175.48 164.24 1179.38 160.34C1183.28 156.44 1186.27 151.825 1188.35 146.495C1190.56 141.165 1191.66 135.25 1191.66 128.75C1191.66 122.25 1190.56 116.335 1188.35 111.005C1186.27 105.675 1183.28 101.06 1179.38 97.16C1175.61 93.26 1171.12 90.27 1165.92 88.19C1160.72 86.11 1155.07 85.07 1148.96 85.07C1142.85 85.07 1137.19 86.11 1131.99 88.19C1126.92 90.27 1122.44 93.26 1118.54 97.16C1114.64 101.06 1111.58 105.675 1109.37 111.005C1107.29 116.335 1106.25 122.25 1106.25 128.75C1106.25 135.12 1107.29 141.035 1109.37 146.495C1111.58 151.825 1114.57 156.44 1118.34 160.34C1122.24 164.24 1126.79 167.23 1131.99 169.31C1137.19 171.39 1142.85 172.43 1148.96 172.43Z" fill="#43387D"/>
<path d="M107.865 194.27L107.5 195.201L107.508 195.204L107.517 195.207L107.865 194.27ZM84.4647 179.45L83.7719 180.171L83.7719 180.171L84.4647 179.45ZM68.8647 157.025L67.944 157.416L67.9492 157.427L68.8647 157.025ZM68.8647 100.475L67.9491 100.073L67.9441 100.084L68.8647 100.475ZM84.4647 78.05L83.7788 77.3222L83.7719 77.3289L84.4647 78.05ZM108.06 63.425L108.412 64.3608L108.424 64.3562L108.06 63.425ZM169.485 64.4L169.083 65.3159L169.091 65.3192L169.098 65.3223L169.485 64.4ZM193.665 82.34L194.343 83.0748L195.036 82.4353L194.438 81.7061L193.665 82.34ZM173.385 101.06L172.633 101.72L173.31 102.49L174.063 101.795L173.385 101.06ZM157.785 89.165L157.354 90.0675L157.362 90.0715L157.371 90.0754L157.785 89.165ZM107.67 97.16L108.377 97.8671L108.377 97.8671L107.67 97.16ZM98.5047 111.005L97.5809 110.622L97.5769 110.632L97.5731 110.641L98.5047 111.005ZM98.5047 146.495L97.5731 146.859L97.5769 146.868L97.5809 146.878L98.5047 146.495ZM107.67 160.34L106.963 161.047L106.963 161.047L107.67 160.34ZM157.785 168.53L158.198 169.44L158.207 169.436L158.215 169.432L157.785 168.53ZM173.385 156.245L174.063 155.51L173.301 154.806L172.625 155.594L173.385 156.245ZM193.665 174.965L194.438 175.599L195.036 174.87L194.343 174.23L193.665 174.965ZM169.485 193.1L169.088 192.182L169.083 192.184L169.485 193.1ZM137.31 198.34C126.888 198.34 117.192 196.668 108.213 193.333L107.517 195.207C116.737 198.632 126.671 200.34 137.31 200.34L137.31 198.34ZM108.229 193.339C99.3754 189.874 91.6884 185.004 85.1575 178.729L83.7719 180.171C90.501 186.636 98.414 191.646 107.5 195.201L108.229 193.339ZM85.1575 178.729C78.6237 172.451 73.4986 165.085 69.7802 156.623L67.9492 157.427C71.7708 166.125 77.0456 173.709 83.7719 180.171L85.1575 178.729ZM69.7853 156.634C66.2028 148.19 64.4047 138.9 64.4047 128.75L62.4047 128.75C62.4047 139.14 64.2466 148.7 67.9441 157.416L69.7853 156.634ZM64.4047 128.75C64.4047 118.6 66.2028 109.31 69.7853 100.866L67.9441 100.084C64.2466 108.8 62.4047 118.36 62.4047 128.75L64.4047 128.75ZM69.7802 100.877C73.4986 92.4147 78.6237 85.0486 85.1575 78.7711L83.7719 77.3289C77.0456 83.7913 71.7708 91.3753 67.9492 100.073L69.7802 100.877ZM85.1505 78.7778C91.8112 72.5014 99.562 67.6957 108.412 64.3608L107.707 62.4892C98.6174 65.9143 90.6382 70.8586 83.7789 77.3222L85.1505 78.7778ZM108.424 64.3562C117.266 60.8963 126.956 59.16 137.505 59.16L137.505 57.16C126.733 57.16 116.793 58.9337 107.695 62.4937L108.424 64.3562ZM137.505 59.16C149.216 59.16 159.737 61.2187 169.083 65.3159L169.886 63.4841C160.253 59.2613 149.453 57.16 137.505 57.16L137.505 59.16ZM169.098 65.3223C178.57 69.2904 186.497 75.1725 192.891 82.9739L194.438 81.7061C187.833 73.6475 179.639 67.5696 169.871 63.4777L169.098 65.3223ZM192.986 81.6052L172.706 100.325L174.063 101.795L194.343 83.0748L192.986 81.6052ZM174.136 100.4C169.375 94.9774 164.063 90.9204 158.198 88.2546L157.371 90.0754C162.946 92.6096 168.035 96.4826 172.633 101.72L174.136 100.4ZM158.215 88.2625C152.352 85.4641 145.964 84.07 139.065 84.07L139.065 86.07C145.686 86.07 151.777 87.4059 157.354 90.0675L158.215 88.2625ZM139.065 84.07C132.584 84.07 126.609 85.1284 121.151 87.2584L121.878 89.1216C127.08 87.0916 132.805 86.07 139.065 86.07L139.065 84.07ZM121.151 87.2584C115.697 89.3868 110.964 92.4514 106.963 96.4529L108.377 97.8671C112.175 94.0685 116.672 91.1532 121.878 89.1216L121.151 87.2584ZM106.963 96.4529C102.966 100.45 99.8388 105.176 97.5809 110.622L99.4284 111.388C101.591 106.174 104.574 101.67 108.377 97.8671L106.963 96.4529ZM97.5731 110.641C95.4422 116.102 94.3847 122.142 94.3847 128.75L96.3847 128.75C96.3847 122.358 97.4072 116.568 99.4363 111.369L97.5731 110.641ZM94.3847 128.75C94.3847 135.358 95.4422 141.398 97.5731 146.859L99.4363 146.131C97.4072 140.932 96.3847 135.142 96.3847 128.75L94.3847 128.75ZM97.5809 146.878C99.8388 152.324 102.966 157.05 106.963 161.047L108.377 159.633C104.574 155.83 101.591 151.326 99.4284 146.112L97.5809 146.878ZM106.963 161.047C110.964 165.049 115.697 168.113 121.151 170.242L121.878 168.378C116.672 166.347 112.175 163.431 108.377 159.633L106.963 161.047ZM121.151 170.242C126.609 172.372 132.584 173.43 139.065 173.43L139.065 171.43C132.805 171.43 127.08 170.408 121.878 168.378L121.151 170.242ZM139.065 173.43C145.956 173.43 152.339 172.104 158.198 169.44L157.371 167.62C151.79 170.156 145.693 171.43 139.065 171.43L139.065 173.43ZM158.215 169.432C164.077 166.635 169.385 162.447 174.144 156.896L172.625 155.594C168.024 160.963 162.932 164.965 157.354 167.628L158.215 169.432ZM172.706 156.98L192.986 175.7L194.343 174.23L174.063 155.51L172.706 156.98ZM192.891 174.331C186.495 182.135 178.565 188.084 169.088 192.182L169.882 194.018C179.645 189.796 187.835 183.655 194.438 175.599L192.891 174.331ZM169.083 192.184C159.738 196.281 149.153 198.34 137.31 198.34L137.31 200.34C149.387 200.34 160.252 198.239 169.886 194.016L169.083 192.184ZM252.311 194.075L251.951 195.008L251.955 195.01L252.311 194.075ZM228.521 179.255L227.828 179.976L227.835 179.983L228.521 179.255ZM212.921 156.83L212 157.221L212.005 157.232L212.921 156.83ZM212.921 100.67L212.005 100.268L212 100.279L212.921 100.67ZM252.506 63.425L252.146 62.492L252.146 62.492L252.506 63.425ZM311.786 63.425L311.422 64.3562L311.426 64.358L311.786 63.425ZM335.381 78.245L334.688 78.9661L334.695 78.9728L335.381 78.245ZM351.176 100.67L350.26 101.072L350.263 101.077L351.176 100.67ZM351.176 157.025L352.091 157.427L352.094 157.422L351.176 157.025ZM335.381 179.45L336.066 180.178L336.067 180.178L335.381 179.45ZM311.786 194.075L311.426 193.142L311.422 193.144L311.786 194.075ZM298.916 169.31L298.545 168.381L298.536 168.385L298.916 169.31ZM312.566 160.34L311.859 159.633L311.859 159.633L312.566 160.34ZM321.536 146.495L320.612 146.112L320.608 146.122L320.604 146.131L321.536 146.495ZM321.536 111.005L320.604 111.369L320.608 111.378L320.612 111.388L321.536 111.005ZM312.566 97.16L311.847 97.855L311.853 97.8611L311.859 97.8671L312.566 97.16ZM299.111 88.19L298.74 89.1185L298.74 89.1185L299.111 88.19ZM265.181 88.19L264.81 87.2615L264.801 87.2648L265.181 88.19ZM251.726 97.16L252.433 97.8671L252.433 97.8671L251.726 97.16ZM242.561 111.005L241.637 110.622L241.633 110.632L241.629 110.641L242.561 111.005ZM242.561 146.495L241.626 146.851L241.632 146.865L241.637 146.878L242.561 146.495ZM251.531 160.34L250.812 161.035L250.818 161.041L250.824 161.047L251.531 160.34ZM265.181 169.31L264.81 170.238L264.81 170.238L265.181 169.31ZM282.341 198.34C271.661 198.34 261.773 196.603 252.666 193.14L251.955 195.01C261.309 198.567 271.441 200.34 282.341 200.34L282.341 198.34ZM252.671 193.142C243.686 189.676 235.868 184.804 229.207 178.527L227.835 179.983C234.694 186.446 242.736 191.454 251.951 195.008L252.671 193.142ZM229.214 178.534C222.68 172.256 217.555 164.89 213.836 156.428L212.005 157.232C215.827 165.93 221.102 173.514 227.828 179.976L229.214 178.534ZM213.842 156.439C210.258 147.993 208.461 138.768 208.461 128.75L206.461 128.75C206.461 139.012 208.303 148.507 212 157.221L213.842 156.439ZM208.461 128.75C208.461 118.732 210.258 109.507 213.842 101.061L212 100.279C208.303 108.993 206.461 118.488 206.461 128.75L208.461 128.75ZM213.836 101.072C217.553 92.614 222.74 85.2499 229.402 78.9728L228.03 77.5172C221.172 83.9801 215.829 91.566 212.005 100.268L213.836 101.072ZM229.402 78.9728C236.063 72.6961 243.881 67.8237 252.866 64.358L252.146 62.492C242.931 66.0463 234.889 71.0539 228.03 77.5172L229.402 78.9728ZM252.866 64.358C261.841 60.8962 271.598 59.16 282.146 59.16L282.146 57.16C271.374 57.16 261.371 58.9338 252.146 62.492L252.866 64.358ZM282.146 59.16C292.826 59.16 302.581 60.8968 311.422 64.3562L312.15 62.4937C303.051 58.9332 293.046 57.16 282.146 57.16L282.146 59.16ZM311.426 64.358C320.41 67.8231 328.16 72.6937 334.688 78.9661L336.074 77.5239C329.342 71.0563 321.362 66.0468 312.146 62.492L311.426 64.358ZM334.695 78.9728C341.357 85.2499 346.544 92.614 350.26 101.072L352.091 100.268C348.268 91.566 342.925 83.9801 336.067 77.5172L334.695 78.9728ZM350.263 101.077C353.969 109.386 355.831 118.605 355.831 128.75L357.831 128.75C357.831 118.355 355.922 108.854 352.089 100.263L350.263 101.077ZM355.831 128.75C355.831 138.763 353.97 148.052 350.258 156.628L352.094 157.422C355.922 148.578 357.831 139.017 357.831 128.75L355.831 128.75ZM350.26 156.623C346.544 165.081 341.357 172.445 334.695 178.722L336.067 180.178C342.925 173.715 348.268 166.129 352.091 157.427L350.26 156.623ZM334.696 178.722C328.166 184.867 320.414 189.675 311.426 193.142L312.146 195.008C321.358 191.455 329.336 186.513 336.066 180.178L334.696 178.722ZM311.422 193.144C302.579 196.604 292.89 198.34 282.341 198.34L282.341 200.34C293.112 200.34 303.052 198.566 312.15 195.006L311.422 193.144ZM282.146 173.43C288.371 173.43 294.092 172.37 299.295 170.235L298.536 168.385C293.6 170.41 288.141 171.43 282.146 171.43L282.146 173.43ZM299.287 170.238C304.611 168.109 309.276 165.044 313.273 161.047L311.859 159.633C308.056 163.436 303.621 166.351 298.545 168.382L299.287 170.238ZM313.273 161.047C317.274 157.046 320.339 152.312 322.468 146.859L320.604 146.131C318.573 151.338 315.657 155.834 311.859 159.633L313.273 161.047ZM322.46 146.878C324.726 141.412 325.851 135.365 325.851 128.75L323.851 128.75C323.851 135.135 322.766 140.918 320.612 146.112L322.46 146.878ZM325.851 128.75C325.851 122.135 324.726 116.088 322.46 110.622L320.612 111.388C322.766 116.582 323.851 122.365 323.851 128.75L325.851 128.75ZM322.468 110.641C320.339 105.188 317.274 100.454 313.273 96.4529L311.859 97.8671C315.657 101.666 318.573 106.162 320.604 111.369L322.468 110.641ZM313.285 96.465C309.414 92.4602 304.809 89.3922 299.482 87.2615L298.74 89.1185C303.813 91.1478 308.178 94.0598 311.847 97.855L313.285 96.465ZM299.482 87.2615C294.154 85.1301 288.372 84.07 282.146 84.07L282.146 86.07C288.14 86.07 293.668 87.0899 298.74 89.1185L299.482 87.2615ZM282.146 84.07C275.92 84.07 270.138 85.1301 264.81 87.2615L265.552 89.1185C270.624 87.0899 276.152 86.07 282.146 86.07L282.146 84.07ZM264.801 87.2648C259.608 89.3954 255.012 92.4598 251.019 96.4529L252.433 97.8671C256.24 94.0601 260.614 91.1445 265.56 89.1152L264.801 87.2648ZM251.019 96.4529C247.022 100.45 243.895 105.176 241.637 110.622L243.485 111.388C245.647 106.174 248.63 101.67 252.433 97.8671L251.019 96.4529ZM241.629 110.641C239.498 116.102 238.441 122.142 238.441 128.75L240.441 128.75C240.441 122.358 241.463 116.568 243.493 111.369L241.629 110.641ZM238.441 128.75C238.441 135.231 239.499 141.267 241.626 146.851L243.495 146.139C241.462 140.803 240.441 135.009 240.441 128.75L238.441 128.75ZM241.637 146.878C243.892 152.316 246.949 157.039 250.812 161.035L252.25 159.645C248.573 155.841 245.65 151.334 243.485 146.112L241.637 146.878ZM250.824 161.047C254.821 165.044 259.486 168.109 264.81 170.238L265.552 168.382C260.476 166.351 256.041 163.436 252.238 159.633L250.824 161.047ZM264.81 170.238C270.138 172.37 275.92 173.43 282.146 173.43L282.146 171.43C276.152 171.43 270.624 170.41 265.552 168.382L264.81 170.238ZM384.472 197L383.472 197L383.472 198L384.472 198L384.472 197ZM384.472 60.5L384.472 59.5L383.472 59.5L383.472 60.5L384.472 60.5ZM410.602 60.5L411.376 59.8662L411.076 59.5L410.602 59.5L410.602 60.5ZM491.137 158.78L491.137 159.78L493.249 159.78L491.911 158.146L491.137 158.78ZM478.462 158.78L477.462 158.78L477.462 159.78L478.462 159.78L478.462 158.78ZM478.462 60.5L478.462 59.5L477.462 59.5L477.462 60.5L478.462 60.5ZM509.662 60.5L510.662 60.5L510.662 59.5L509.662 59.5L509.662 60.5ZM509.662 197L509.662 198L510.662 198L510.662 197L509.662 197ZM483.727 197L482.954 197.635L483.254 198L483.727 198L483.727 197ZM402.997 98.72L402.997 97.72L400.882 97.72L402.224 99.3547L402.997 98.72ZM415.672 98.72L416.672 98.72L416.672 97.72L415.672 97.72L415.672 98.72ZM415.672 197L415.672 198L416.672 198L416.672 197L415.672 197ZM385.472 197L385.472 60.5L383.472 60.5L383.472 197L385.472 197ZM384.472 61.5L410.602 61.5L410.602 59.5L384.472 59.5L384.472 61.5ZM409.829 61.1338L490.364 159.414L491.911 158.146L411.376 59.8662L409.829 61.1338ZM491.137 157.78L478.462 157.78L478.462 159.78L491.137 159.78L491.137 157.78ZM479.462 158.78L479.462 60.5L477.462 60.5L477.462 158.78L479.462 158.78ZM478.462 61.5L509.662 61.5L509.662 59.5L478.462 59.5L478.462 61.5ZM508.662 60.5L508.662 197L510.662 197L510.662 60.5L508.662 60.5ZM509.662 196L483.727 196L483.727 198L509.662 198L509.662 196ZM484.5 196.365L403.77 98.0853L402.224 99.3547L482.954 197.635L484.5 196.365ZM402.997 99.72L415.672 99.72L415.672 97.72L402.997 97.72L402.997 99.72ZM414.672 98.72L414.672 197L416.672 197L416.672 98.72L414.672 98.72ZM415.672 196L384.472 196L384.472 198L415.672 198L415.672 196ZM574.133 197L573.133 197L573.133 198L574.133 198L574.133 197ZM574.133 86.24L575.133 86.24L575.133 85.24L574.133 85.24L574.133 86.24ZM530.453 86.24L529.453 86.24L529.453 87.24L530.453 87.24L530.453 86.24ZM530.453 60.5L530.453 59.5L529.453 59.5L529.453 60.5L530.453 60.5ZM649.403 60.5L650.403 60.5L650.403 59.5L649.403 59.5L649.403 60.5ZM649.403 86.24L649.403 87.24L650.403 87.24L650.403 86.24L649.403 86.24ZM605.723 86.24L605.723 85.24L604.723 85.24L604.723 86.24L605.723 86.24ZM605.723 197L605.723 198L606.723 198L606.723 197L605.723 197ZM575.133 197L575.133 86.24L573.133 86.24L573.133 197L575.133 197ZM574.133 85.24L530.453 85.24L530.453 87.24L574.133 87.24L574.133 85.24ZM531.453 86.24L531.453 60.5L529.453 60.5L529.453 86.24L531.453 86.24ZM530.453 61.5L649.403 61.5L649.403 59.5L530.453 59.5L530.453 61.5ZM648.403 60.5L648.403 86.24L650.403 86.24L650.403 60.5L648.403 60.5ZM649.403 85.24L605.723 85.24L605.723 87.24L649.403 87.24L649.403 85.24ZM604.723 86.24L604.723 197L606.723 197L606.723 86.24L604.723 86.24ZM605.723 196L574.133 196L574.133 198L605.723 198L605.723 196ZM645.504 197L644.591 196.593L643.963 198L645.504 198L645.504 197ZM706.344 60.5L706.344 59.5L705.695 59.5L705.431 60.0929L706.344 60.5ZM737.544 60.5L738.457 60.0918L738.192 59.5L737.544 59.5L737.544 60.5ZM798.579 197L798.579 198L800.122 198L799.492 196.592L798.579 197ZM765.429 197L764.505 197.383L764.761 198L765.429 198L765.429 197ZM715.509 76.49L715.509 75.49L714.012 75.49L714.585 76.8727L715.509 76.49ZM727.989 76.49L728.912 76.874L729.488 75.49L727.989 75.49L727.989 76.49ZM677.874 197L677.874 198L678.541 198L678.797 197.384L677.874 197ZM675.924 167.75L674.98 167.42L674.515 168.75L675.924 168.75L675.924 167.75ZM684.309 143.765L684.309 142.765L683.599 142.765L683.365 143.435L684.309 143.765ZM754.509 143.765L755.451 143.428L755.213 142.765L754.509 142.765L754.509 143.765ZM763.089 167.75L763.089 168.75L764.509 168.75L764.031 167.413L763.089 167.75ZM646.417 197.407L707.257 60.9071L705.431 60.0929L644.591 196.593L646.417 197.407ZM706.344 61.5L737.544 61.5L737.544 59.5L706.344 59.5L706.344 61.5ZM736.631 60.9082L797.666 197.408L799.492 196.592L738.457 60.0918L736.631 60.9082ZM798.579 196L765.429 196L765.429 198L798.579 198L798.579 196ZM766.353 196.617L716.433 76.1073L714.585 76.8727L764.505 197.383L766.353 196.617ZM715.509 77.49L727.989 77.49L727.989 75.49L715.509 75.49L715.509 77.49ZM727.066 76.106L676.951 196.616L678.797 197.384L728.912 76.874L727.066 76.106ZM677.874 196L645.504 196L645.504 198L677.874 198L677.874 196ZM676.868 168.08L685.253 144.095L683.365 143.435L674.98 167.42L676.868 168.08ZM684.309 144.765L754.509 144.765L754.509 142.765L684.309 142.765L684.309 144.765ZM753.567 144.102L762.147 168.087L764.031 167.413L755.451 143.428L753.567 144.102ZM763.089 166.75L675.924 166.75L675.924 168.75L763.089 168.75L763.089 166.75ZM850.617 194.27L850.252 195.201L850.26 195.204L850.268 195.207L850.617 194.27ZM827.217 179.45L826.524 180.171L826.524 180.171L827.217 179.45ZM811.617 157.025L810.696 157.416L810.701 157.427L811.617 157.025ZM811.617 100.475L810.701 100.073L810.696 100.084L811.617 100.475ZM827.217 78.05L826.531 77.3222L826.524 77.3289L827.217 78.05ZM850.812 63.425L851.164 64.3608L851.176 64.3562L850.812 63.425ZM912.237 64.4L911.835 65.3159L911.843 65.3192L911.85 65.3223L912.237 64.4ZM936.417 82.34L937.095 83.0748L937.788 82.4353L937.19 81.7061L936.417 82.34ZM916.137 101.06L915.385 101.72L916.062 102.49L916.815 101.795L916.137 101.06ZM900.537 89.165L900.106 90.0675L900.114 90.0715L900.123 90.0754L900.537 89.165ZM850.422 97.16L851.129 97.8671L851.129 97.8671L850.422 97.16ZM841.257 111.005L840.333 110.622L840.329 110.632L840.325 110.641L841.257 111.005ZM841.257 146.495L840.325 146.859L840.329 146.868L840.333 146.878L841.257 146.495ZM850.422 160.34L849.715 161.047L849.715 161.047L850.422 160.34ZM900.537 168.53L900.95 169.44L900.959 169.436L900.967 169.432L900.537 168.53ZM916.137 156.245L916.815 155.51L916.053 154.806L915.377 155.594L916.137 156.245ZM936.417 174.965L937.19 175.599L937.788 174.87L937.095 174.23L936.417 174.965ZM912.237 193.1L911.84 192.182L911.835 192.184L912.237 193.1ZM880.062 198.34C869.64 198.34 859.944 196.668 850.965 193.333L850.268 195.207C859.489 198.632 869.423 200.34 880.062 200.34L880.062 198.34ZM850.981 193.339C842.127 189.874 834.44 185.004 827.909 178.729L826.524 180.171C833.253 186.636 841.166 191.646 850.252 195.201L850.981 193.339ZM827.909 178.729C821.376 172.451 816.251 165.085 812.532 156.623L810.701 157.427C814.523 166.125 819.798 173.709 826.524 180.171L827.909 178.729ZM812.537 156.634C808.955 148.19 807.157 138.9 807.157 128.75L805.157 128.75C805.157 139.14 806.999 148.7 810.696 157.416L812.537 156.634ZM807.157 128.75C807.157 118.6 808.955 109.31 812.537 100.866L810.696 100.084C806.999 108.8 805.157 118.36 805.157 128.75L807.157 128.75ZM812.532 100.877C816.251 92.4147 821.376 85.0486 827.909 78.7711L826.524 77.3289C819.798 83.7913 814.523 91.3753 810.701 100.073L812.532 100.877ZM827.902 78.7778C834.563 72.5014 842.314 67.6957 851.164 64.3608L850.459 62.4892C841.369 65.9143 833.39 70.8586 826.531 77.3222L827.902 78.7778ZM851.176 64.3562C860.018 60.8963 869.708 59.16 880.257 59.16L880.257 57.16C869.485 57.16 859.545 58.9337 850.447 62.4937L851.176 64.3562ZM880.257 59.16C891.968 59.16 902.488 61.2187 911.835 65.3159L912.638 63.4841C903.005 59.2613 892.205 57.16 880.257 57.16L880.257 59.16ZM911.85 65.3223C921.322 69.2904 929.249 75.1725 935.643 82.9739L937.19 81.7061C930.585 73.6475 922.391 67.5696 912.623 63.4777L911.85 65.3223ZM935.738 81.6052L915.458 100.325L916.815 101.795L937.095 83.0748L935.738 81.6052ZM916.888 100.4C912.127 94.9774 906.815 90.9204 900.95 88.2546L900.123 90.0754C905.698 92.6096 910.787 96.4825 915.385 101.72L916.888 100.4ZM900.967 88.2625C895.104 85.4641 888.716 84.07 881.817 84.07L881.817 86.07C888.438 86.07 894.529 87.4059 900.106 90.0675L900.967 88.2625ZM881.817 84.07C875.336 84.07 869.361 85.1284 863.903 87.2584L864.63 89.1216C869.832 87.0916 875.557 86.07 881.817 86.07L881.817 84.07ZM863.903 87.2584C858.449 89.3868 853.716 92.4514 849.715 96.4529L851.129 97.8671C854.927 94.0685 859.424 91.1532 864.63 89.1216L863.903 87.2584ZM849.715 96.4529C845.717 100.45 842.591 105.176 840.333 110.622L842.18 111.388C844.342 106.174 847.326 101.67 851.129 97.8671L849.715 96.4529ZM840.325 110.641C838.194 116.102 837.137 122.142 837.137 128.75L839.137 128.75C839.137 122.358 840.159 116.568 842.188 111.369L840.325 110.641ZM837.137 128.75C837.137 135.358 838.194 141.398 840.325 146.859L842.188 146.131C840.159 140.932 839.137 135.142 839.137 128.75L837.137 128.75ZM840.333 146.878C842.591 152.324 845.717 157.05 849.715 161.047L851.129 159.633C847.326 155.83 844.342 151.326 842.18 146.112L840.333 146.878ZM849.715 161.047C853.716 165.049 858.449 168.113 863.903 170.242L864.63 168.378C859.424 166.347 854.927 163.431 851.129 159.633L849.715 161.047ZM863.903 170.242C869.361 172.372 875.336 173.43 881.817 173.43L881.817 171.43C875.557 171.43 869.832 170.408 864.63 168.378L863.903 170.242ZM881.817 173.43C888.708 173.43 895.091 172.104 900.95 169.44L900.123 167.62C894.542 170.156 888.445 171.43 881.817 171.43L881.817 173.43ZM900.967 169.432C906.829 166.635 912.137 162.447 916.896 156.896L915.377 155.594C910.776 160.963 905.684 164.965 900.106 167.628L900.967 169.432ZM915.458 156.98L935.738 175.7L937.095 174.23L916.815 155.51L915.458 156.98ZM935.643 174.331C929.247 182.135 921.317 188.084 911.84 192.182L912.634 194.018C922.397 189.796 930.587 183.655 937.19 175.599L935.643 174.331ZM911.835 192.184C902.49 196.281 891.905 198.34 880.062 198.34L880.062 200.34C892.139 200.34 903.003 198.239 912.638 194.016L911.835 192.184ZM988.591 197L987.591 197L987.591 198L988.591 198L988.591 197ZM988.591 86.24L989.591 86.24L989.591 85.24L988.591 85.24L988.591 86.24ZM944.911 86.24L943.911 86.24L943.911 87.24L944.911 87.24L944.911 86.24ZM944.911 60.5L944.911 59.5L943.911 59.5L943.911 60.5L944.911 60.5ZM1063.86 60.5L1064.86 60.5L1064.86 59.5L1063.86 59.5L1063.86 60.5ZM1063.86 86.24L1063.86 87.24L1064.86 87.24L1064.86 86.24L1063.86 86.24ZM1020.18 86.24L1020.18 85.24L1019.18 85.24L1019.18 86.24L1020.18 86.24ZM1020.18 197L1020.18 198L1021.18 198L1021.18 197L1020.18 197ZM989.591 197L989.591 86.24L987.591 86.24L987.591 197L989.591 197ZM988.591 85.24L944.911 85.24L944.911 87.24L988.591 87.24L988.591 85.24ZM945.911 86.24L945.911 60.5L943.911 60.5L943.911 86.24L945.911 86.24ZM944.911 61.5L1063.86 61.5L1063.86 59.5L944.911 59.5L944.911 61.5ZM1062.86 60.5L1062.86 86.24L1064.86 86.24L1064.86 60.5L1062.86 60.5ZM1063.86 85.24L1020.18 85.24L1020.18 87.24L1063.86 87.24L1063.86 85.24ZM1019.18 86.24L1019.18 197L1021.18 197L1021.18 86.24L1019.18 86.24ZM1020.18 196L988.591 196L988.591 198L1020.18 198L1020.18 196ZM1119.12 194.075L1118.76 195.008L1118.77 195.01L1119.12 194.075ZM1095.33 179.255L1094.64 179.976L1094.65 179.983L1095.33 179.255ZM1079.73 156.83L1078.81 157.221L1078.82 157.232L1079.73 156.83ZM1079.73 100.67L1078.82 100.268L1078.81 100.279L1079.73 100.67ZM1119.32 63.425L1118.96 62.492L1118.96 62.492L1119.32 63.425ZM1178.6 63.425L1178.23 64.3562L1178.24 64.358L1178.6 63.425ZM1202.19 78.245L1201.5 78.9661L1201.51 78.9728L1202.19 78.245ZM1217.99 100.67L1217.07 101.072L1217.08 101.077L1217.99 100.67ZM1217.99 157.025L1218.9 157.427L1218.91 157.422L1217.99 157.025ZM1202.19 179.45L1202.88 180.178L1202.88 180.178L1202.19 179.45ZM1178.6 194.075L1178.24 193.142L1178.23 193.144L1178.6 194.075ZM1165.73 169.31L1165.36 168.381L1165.35 168.385L1165.73 169.31ZM1179.38 160.34L1178.67 159.633L1178.67 159.633L1179.38 160.34ZM1188.35 146.495L1187.43 146.112L1187.42 146.122L1187.42 146.131L1188.35 146.495ZM1188.35 111.005L1187.42 111.369L1187.42 111.378L1187.43 111.388L1188.35 111.005ZM1179.38 97.16L1178.66 97.855L1178.67 97.8611L1178.67 97.8671L1179.38 97.16ZM1165.92 88.19L1165.55 89.1185L1165.55 89.1185L1165.92 88.19ZM1131.99 88.19L1131.62 87.2615L1131.61 87.2648L1131.99 88.19ZM1118.54 97.16L1119.25 97.8671L1119.25 97.8671L1118.54 97.16ZM1109.37 111.005L1108.45 110.622L1108.45 110.632L1108.44 110.641L1109.37 111.005ZM1109.37 146.495L1108.44 146.851L1108.44 146.865L1108.45 146.878L1109.37 146.495ZM1118.34 160.34L1117.62 161.035L1117.63 161.041L1117.64 161.047L1118.34 160.34ZM1131.99 169.31L1131.62 170.238L1131.62 170.238L1131.99 169.31ZM1149.15 198.34C1138.47 198.34 1128.59 196.603 1119.48 193.14L1118.77 195.01C1128.12 198.567 1138.25 200.34 1149.15 200.34L1149.15 198.34ZM1119.48 193.142C1110.5 189.676 1102.68 184.804 1096.02 178.527L1094.65 179.983C1101.51 186.446 1109.55 191.454 1118.76 195.008L1119.48 193.142ZM1096.03 178.534C1089.49 172.256 1084.37 164.89 1080.65 156.428L1078.82 157.232C1082.64 165.93 1087.91 173.514 1094.64 179.976L1096.03 178.534ZM1080.65 156.439C1077.07 147.993 1075.27 138.768 1075.27 128.75L1073.27 128.75C1073.27 139.012 1075.12 148.507 1078.81 157.221L1080.65 156.439ZM1075.27 128.75C1075.27 118.732 1077.07 109.506 1080.65 101.061L1078.81 100.279C1075.12 108.993 1073.27 118.488 1073.27 128.75L1075.27 128.75ZM1080.65 101.072C1084.37 92.6139 1089.55 85.2499 1096.21 78.9728L1094.84 77.5172C1087.98 83.98 1082.64 91.566 1078.82 100.268L1080.65 101.072ZM1096.21 78.9728C1102.88 72.6961 1110.69 67.8237 1119.68 64.358L1118.96 62.492C1109.74 66.0462 1101.7 71.0539 1094.84 77.5172L1096.21 78.9728ZM1119.68 64.358C1128.65 60.8962 1138.41 59.16 1148.96 59.16L1148.96 57.16C1138.19 57.16 1128.18 58.9338 1118.96 62.492L1119.68 64.358ZM1148.96 59.16C1159.64 59.16 1169.39 60.8968 1178.23 64.3562L1178.96 62.4937C1169.86 58.9332 1159.86 57.16 1148.96 57.16L1148.96 59.16ZM1178.24 64.358C1187.22 67.8231 1194.97 72.6937 1201.5 78.9661L1202.89 77.5239C1196.16 71.0563 1188.18 66.0468 1178.96 62.492L1178.24 64.358ZM1201.51 78.9728C1208.17 85.2499 1213.36 92.6139 1217.07 101.072L1218.9 100.268C1215.08 91.566 1209.74 83.98 1202.88 77.5172L1201.51 78.9728ZM1217.08 101.077C1220.78 109.386 1222.64 118.605 1222.64 128.75L1224.64 128.75C1224.64 118.355 1222.74 108.854 1218.9 100.263L1217.08 101.077ZM1222.64 128.75C1222.64 138.763 1220.78 148.052 1217.07 156.628L1218.91 157.422C1222.73 148.578 1224.64 139.017 1224.64 128.75L1222.64 128.75ZM1217.07 156.623C1213.36 165.081 1208.17 172.445 1201.51 178.722L1202.88 180.178C1209.74 173.715 1215.08 166.129 1218.9 157.427L1217.07 156.623ZM1201.51 178.722C1194.98 184.867 1187.23 189.675 1178.24 193.142L1178.96 195.008C1188.17 191.455 1196.15 186.513 1202.88 180.178L1201.51 178.722ZM1178.23 193.144C1169.39 196.604 1159.7 198.34 1149.15 198.34L1149.15 200.34C1159.93 200.34 1169.87 198.566 1178.96 195.006L1178.23 193.144ZM1148.96 173.43C1155.18 173.43 1160.9 172.37 1166.11 170.235L1165.35 168.385C1160.41 170.41 1154.95 171.43 1148.96 171.43L1148.96 173.43ZM1166.1 170.238C1171.42 168.109 1176.09 165.044 1180.09 161.047L1178.67 159.633C1174.87 163.436 1170.43 166.351 1165.36 168.382L1166.1 170.238ZM1180.09 161.047C1184.09 157.046 1187.15 152.312 1189.28 146.859L1187.42 146.131C1185.39 151.338 1182.47 155.834 1178.67 159.633L1180.09 161.047ZM1189.27 146.878C1191.54 141.412 1192.66 135.365 1192.66 128.75L1190.66 128.75C1190.66 135.135 1189.58 140.918 1187.43 146.112L1189.27 146.878ZM1192.66 128.75C1192.66 122.135 1191.54 116.088 1189.27 110.622L1187.43 111.388C1189.58 116.582 1190.66 122.365 1190.66 128.75L1192.66 128.75ZM1189.28 110.641C1187.15 105.188 1184.09 100.454 1180.09 96.4529L1178.67 97.8671C1182.47 101.666 1185.39 106.162 1187.42 111.369L1189.28 110.641ZM1180.1 96.465C1176.23 92.4602 1171.62 89.3922 1166.3 87.2615L1165.55 89.1185C1170.63 91.1478 1174.99 94.0598 1178.66 97.855L1180.1 96.465ZM1166.3 87.2615C1160.97 85.1301 1155.18 84.07 1148.96 84.07L1148.96 86.07C1154.95 86.07 1160.48 87.0898 1165.55 89.1185L1166.3 87.2615ZM1148.96 84.07C1142.73 84.07 1136.95 85.1301 1131.62 87.2615L1132.37 89.1185C1137.44 87.0898 1142.96 86.07 1148.96 86.07L1148.96 84.07ZM1131.61 87.2648C1126.42 89.3954 1121.82 92.4598 1117.83 96.4529L1119.25 97.8671C1123.05 94.0601 1127.43 91.1445 1132.37 89.1152L1131.61 87.2648ZM1117.83 96.4529C1113.83 100.45 1110.71 105.176 1108.45 110.622L1110.3 111.388C1112.46 106.174 1115.44 101.67 1119.25 97.8671L1117.83 96.4529ZM1108.44 110.641C1106.31 116.102 1105.25 122.142 1105.25 128.75L1107.25 128.75C1107.25 122.358 1108.28 116.568 1110.31 111.369L1108.44 110.641ZM1105.25 128.75C1105.25 135.231 1106.31 141.267 1108.44 146.851L1110.31 146.139C1108.28 140.803 1107.25 135.009 1107.25 128.75L1105.25 128.75ZM1108.45 146.878C1110.71 152.316 1113.76 157.039 1117.62 161.035L1119.06 159.645C1115.39 155.841 1112.46 151.334 1110.3 146.112L1108.45 146.878ZM1117.64 161.047C1121.63 165.044 1126.3 168.109 1131.62 170.238L1132.37 168.382C1127.29 166.351 1122.85 163.436 1119.05 159.633L1117.64 161.047ZM1131.62 170.238C1136.95 172.37 1142.73 173.43 1148.96 173.43L1148.96 171.43C1142.96 171.43 1137.44 170.41 1132.37 168.382L1131.62 170.238Z" fill="white"/>
<path d="M119.31 181.34C108.78 181.34 98.9647 179.65 89.8647 176.27C80.8947 172.76 73.0947 167.82 66.4647 161.45C59.8347 155.08 54.6347 147.605 50.8647 139.025C47.2247 130.445 45.4047 121.02 45.4047 110.75C45.4047 100.48 47.2247 91.055 50.8647 82.475C54.6347 73.895 59.8347 66.42 66.4647 60.05C73.2247 53.68 81.0897 48.805 90.0597 45.425C99.0297 41.915 108.845 40.16 119.505 40.16C131.335 40.16 141.995 42.24 151.485 46.4C161.105 50.43 169.165 56.41 175.665 64.34L155.385 83.06C150.705 77.73 145.505 73.765 139.785 71.165C134.065 68.435 127.825 67.07 121.065 67.07C114.695 67.07 108.845 68.11 103.515 70.19C98.1847 72.27 93.5697 75.26 89.6697 79.16C85.7697 83.06 82.7147 87.675 80.5047 93.005C78.4247 98.335 77.3847 104.25 77.3847 110.75C77.3847 117.25 78.4247 123.165 80.5047 128.495C82.7147 133.825 85.7697 138.44 89.6697 142.34C93.5697 146.24 98.1847 149.23 103.515 151.31C108.845 153.39 114.695 154.43 121.065 154.43C127.825 154.43 134.065 153.13 139.785 150.53C145.505 147.8 150.705 143.705 155.385 138.245L175.665 156.965C169.165 164.895 161.105 170.94 151.485 175.1C141.995 179.26 131.27 181.34 119.31 181.34ZM264.341 181.34C253.551 181.34 243.541 179.585 234.311 176.075C225.211 172.565 217.281 167.625 210.521 161.255C203.891 154.885 198.691 147.41 194.921 138.83C191.281 130.25 189.461 120.89 189.461 110.75C189.461 100.61 191.281 91.25 194.921 82.67C198.691 74.09 203.956 66.615 210.716 60.245C217.476 53.875 225.406 48.935 234.506 45.425C243.606 41.915 253.486 40.16 264.146 40.16C274.936 40.16 284.816 41.915 293.786 45.425C302.886 48.935 310.751 53.875 317.381 60.245C324.141 66.615 329.406 74.09 333.176 82.67C336.946 91.12 338.831 100.48 338.831 110.75C338.831 120.89 336.946 130.315 333.176 139.025C329.406 147.605 324.141 155.08 317.381 161.45C310.751 167.69 302.886 172.565 293.786 176.075C284.816 179.585 275.001 181.34 264.341 181.34ZM264.146 154.43C270.256 154.43 275.846 153.39 280.916 151.31C286.116 149.23 290.666 146.24 294.566 142.34C298.466 138.44 301.456 133.825 303.536 128.495C305.746 123.165 306.851 117.25 306.851 110.75C306.851 104.25 305.746 98.335 303.536 93.005C301.456 87.675 298.466 83.06 294.566 79.16C290.796 75.26 286.311 72.27 281.111 70.19C275.911 68.11 270.256 67.07 264.146 67.07C258.036 67.07 252.381 68.11 247.181 70.19C242.111 72.27 237.626 75.26 233.726 79.16C229.826 83.06 226.771 87.675 224.561 93.005C222.481 98.335 221.441 104.25 221.441 110.75C221.441 117.12 222.481 123.035 224.561 128.495C226.771 133.825 229.761 138.44 233.531 142.34C237.431 146.24 241.981 149.23 247.181 151.31C252.381 153.39 258.036 154.43 264.146 154.43ZM366.472 179L366.472 42.5L392.602 42.5L473.137 140.78L460.462 140.78L460.462 42.5L491.662 42.5L491.662 179L465.727 179L384.997 80.72L397.672 80.72L397.672 179L366.472 179ZM556.133 179L556.133 68.24L512.453 68.24L512.453 42.5L631.403 42.5L631.403 68.24L587.723 68.24L587.723 179L556.133 179ZM627.504 179L688.344 42.5L719.544 42.5L780.579 179L747.429 179L697.509 58.49L709.989 58.49L659.874 179L627.504 179ZM657.924 149.75L666.309 125.765L736.509 125.765L745.089 149.75L657.924 149.75ZM862.062 181.34C851.532 181.34 841.717 179.65 832.617 176.27C823.647 172.76 815.847 167.82 809.217 161.45C802.587 155.08 797.387 147.605 793.617 139.025C789.977 130.445 788.157 121.02 788.157 110.75C788.157 100.48 789.977 91.055 793.617 82.475C797.387 73.895 802.587 66.42 809.217 60.05C815.977 53.68 823.842 48.805 832.812 45.425C841.782 41.915 851.597 40.16 862.257 40.16C874.087 40.16 884.747 42.24 894.237 46.4C903.857 50.43 911.917 56.41 918.417 64.34L898.137 83.06C893.457 77.73 888.257 73.765 882.537 71.165C876.817 68.435 870.577 67.07 863.817 67.07C857.447 67.07 851.597 68.11 846.267 70.19C840.937 72.27 836.322 75.26 832.422 79.16C828.522 83.06 825.467 87.675 823.257 93.005C821.177 98.335 820.137 104.25 820.137 110.75C820.137 117.25 821.177 123.165 823.257 128.495C825.467 133.825 828.522 138.44 832.422 142.34C836.322 146.24 840.937 149.23 846.267 151.31C851.597 153.39 857.447 154.43 863.817 154.43C870.577 154.43 876.817 153.13 882.537 150.53C888.257 147.8 893.457 143.705 898.137 138.245L918.417 156.965C911.917 164.895 903.857 170.94 894.237 175.1C884.747 179.26 874.022 181.34 862.062 181.34ZM970.591 179L970.591 68.24L926.911 68.24L926.911 42.5L1045.86 42.5L1045.86 68.24L1002.18 68.24L1002.18 179L970.591 179ZM1131.15 181.34C1120.36 181.34 1110.35 179.585 1101.12 176.075C1092.02 172.565 1084.09 167.625 1077.33 161.255C1070.7 154.885 1065.5 147.41 1061.73 138.83C1058.09 130.25 1056.27 120.89 1056.27 110.75C1056.27 100.61 1058.09 91.25 1061.73 82.67C1065.5 74.09 1070.77 66.615 1077.53 60.245C1084.29 53.875 1092.22 48.935 1101.32 45.425C1110.42 41.915 1120.3 40.16 1130.96 40.16C1141.75 40.16 1151.63 41.915 1160.6 45.425C1169.7 48.935 1177.56 53.875 1184.19 60.245C1190.95 66.615 1196.22 74.09 1199.99 82.67C1203.76 91.12 1205.64 100.48 1205.64 110.75C1205.64 120.89 1203.76 130.315 1199.99 139.025C1196.22 147.605 1190.95 155.08 1184.19 161.45C1177.56 167.69 1169.7 172.565 1160.6 176.075C1151.63 179.585 1141.81 181.34 1131.15 181.34ZM1130.96 154.43C1137.07 154.43 1142.66 153.39 1147.73 151.31C1152.93 149.23 1157.48 146.24 1161.38 142.34C1165.28 138.44 1168.27 133.825 1170.35 128.495C1172.56 123.165 1173.66 117.25 1173.66 110.75C1173.66 104.25 1172.56 98.335 1170.35 93.005C1168.27 87.675 1165.28 83.06 1161.38 79.16C1157.61 75.26 1153.12 72.27 1147.92 70.19C1142.72 68.11 1137.07 67.07 1130.96 67.07C1124.85 67.07 1119.19 68.11 1113.99 70.19C1108.92 72.27 1104.44 75.26 1100.54 79.16C1096.64 83.06 1093.58 87.675 1091.37 93.005C1089.29 98.335 1088.25 104.25 1088.25 110.75C1088.25 117.12 1089.29 123.035 1091.37 128.495C1093.58 133.825 1096.57 138.44 1100.34 142.34C1104.24 146.24 1108.79 149.23 1113.99 151.31C1119.19 153.39 1124.85 154.43 1130.96 154.43Z" fill="#B473FF"/>
<path d="M89.8647 176.27L89.5003 177.201L89.5084 177.204L89.5165 177.207L89.8647 176.27ZM66.4647 161.45L65.7719 162.171L65.7719 162.171L66.4647 161.45ZM50.8647 139.025L49.944 139.416L49.9492 139.427L50.8647 139.025ZM50.8647 82.475L49.9491 82.0727L49.9441 82.0844L50.8647 82.475ZM66.4647 60.05L65.7788 59.3222L65.7719 59.3289L66.4647 60.05ZM90.0597 45.425L90.4123 46.3608L90.4241 46.3562L90.0597 45.425ZM151.485 46.4L151.083 47.3159L151.091 47.3192L151.098 47.3223L151.485 46.4ZM175.665 64.34L176.343 65.0748L177.036 64.4353L176.438 63.7061L175.665 64.34ZM155.385 83.06L154.633 83.7198L155.31 84.4902L156.063 83.7948L155.385 83.06ZM139.785 71.165L139.354 72.0675L139.362 72.0715L139.371 72.0754L139.785 71.165ZM89.6697 79.16L90.3768 79.8671L90.3768 79.8671L89.6697 79.16ZM80.5047 93.005L79.5809 92.622L79.5769 92.6317L79.5731 92.6415L80.5047 93.005ZM80.5047 128.495L79.5731 128.859L79.5769 128.868L79.5809 128.878L80.5047 128.495ZM89.6697 142.34L88.9626 143.047L88.9626 143.047L89.6697 142.34ZM139.785 150.53L140.198 151.44L140.207 151.436L140.215 151.432L139.785 150.53ZM155.385 138.245L156.063 137.51L155.301 136.806L154.625 137.594L155.385 138.245ZM175.665 156.965L176.438 157.599L177.036 156.87L176.343 156.23L175.665 156.965ZM151.485 175.1L151.088 174.182L151.083 174.184L151.485 175.1ZM119.31 180.34C108.888 180.34 99.1924 178.668 90.2129 175.333L89.5165 177.207C98.737 180.632 108.671 182.34 119.31 182.34L119.31 180.34ZM90.2291 175.339C81.3754 171.874 73.6884 167.004 67.1575 160.729L65.7719 162.171C72.501 168.636 80.414 173.646 89.5003 177.201L90.2291 175.339ZM67.1575 160.729C60.6237 154.451 55.4986 147.085 51.7802 138.623L49.9492 139.427C53.7708 148.125 59.0456 155.709 65.7719 162.171L67.1575 160.729ZM51.7853 138.634C48.2028 130.19 46.4047 120.9 46.4047 110.75L44.4047 110.75C44.4047 121.14 46.2466 130.7 49.9441 139.416L51.7853 138.634ZM46.4047 110.75C46.4047 100.6 48.2028 91.31 51.7853 82.8655L49.9441 82.0844C46.2466 90.8 44.4047 100.36 44.4047 110.75L46.4047 110.75ZM51.7802 82.8773C55.4986 74.4147 60.6237 67.0486 67.1575 60.7711L65.7719 59.3289C59.0456 65.7913 53.7708 73.3753 49.9492 82.0727L51.7802 82.8773ZM67.1505 60.7778C73.8112 54.5014 81.562 49.6957 90.4123 46.3608L89.7071 44.4892C80.6174 47.9143 72.6382 52.8586 65.7789 59.3222L67.1505 60.7778ZM90.4241 46.3562C99.2662 42.8963 108.956 41.16 119.505 41.16L119.505 39.16C108.733 39.16 98.7932 40.9337 89.6953 44.4937L90.4241 46.3562ZM119.505 41.16C131.216 41.16 141.737 43.2187 151.083 47.3159L151.886 45.4841C142.253 41.2613 131.453 39.16 119.505 39.16L119.505 41.16ZM151.098 47.3223C160.57 51.2904 168.497 57.1725 174.891 64.9739L176.438 63.7061C169.833 55.6475 161.639 49.5696 151.871 45.4777L151.098 47.3223ZM174.986 63.6052L154.706 82.3252L156.063 83.7948L176.343 65.0748L174.986 63.6052ZM156.136 82.4002C151.375 76.9774 146.063 72.9204 140.198 70.2546L139.371 72.0754C144.946 74.6096 150.035 78.4826 154.633 83.7198L156.136 82.4002ZM140.215 70.2625C134.352 67.4641 127.964 66.07 121.065 66.07L121.065 68.07C127.686 68.07 133.777 69.4059 139.354 72.0675L140.215 70.2625ZM121.065 66.07C114.584 66.07 108.609 67.1284 103.151 69.2584L103.878 71.1216C109.08 69.0916 114.805 68.07 121.065 68.07L121.065 66.07ZM103.151 69.2584C97.6973 71.3868 92.964 74.4514 88.9626 78.4529L90.3768 79.8671C94.1754 76.0685 98.6721 73.1532 103.878 71.1216L103.151 69.2584ZM88.9626 78.4529C84.9655 82.4499 81.8388 87.1765 79.5809 92.622L81.4284 93.388C83.5905 88.1735 86.5738 83.6701 90.3768 79.8671L88.9626 78.4529ZM79.5731 92.6415C77.4422 98.102 76.3847 104.142 76.3847 110.75L78.3847 110.75C78.3847 104.358 79.4072 98.568 81.4363 93.3685L79.5731 92.6415ZM76.3847 110.75C76.3847 117.358 77.4422 123.398 79.5731 128.859L81.4363 128.131C79.4072 122.932 78.3847 117.142 78.3847 110.75L76.3847 110.75ZM79.5809 128.878C81.8388 134.324 84.9655 139.05 88.9626 143.047L90.3768 141.633C86.5738 137.83 83.5905 133.326 81.4284 128.112L79.5809 128.878ZM88.9626 143.047C92.964 147.049 97.6973 150.113 103.151 152.242L103.878 150.378C98.6721 148.347 94.1754 145.431 90.3768 141.633L88.9626 143.047ZM103.151 152.242C108.609 154.372 114.584 155.43 121.065 155.43L121.065 153.43C114.805 153.43 109.08 152.408 103.878 150.378L103.151 152.242ZM121.065 155.43C127.956 155.43 134.339 154.104 140.198 151.44L139.371 149.62C133.79 152.156 127.693 153.43 121.065 153.43L121.065 155.43ZM140.215 151.432C146.077 148.635 151.385 144.447 156.144 138.896L154.625 137.594C150.024 142.963 144.932 146.965 139.354 149.628L140.215 151.432ZM154.706 138.98L174.986 157.7L176.343 156.23L156.063 137.51L154.706 138.98ZM174.891 156.331C168.495 164.135 160.565 170.084 151.088 174.182L151.882 176.018C161.645 171.796 169.835 165.655 176.438 157.599L174.891 156.331ZM151.083 174.184C141.738 178.281 131.153 180.34 119.31 180.34L119.31 182.34C131.387 182.34 142.252 180.239 151.886 176.016L151.083 174.184ZM234.311 176.075L233.951 177.008L233.955 177.01L234.311 176.075ZM210.521 161.255L209.828 161.976L209.835 161.983L210.521 161.255ZM194.921 138.83L194 139.221L194.005 139.232L194.921 138.83ZM194.921 82.67L194.005 82.2677L194 82.2794L194.921 82.67ZM234.506 45.425L234.146 44.492L234.146 44.492L234.506 45.425ZM293.786 45.425L293.422 46.3562L293.426 46.358L293.786 45.425ZM317.381 60.245L316.688 60.9661L316.695 60.9728L317.381 60.245ZM333.176 82.67L332.26 83.0723L332.263 83.0774L333.176 82.67ZM333.176 139.025L334.091 139.427L334.094 139.422L333.176 139.025ZM317.381 161.45L318.066 162.178L318.067 162.178L317.381 161.45ZM293.786 176.075L293.426 175.142L293.422 175.144L293.786 176.075ZM280.916 151.31L280.545 150.381L280.536 150.385L280.916 151.31ZM294.566 142.34L293.859 141.633L293.859 141.633L294.566 142.34ZM303.536 128.495L302.612 128.112L302.608 128.122L302.604 128.131L303.536 128.495ZM303.536 93.005L302.604 93.3685L302.608 93.3783L302.612 93.388L303.536 93.005ZM294.566 79.16L293.847 79.855L293.853 79.8611L293.859 79.8671L294.566 79.16ZM281.111 70.19L280.74 71.1185L280.74 71.1185L281.111 70.19ZM247.181 70.19L246.81 69.2615L246.801 69.2648L247.181 70.19ZM233.726 79.16L234.433 79.8671L234.433 79.8671L233.726 79.16ZM224.561 93.005L223.637 92.622L223.633 92.6317L223.629 92.6415L224.561 93.005ZM224.561 128.495L223.626 128.851L223.632 128.865L223.637 128.878L224.561 128.495ZM233.531 142.34L232.812 143.035L232.818 143.041L232.824 143.047L233.531 142.34ZM247.181 151.31L246.81 152.238L246.81 152.238L247.181 151.31ZM264.341 180.34C253.661 180.34 243.773 178.603 234.666 175.14L233.955 177.01C243.309 180.567 253.441 182.34 264.341 182.34L264.341 180.34ZM234.671 175.142C225.686 171.676 217.868 166.804 211.207 160.527L209.835 161.983C216.694 168.446 224.736 173.454 233.951 177.008L234.671 175.142ZM211.214 160.534C204.68 154.256 199.555 146.89 195.836 138.428L194.005 139.232C197.827 147.93 203.102 155.514 209.828 161.976L211.214 160.534ZM195.842 138.439C192.258 129.993 190.461 120.768 190.461 110.75L188.461 110.75C188.461 121.012 190.303 130.507 194 139.221L195.842 138.439ZM190.461 110.75C190.461 100.732 192.258 91.5065 195.842 83.0605L194 82.2794C190.303 90.9935 188.461 100.488 188.461 110.75L190.461 110.75ZM195.836 83.0723C199.553 74.614 204.74 67.2499 211.402 60.9728L210.03 59.5172C203.172 65.9801 197.829 73.566 194.005 82.2677L195.836 83.0723ZM211.402 60.9728C218.063 54.6961 225.881 49.8237 234.866 46.358L234.146 44.492C224.931 48.0463 216.889 53.0539 210.03 59.5172L211.402 60.9728ZM234.866 46.358C243.841 42.8962 253.598 41.16 264.146 41.16L264.146 39.16C253.374 39.16 243.371 40.9338 234.146 44.492L234.866 46.358ZM264.146 41.16C274.826 41.16 284.581 42.8968 293.422 46.3562L294.15 44.4937C285.051 40.9332 275.046 39.16 264.146 39.16L264.146 41.16ZM293.426 46.358C302.41 49.8231 310.16 54.6937 316.688 60.9661L318.074 59.5239C311.342 53.0563 303.362 48.0468 294.146 44.492L293.426 46.358ZM316.695 60.9728C323.357 67.2499 328.544 74.614 332.26 83.0723L334.091 82.2677C330.268 73.566 324.925 65.9801 318.067 59.5172L316.695 60.9728ZM332.263 83.0774C335.969 91.3858 337.831 100.605 337.831 110.75L339.831 110.75C339.831 100.355 337.922 90.8542 334.089 82.2626L332.263 83.0774ZM337.831 110.75C337.831 120.763 335.97 130.052 332.258 138.628L334.094 139.422C337.922 130.578 339.831 121.017 339.831 110.75L337.831 110.75ZM332.26 138.623C328.544 147.081 323.357 154.445 316.695 160.722L318.067 162.178C324.925 155.715 330.268 148.129 334.091 139.427L332.26 138.623ZM316.696 160.722C310.166 166.867 302.414 171.675 293.426 175.142L294.146 177.008C303.358 173.455 311.336 168.513 318.066 162.178L316.696 160.722ZM293.422 175.144C284.579 178.604 274.89 180.34 264.341 180.34L264.341 182.34C275.112 182.34 285.052 180.566 294.15 177.006L293.422 175.144ZM264.146 155.43C270.371 155.43 276.092 154.37 281.295 152.235L280.536 150.385C275.6 152.41 270.141 153.43 264.146 153.43L264.146 155.43ZM281.287 152.238C286.611 150.109 291.276 147.044 295.273 143.047L293.859 141.633C290.056 145.436 285.621 148.351 280.545 150.382L281.287 152.238ZM295.273 143.047C299.274 139.046 302.339 134.312 304.468 128.859L302.604 128.131C300.573 133.338 297.657 137.834 293.859 141.633L295.273 143.047ZM304.46 128.878C306.726 123.412 307.851 117.365 307.851 110.75L305.851 110.75C305.851 117.135 304.766 122.918 302.612 128.112L304.46 128.878ZM307.851 110.75C307.851 104.135 306.726 98.0878 304.46 92.622L302.612 93.388C304.766 98.5822 305.851 104.365 305.851 110.75L307.851 110.75ZM304.468 92.6415C302.339 87.1876 299.274 82.4543 295.273 78.4529L293.859 79.8671C297.657 83.6657 300.573 88.1624 302.604 93.3685L304.468 92.6415ZM295.285 78.465C291.414 74.4602 286.809 71.3922 281.482 69.2615L280.74 71.1185C285.813 73.1478 290.178 76.0598 293.847 79.855L295.285 78.465ZM281.482 69.2615C276.154 67.1301 270.372 66.07 264.146 66.07L264.146 68.07C270.14 68.07 275.668 69.0899 280.74 71.1185L281.482 69.2615ZM264.146 66.07C257.92 66.07 252.138 67.1301 246.81 69.2615L247.552 71.1185C252.624 69.0899 258.152 68.07 264.146 68.07L264.146 66.07ZM246.801 69.2648C241.608 71.3954 237.012 74.4598 233.019 78.4529L234.433 79.8671C238.24 76.0601 242.614 73.1445 247.56 71.1152L246.801 69.2648ZM233.019 78.4529C229.022 82.4499 225.895 87.1765 223.637 92.622L225.485 93.388C227.647 88.1735 230.63 83.6701 234.433 79.8671L233.019 78.4529ZM223.629 92.6415C221.498 98.102 220.441 104.142 220.441 110.75L222.441 110.75C222.441 104.358 223.463 98.568 225.493 93.3685L223.629 92.6415ZM220.441 110.75C220.441 117.231 221.499 123.267 223.626 128.851L225.495 128.139C223.462 122.803 222.441 117.009 222.441 110.75L220.441 110.75ZM223.637 128.878C225.892 134.316 228.949 139.039 232.812 143.035L234.25 141.645C230.573 137.841 227.65 133.334 225.485 128.112L223.637 128.878ZM232.824 143.047C236.821 147.044 241.486 150.109 246.81 152.238L247.552 150.382C242.476 148.351 238.041 145.436 234.238 141.633L232.824 143.047ZM246.81 152.238C252.138 154.37 257.92 155.43 264.146 155.43L264.146 153.43C258.152 153.43 252.624 152.41 247.552 150.382L246.81 152.238ZM366.472 179L365.472 179L365.472 180L366.472 180L366.472 179ZM366.472 42.5L366.472 41.5L365.472 41.5L365.472 42.5L366.472 42.5ZM392.602 42.5L393.376 41.8662L393.076 41.5L392.602 41.5L392.602 42.5ZM473.137 140.78L473.137 141.78L475.249 141.78L473.911 140.146L473.137 140.78ZM460.462 140.78L459.462 140.78L459.462 141.78L460.462 141.78L460.462 140.78ZM460.462 42.5L460.462 41.5L459.462 41.5L459.462 42.5L460.462 42.5ZM491.662 42.5L492.662 42.5L492.662 41.5L491.662 41.5L491.662 42.5ZM491.662 179L491.662 180L492.662 180L492.662 179L491.662 179ZM465.727 179L464.954 179.635L465.254 180L465.727 180L465.727 179ZM384.997 80.72L384.997 79.72L382.882 79.72L384.224 81.3547L384.997 80.72ZM397.672 80.72L398.672 80.72L398.672 79.72L397.672 79.72L397.672 80.72ZM397.672 179L397.672 180L398.672 180L398.672 179L397.672 179ZM367.472 179L367.472 42.5L365.472 42.5L365.472 179L367.472 179ZM366.472 43.5L392.602 43.5L392.602 41.5L366.472 41.5L366.472 43.5ZM391.829 43.1338L472.364 141.414L473.911 140.146L393.376 41.8662L391.829 43.1338ZM473.137 139.78L460.462 139.78L460.462 141.78L473.137 141.78L473.137 139.78ZM461.462 140.78L461.462 42.5L459.462 42.5L459.462 140.78L461.462 140.78ZM460.462 43.5L491.662 43.5L491.662 41.5L460.462 41.5L460.462 43.5ZM490.662 42.5L490.662 179L492.662 179L492.662 42.5L490.662 42.5ZM491.662 178L465.727 178L465.727 180L491.662 180L491.662 178ZM466.5 178.365L385.77 80.0853L384.224 81.3547L464.954 179.635L466.5 178.365ZM384.997 81.72L397.672 81.72L397.672 79.72L384.997 79.72L384.997 81.72ZM396.672 80.72L396.672 179L398.672 179L398.672 80.72L396.672 80.72ZM397.672 178L366.472 178L366.472 180L397.672 180L397.672 178ZM556.133 179L555.133 179L555.133 180L556.133 180L556.133 179ZM556.133 68.24L557.133 68.24L557.133 67.24L556.133 67.24L556.133 68.24ZM512.453 68.24L511.453 68.24L511.453 69.24L512.453 69.24L512.453 68.24ZM512.453 42.5L512.453 41.5L511.453 41.5L511.453 42.5L512.453 42.5ZM631.403 42.5L632.403 42.5L632.403 41.5L631.403 41.5L631.403 42.5ZM631.403 68.24L631.403 69.24L632.403 69.24L632.403 68.24L631.403 68.24ZM587.723 68.24L587.723 67.24L586.723 67.24L586.723 68.24L587.723 68.24ZM587.723 179L587.723 180L588.723 180L588.723 179L587.723 179ZM557.133 179L557.133 68.24L555.133 68.24L555.133 179L557.133 179ZM556.133 67.24L512.453 67.24L512.453 69.24L556.133 69.24L556.133 67.24ZM513.453 68.24L513.453 42.5L511.453 42.5L511.453 68.24L513.453 68.24ZM512.453 43.5L631.403 43.5L631.403 41.5L512.453 41.5L512.453 43.5ZM630.403 42.5L630.403 68.24L632.403 68.24L632.403 42.5L630.403 42.5ZM631.403 67.24L587.723 67.24L587.723 69.24L631.403 69.24L631.403 67.24ZM586.723 68.24L586.723 179L588.723 179L588.723 68.24L586.723 68.24ZM587.723 178L556.133 178L556.133 180L587.723 180L587.723 178ZM627.504 179L626.591 178.593L625.963 180L627.504 180L627.504 179ZM688.344 42.5L688.344 41.5L687.695 41.5L687.431 42.0929L688.344 42.5ZM719.544 42.5L720.457 42.0918L720.192 41.5L719.544 41.5L719.544 42.5ZM780.579 179L780.579 180L782.122 180L781.492 178.592L780.579 179ZM747.429 179L746.505 179.383L746.761 180L747.429 180L747.429 179ZM697.509 58.49L697.509 57.49L696.012 57.49L696.585 58.8727L697.509 58.49ZM709.989 58.49L710.912 58.874L711.488 57.49L709.989 57.49L709.989 58.49ZM659.874 179L659.874 180L660.541 180L660.797 179.384L659.874 179ZM657.924 149.75L656.98 149.42L656.515 150.75L657.924 150.75L657.924 149.75ZM666.309 125.765L666.309 124.765L665.599 124.765L665.365 125.435L666.309 125.765ZM736.509 125.765L737.451 125.428L737.213 124.765L736.509 124.765L736.509 125.765ZM745.089 149.75L745.089 150.75L746.509 150.75L746.031 149.413L745.089 149.75ZM628.417 179.407L689.257 42.9071L687.431 42.0929L626.591 178.593L628.417 179.407ZM688.344 43.5L719.544 43.5L719.544 41.5L688.344 41.5L688.344 43.5ZM718.631 42.9082L779.666 179.408L781.492 178.592L720.457 42.0918L718.631 42.9082ZM780.579 178L747.429 178L747.429 180L780.579 180L780.579 178ZM748.353 178.617L698.433 58.1073L696.585 58.8727L746.505 179.383L748.353 178.617ZM697.509 59.49L709.989 59.49L709.989 57.49L697.509 57.49L697.509 59.49ZM709.066 58.106L658.951 178.616L660.797 179.384L710.912 58.874L709.066 58.106ZM659.874 178L627.504 178L627.504 180L659.874 180L659.874 178ZM658.868 150.08L667.253 126.095L665.365 125.435L656.98 149.42L658.868 150.08ZM666.309 126.765L736.509 126.765L736.509 124.765L666.309 124.765L666.309 126.765ZM735.567 126.102L744.147 150.087L746.031 149.413L737.451 125.428L735.567 126.102ZM745.089 148.75L657.924 148.75L657.924 150.75L745.089 150.75L745.089 148.75ZM832.617 176.27L832.252 177.201L832.26 177.204L832.268 177.207L832.617 176.27ZM809.217 161.45L808.524 162.171L808.524 162.171L809.217 161.45ZM793.617 139.025L792.696 139.416L792.701 139.427L793.617 139.025ZM793.617 82.475L792.701 82.0727L792.696 82.0844L793.617 82.475ZM809.217 60.05L808.531 59.3222L808.524 59.3289L809.217 60.05ZM832.812 45.425L833.164 46.3608L833.176 46.3562L832.812 45.425ZM894.237 46.4L893.835 47.3159L893.843 47.3192L893.85 47.3223L894.237 46.4ZM918.417 64.34L919.095 65.0748L919.788 64.4353L919.19 63.7061L918.417 64.34ZM898.137 83.06L897.385 83.7198L898.062 84.4902L898.815 83.7948L898.137 83.06ZM882.537 71.165L882.106 72.0675L882.114 72.0715L882.123 72.0754L882.537 71.165ZM832.422 79.16L833.129 79.8671L833.129 79.8671L832.422 79.16ZM823.257 93.005L822.333 92.622L822.329 92.6317L822.325 92.6414L823.257 93.005ZM823.257 128.495L822.325 128.859L822.329 128.868L822.333 128.878L823.257 128.495ZM832.422 142.34L831.715 143.047L831.715 143.047L832.422 142.34ZM882.537 150.53L882.95 151.44L882.959 151.436L882.967 151.432L882.537 150.53ZM898.137 138.245L898.815 137.51L898.053 136.806L897.377 137.594L898.137 138.245ZM918.417 156.965L919.19 157.599L919.788 156.87L919.095 156.23L918.417 156.965ZM894.237 175.1L893.84 174.182L893.835 174.184L894.237 175.1ZM862.062 180.34C851.64 180.34 841.944 178.668 832.965 175.333L832.268 177.207C841.489 180.632 851.423 182.34 862.062 182.34L862.062 180.34ZM832.981 175.339C824.127 171.874 816.44 167.004 809.909 160.729L808.524 162.171C815.253 168.636 823.166 173.646 832.252 177.201L832.981 175.339ZM809.909 160.729C803.376 154.451 798.251 147.085 794.532 138.623L792.701 139.427C796.523 148.125 801.798 155.709 808.524 162.171L809.909 160.729ZM794.537 138.634C790.955 130.19 789.157 120.9 789.157 110.75L787.157 110.75C787.157 121.14 788.999 130.7 792.696 139.416L794.537 138.634ZM789.157 110.75C789.157 100.6 790.955 91.31 794.537 82.8655L792.696 82.0844C788.999 90.8 787.157 100.36 787.157 110.75L789.157 110.75ZM794.532 82.8773C798.251 74.4147 803.376 67.0486 809.909 60.7711L808.524 59.3289C801.798 65.7913 796.523 73.3753 792.701 82.0727L794.532 82.8773ZM809.902 60.7778C816.563 54.5014 824.314 49.6957 833.164 46.3608L832.459 44.4892C823.369 47.9143 815.39 52.8586 808.531 59.3222L809.902 60.7778ZM833.176 46.3562C842.018 42.8963 851.708 41.16 862.257 41.16L862.257 39.16C851.485 39.16 841.545 40.9337 832.447 44.4937L833.176 46.3562ZM862.257 41.16C873.968 41.16 884.488 43.2187 893.835 47.3159L894.638 45.4841C885.005 41.2613 874.205 39.16 862.257 39.16L862.257 41.16ZM893.85 47.3223C903.322 51.2904 911.249 57.1725 917.643 64.9739L919.19 63.7061C912.585 55.6475 904.391 49.5696 894.623 45.4777L893.85 47.3223ZM917.738 63.6052L897.458 82.3252L898.815 83.7948L919.095 65.0748L917.738 63.6052ZM898.888 82.4002C894.127 76.9774 888.815 72.9204 882.95 70.2546L882.123 72.0754C887.698 74.6096 892.787 78.4825 897.385 83.7198L898.888 82.4002ZM882.967 70.2625C877.104 67.4641 870.716 66.07 863.817 66.07L863.817 68.07C870.438 68.07 876.529 69.4059 882.106 72.0675L882.967 70.2625ZM863.817 66.07C857.336 66.07 851.361 67.1284 845.903 69.2584L846.63 71.1216C851.832 69.0916 857.557 68.07 863.817 68.07L863.817 66.07ZM845.903 69.2584C840.449 71.3868 835.716 74.4514 831.715 78.4529L833.129 79.8671C836.927 76.0685 841.424 73.1532 846.63 71.1216L845.903 69.2584ZM831.715 78.4529C827.717 82.4499 824.591 87.1765 822.333 92.622L824.18 93.388C826.342 88.1735 829.326 83.6701 833.129 79.8671L831.715 78.4529ZM822.325 92.6414C820.194 98.102 819.137 104.142 819.137 110.75L821.137 110.75C821.137 104.358 822.159 98.568 824.188 93.3685L822.325 92.6414ZM819.137 110.75C819.137 117.358 820.194 123.398 822.325 128.859L824.188 128.131C822.159 122.932 821.137 117.142 821.137 110.75L819.137 110.75ZM822.333 128.878C824.591 134.324 827.717 139.05 831.715 143.047L833.129 141.633C829.326 137.83 826.342 133.326 824.18 128.112L822.333 128.878ZM831.715 143.047C835.716 147.049 840.449 150.113 845.903 152.242L846.63 150.378C841.424 148.347 836.927 145.431 833.129 141.633L831.715 143.047ZM845.903 152.242C851.361 154.372 857.336 155.43 863.817 155.43L863.817 153.43C857.557 153.43 851.832 152.408 846.63 150.378L845.903 152.242ZM863.817 155.43C870.708 155.43 877.091 154.104 882.95 151.44L882.123 149.62C876.542 152.156 870.445 153.43 863.817 153.43L863.817 155.43ZM882.967 151.432C888.829 148.635 894.137 144.447 898.896 138.896L897.377 137.594C892.776 142.963 887.684 146.965 882.106 149.628L882.967 151.432ZM897.458 138.98L917.738 157.7L919.095 156.23L898.815 137.51L897.458 138.98ZM917.643 156.331C911.247 164.135 903.317 170.084 893.84 174.182L894.634 176.018C904.397 171.796 912.587 165.655 919.19 157.599L917.643 156.331ZM893.835 174.184C884.49 178.281 873.905 180.34 862.062 180.34L862.062 182.34C874.139 182.34 885.003 180.239 894.638 176.016L893.835 174.184ZM970.591 179L969.591 179L969.591 180L970.591 180L970.591 179ZM970.591 68.24L971.591 68.24L971.591 67.24L970.591 67.24L970.591 68.24ZM926.911 68.24L925.911 68.24L925.911 69.24L926.911 69.24L926.911 68.24ZM926.911 42.5L926.911 41.5L925.911 41.5L925.911 42.5L926.911 42.5ZM1045.86 42.5L1046.86 42.5L1046.86 41.5L1045.86 41.5L1045.86 42.5ZM1045.86 68.24L1045.86 69.24L1046.86 69.24L1046.86 68.24L1045.86 68.24ZM1002.18 68.24L1002.18 67.24L1001.18 67.24L1001.18 68.24L1002.18 68.24ZM1002.18 179L1002.18 180L1003.18 180L1003.18 179L1002.18 179ZM971.591 179L971.591 68.24L969.591 68.24L969.591 179L971.591 179ZM970.591 67.24L926.911 67.24L926.911 69.24L970.591 69.24L970.591 67.24ZM927.911 68.24L927.911 42.5L925.911 42.5L925.911 68.24L927.911 68.24ZM926.911 43.5L1045.86 43.5L1045.86 41.5L926.911 41.5L926.911 43.5ZM1044.86 42.5L1044.86 68.24L1046.86 68.24L1046.86 42.5L1044.86 42.5ZM1045.86 67.24L1002.18 67.24L1002.18 69.24L1045.86 69.24L1045.86 67.24ZM1001.18 68.24L1001.18 179L1003.18 179L1003.18 68.24L1001.18 68.24ZM1002.18 178L970.591 178L970.591 180L1002.18 180L1002.18 178ZM1101.12 176.075L1100.76 177.008L1100.77 177.01L1101.12 176.075ZM1077.33 161.255L1076.64 161.976L1076.65 161.983L1077.33 161.255ZM1061.73 138.83L1060.81 139.221L1060.82 139.232L1061.73 138.83ZM1061.73 82.67L1060.82 82.2677L1060.81 82.2794L1061.73 82.67ZM1101.32 45.425L1100.96 44.492L1100.96 44.492L1101.32 45.425ZM1160.6 45.425L1160.23 46.3562L1160.24 46.358L1160.6 45.425ZM1184.19 60.245L1183.5 60.9661L1183.51 60.9728L1184.19 60.245ZM1199.99 82.67L1199.07 83.0723L1199.08 83.0774L1199.99 82.67ZM1199.99 139.025L1200.9 139.427L1200.91 139.422L1199.99 139.025ZM1184.19 161.45L1184.88 162.178L1184.88 162.178L1184.19 161.45ZM1160.6 176.075L1160.24 175.142L1160.23 175.144L1160.6 176.075ZM1147.73 151.31L1147.36 150.381L1147.35 150.385L1147.73 151.31ZM1161.38 142.34L1160.67 141.633L1160.67 141.633L1161.38 142.34ZM1170.35 128.495L1169.43 128.112L1169.42 128.122L1169.42 128.131L1170.35 128.495ZM1170.35 93.005L1169.42 93.3685L1169.42 93.3783L1169.43 93.388L1170.35 93.005ZM1161.38 79.16L1160.66 79.855L1160.67 79.8611L1160.67 79.8671L1161.38 79.16ZM1147.92 70.19L1147.55 71.1185L1147.55 71.1185L1147.92 70.19ZM1113.99 70.19L1113.62 69.2615L1113.61 69.2648L1113.99 70.19ZM1100.54 79.16L1101.25 79.8671L1101.25 79.8671L1100.54 79.16ZM1091.37 93.005L1090.45 92.622L1090.45 92.6317L1090.44 92.6414L1091.37 93.005ZM1091.37 128.495L1090.44 128.851L1090.44 128.865L1090.45 128.878L1091.37 128.495ZM1100.34 142.34L1099.62 143.035L1099.63 143.041L1099.64 143.047L1100.34 142.34ZM1113.99 151.31L1113.62 152.238L1113.62 152.238L1113.99 151.31ZM1131.15 180.34C1120.47 180.34 1110.59 178.603 1101.48 175.14L1100.77 177.01C1110.12 180.567 1120.25 182.34 1131.15 182.34L1131.15 180.34ZM1101.48 175.142C1092.5 171.676 1084.68 166.804 1078.02 160.527L1076.65 161.983C1083.51 168.446 1091.55 173.454 1100.76 177.008L1101.48 175.142ZM1078.03 160.534C1071.49 154.256 1066.37 146.89 1062.65 138.428L1060.82 139.232C1064.64 147.93 1069.91 155.514 1076.64 161.976L1078.03 160.534ZM1062.65 138.439C1059.07 129.993 1057.27 120.768 1057.27 110.75L1055.27 110.75C1055.27 121.012 1057.12 130.507 1060.81 139.221L1062.65 138.439ZM1057.27 110.75C1057.27 100.732 1059.07 91.5065 1062.65 83.0605L1060.81 82.2794C1057.12 90.9935 1055.27 100.488 1055.27 110.75L1057.27 110.75ZM1062.65 83.0723C1066.37 74.6139 1071.55 67.2499 1078.21 60.9728L1076.84 59.5172C1069.98 65.98 1064.64 73.566 1060.82 82.2677L1062.65 83.0723ZM1078.21 60.9728C1084.88 54.6961 1092.69 49.8237 1101.68 46.358L1100.96 44.492C1091.74 48.0462 1083.7 53.0539 1076.84 59.5172L1078.21 60.9728ZM1101.68 46.358C1110.65 42.8962 1120.41 41.16 1130.96 41.16L1130.96 39.16C1120.19 39.16 1110.18 40.9338 1100.96 44.492L1101.68 46.358ZM1130.96 41.16C1141.64 41.16 1151.39 42.8968 1160.23 46.3562L1160.96 44.4937C1151.86 40.9332 1141.86 39.16 1130.96 39.16L1130.96 41.16ZM1160.24 46.358C1169.22 49.8231 1176.97 54.6937 1183.5 60.9661L1184.89 59.5239C1178.16 53.0563 1170.18 48.0468 1160.96 44.492L1160.24 46.358ZM1183.51 60.9728C1190.17 67.2499 1195.36 74.6139 1199.07 83.0723L1200.9 82.2677C1197.08 73.566 1191.74 65.98 1184.88 59.5172L1183.51 60.9728ZM1199.08 83.0774C1202.78 91.3858 1204.64 100.605 1204.64 110.75L1206.64 110.75C1206.64 100.355 1204.74 90.8542 1200.9 82.2625L1199.08 83.0774ZM1204.64 110.75C1204.64 120.763 1202.78 130.052 1199.07 138.628L1200.91 139.422C1204.73 130.578 1206.64 121.017 1206.64 110.75L1204.64 110.75ZM1199.07 138.623C1195.36 147.081 1190.17 154.445 1183.51 160.722L1184.88 162.178C1191.74 155.715 1197.08 148.129 1200.9 139.427L1199.07 138.623ZM1183.51 160.722C1176.98 166.867 1169.23 171.675 1160.24 175.142L1160.96 177.008C1170.17 173.455 1178.15 168.513 1184.88 162.178L1183.51 160.722ZM1160.23 175.144C1151.39 178.604 1141.7 180.34 1131.15 180.34L1131.15 182.34C1141.93 182.34 1151.87 180.566 1160.96 177.006L1160.23 175.144ZM1130.96 155.43C1137.18 155.43 1142.9 154.37 1148.11 152.235L1147.35 150.385C1142.41 152.41 1136.95 153.43 1130.96 153.43L1130.96 155.43ZM1148.1 152.238C1153.42 150.109 1158.09 147.044 1162.09 143.047L1160.67 141.633C1156.87 145.436 1152.43 148.351 1147.36 150.382L1148.1 152.238ZM1162.09 143.047C1166.09 139.046 1169.15 134.312 1171.28 128.859L1169.42 128.131C1167.39 133.338 1164.47 137.834 1160.67 141.633L1162.09 143.047ZM1171.27 128.878C1173.54 123.412 1174.66 117.365 1174.66 110.75L1172.66 110.75C1172.66 117.135 1171.58 122.918 1169.43 128.112L1171.27 128.878ZM1174.66 110.75C1174.66 104.135 1173.54 98.0878 1171.27 92.622L1169.43 93.388C1171.58 98.5822 1172.66 104.365 1172.66 110.75L1174.66 110.75ZM1171.28 92.6414C1169.15 87.1876 1166.09 82.4543 1162.09 78.4529L1160.67 79.8671C1164.47 83.6657 1167.39 88.1624 1169.42 93.3685L1171.28 92.6414ZM1162.1 78.465C1158.23 74.4602 1153.62 71.3922 1148.3 69.2615L1147.55 71.1185C1152.63 73.1478 1156.99 76.0598 1160.66 79.855L1162.1 78.465ZM1148.3 69.2615C1142.97 67.1301 1137.18 66.07 1130.96 66.07L1130.96 68.07C1136.95 68.07 1142.48 69.0898 1147.55 71.1185L1148.3 69.2615ZM1130.96 66.07C1124.73 66.07 1118.95 67.1301 1113.62 69.2615L1114.37 71.1185C1119.44 69.0898 1124.96 68.07 1130.96 68.07L1130.96 66.07ZM1113.61 69.2648C1108.42 71.3954 1103.82 74.4598 1099.83 78.4529L1101.25 79.8671C1105.05 76.0601 1109.43 73.1445 1114.37 71.1152L1113.61 69.2648ZM1099.83 78.4529C1095.83 82.4499 1092.71 87.1765 1090.45 92.622L1092.3 93.388C1094.46 88.1735 1097.44 83.6701 1101.25 79.8671L1099.83 78.4529ZM1090.44 92.6414C1088.31 98.102 1087.25 104.142 1087.25 110.75L1089.25 110.75C1089.25 104.358 1090.28 98.568 1092.31 93.3685L1090.44 92.6414ZM1087.25 110.75C1087.25 117.231 1088.31 123.267 1090.44 128.851L1092.31 128.139C1090.28 122.803 1089.25 117.009 1089.25 110.75L1087.25 110.75ZM1090.45 128.878C1092.71 134.316 1095.76 139.039 1099.62 143.035L1101.06 141.645C1097.39 137.841 1094.46 133.334 1092.3 128.112L1090.45 128.878ZM1099.64 143.047C1103.63 147.044 1108.3 150.109 1113.62 152.238L1114.37 150.382C1109.29 148.351 1104.85 145.436 1101.05 141.633L1099.64 143.047ZM1113.62 152.238C1118.95 154.37 1124.73 155.43 1130.96 155.43L1130.96 153.43C1124.96 153.43 1119.44 152.41 1114.37 150.382L1113.62 152.238Z" fill="white"/>
<path d="M69.8647 155.27L69.5003 156.201L69.5084 156.204L69.5165 156.207L69.8647 155.27ZM46.4647 140.45L45.7719 141.171L45.7719 141.171L46.4647 140.45ZM30.8647 118.025L29.944 118.416L29.9492 118.427L30.8647 118.025ZM30.8647 61.475L29.9491 61.0727L29.9441 61.0844L30.8647 61.475ZM46.4647 39.05L45.7788 38.3222L45.7719 38.3289L46.4647 39.05ZM70.0597 24.425L70.4123 25.3608L70.4241 25.3562L70.0597 24.425ZM131.485 25.4L131.083 26.3159L131.091 26.3192L131.098 26.3223L131.485 25.4ZM155.665 43.34L156.343 44.0748L157.036 43.4353L156.438 42.7061L155.665 43.34ZM135.385 62.06L134.633 62.7198L135.31 63.4902L136.063 62.7948L135.385 62.06ZM119.785 50.165L119.354 51.0675L119.362 51.0715L119.371 51.0754L119.785 50.165ZM69.6697 58.16L70.3768 58.8671L70.3768 58.8671L69.6697 58.16ZM60.5047 72.005L59.5809 71.622L59.5769 71.6317L59.5731 71.6415L60.5047 72.005ZM60.5047 107.495L59.5731 107.859L59.5769 107.868L59.5809 107.878L60.5047 107.495ZM69.6697 121.34L68.9626 122.047L68.9626 122.047L69.6697 121.34ZM119.785 129.53L120.198 130.44L120.207 130.436L120.215 130.432L119.785 129.53ZM135.385 117.245L136.063 116.51L135.301 115.806L134.625 116.594L135.385 117.245ZM155.665 135.965L156.438 136.599L157.036 135.87L156.343 135.23L155.665 135.965ZM131.485 154.1L131.088 153.182L131.083 153.184L131.485 154.1ZM99.3097 159.34C88.8884 159.34 79.1924 157.668 70.2129 154.333L69.5165 156.207C78.737 159.632 88.6709 161.34 99.3097 161.34L99.3097 159.34ZM70.2291 154.339C61.3754 150.874 53.6884 146.004 47.1575 139.729L45.7719 141.171C52.501 147.636 60.414 152.646 69.5003 156.201L70.2291 154.339ZM47.1575 139.729C40.6237 133.451 35.4986 126.085 31.7802 117.623L29.9492 118.427C33.7708 127.125 39.0456 134.709 45.7719 141.171L47.1575 139.729ZM31.7853 117.634C28.2028 109.19 26.4047 99.8995 26.4047 89.75L24.4047 89.75C24.4047 100.14 26.2466 109.7 29.9441 118.416L31.7853 117.634ZM26.4047 89.75C26.4047 79.6004 28.2028 70.31 31.7853 61.8655L29.9441 61.0844C26.2466 69.8 24.4047 79.3595 24.4047 89.75L26.4047 89.75ZM31.7802 61.8773C35.4986 53.4147 40.6237 46.0486 47.1575 39.7711L45.7719 38.3289C39.0456 44.7913 33.7708 52.3753 29.9492 61.0727L31.7802 61.8773ZM47.1505 39.7778C53.8112 33.5014 61.562 28.6957 70.4123 25.3608L69.7071 23.4892C60.6174 26.9143 52.6382 31.8586 45.7789 38.3222L47.1505 39.7778ZM70.4241 25.3562C79.2662 21.8963 88.9561 20.16 99.5047 20.16L99.5047 18.16C88.7333 18.16 78.7932 19.9337 69.6953 23.4937L70.4241 25.3562ZM99.5047 20.16C111.216 20.16 121.737 22.2187 131.083 26.3159L131.886 24.4841C122.253 20.2613 111.453 18.16 99.5047 18.16L99.5047 20.16ZM131.098 26.3223C140.57 30.2904 148.497 36.1725 154.891 43.9739L156.438 42.7061C149.833 34.6475 141.639 28.5696 131.871 24.4777L131.098 26.3223ZM154.986 42.6052L134.706 61.3252L136.063 62.7948L156.343 44.0748L154.986 42.6052ZM136.136 61.4002C131.375 55.9774 126.063 51.9204 120.198 49.2546L119.371 51.0754C124.946 53.6096 130.035 57.4826 134.633 62.7198L136.136 61.4002ZM120.215 49.2625C114.352 46.4641 107.964 45.07 101.065 45.07L101.065 47.07C107.686 47.07 113.777 48.4059 119.354 51.0675L120.215 49.2625ZM101.065 45.07C94.5844 45.07 88.6094 46.1284 83.1511 48.2584L83.8782 50.1216C89.0799 48.0916 94.805 47.07 101.065 47.07L101.065 45.07ZM83.1511 48.2584C77.6973 50.3868 72.964 53.4514 68.9626 57.4529L70.3768 58.8671C74.1754 55.0685 78.6721 52.1532 83.8782 50.1216L83.1511 48.2584ZM68.9626 57.4529C64.9655 61.4499 61.8388 66.1765 59.5809 71.622L61.4284 72.388C63.5905 67.1735 66.5738 62.6701 70.3768 58.8671L68.9626 57.4529ZM59.5731 71.6415C57.4422 77.102 56.3847 83.1424 56.3847 89.75L58.3847 89.75C58.3847 83.3576 59.4072 77.568 61.4363 72.3685L59.5731 71.6415ZM56.3847 89.75C56.3847 96.3576 57.4422 102.398 59.5731 107.859L61.4363 107.131C59.4072 101.932 58.3847 96.1424 58.3847 89.75L56.3847 89.75ZM59.5809 107.878C61.8388 113.324 64.9655 118.05 68.9626 122.047L70.3768 120.633C66.5738 116.83 63.5905 112.326 61.4284 107.112L59.5809 107.878ZM68.9626 122.047C72.964 126.049 77.6973 129.113 83.1511 131.242L83.8782 129.378C78.6721 127.347 74.1754 124.431 70.3768 120.633L68.9626 122.047ZM83.1511 131.242C88.6094 133.372 94.5844 134.43 101.065 134.43L101.065 132.43C94.805 132.43 89.0799 131.408 83.8782 129.378L83.1511 131.242ZM101.065 134.43C107.956 134.43 114.339 133.104 120.198 130.44L119.371 128.62C113.79 131.156 107.693 132.43 101.065 132.43L101.065 134.43ZM120.215 130.432C126.077 127.635 131.385 123.447 136.144 117.896L134.625 116.594C130.024 121.963 124.932 125.965 119.354 128.628L120.215 130.432ZM134.706 117.98L154.986 136.7L156.343 135.23L136.063 116.51L134.706 117.98ZM154.891 135.331C148.495 143.135 140.565 149.084 131.088 153.182L131.882 155.018C141.645 150.796 149.835 144.655 156.438 136.599L154.891 135.331ZM131.083 153.184C121.738 157.281 111.153 159.34 99.3097 159.34L99.3097 161.34C111.387 161.34 122.252 159.239 131.886 155.016L131.083 153.184ZM214.311 155.075L213.951 156.008L213.955 156.01L214.311 155.075ZM190.521 140.255L189.828 140.976L189.835 140.983L190.521 140.255ZM174.921 117.83L174 118.221L174.005 118.232L174.921 117.83ZM174.921 61.67L174.005 61.2677L174 61.2794L174.921 61.67ZM214.506 24.425L214.146 23.492L214.146 23.492L214.506 24.425ZM273.786 24.425L273.422 25.3562L273.426 25.358L273.786 24.425ZM297.381 39.245L296.688 39.9661L296.695 39.9728L297.381 39.245ZM313.176 61.67L312.26 62.0723L312.263 62.0774L313.176 61.67ZM313.176 118.025L314.091 118.427L314.094 118.422L313.176 118.025ZM297.381 140.45L298.066 141.178L298.067 141.178L297.381 140.45ZM273.786 155.075L273.426 154.142L273.422 154.144L273.786 155.075ZM260.916 130.31L260.545 129.381L260.536 129.385L260.916 130.31ZM274.566 121.34L273.859 120.633L273.859 120.633L274.566 121.34ZM283.536 107.495L282.612 107.112L282.608 107.122L282.604 107.131L283.536 107.495ZM283.536 72.005L282.604 72.3685L282.608 72.3783L282.612 72.388L283.536 72.005ZM274.566 58.16L273.847 58.855L273.853 58.8611L273.859 58.8671L274.566 58.16ZM261.111 49.19L260.74 50.1185L260.74 50.1185L261.111 49.19ZM227.181 49.19L226.81 48.2615L226.801 48.2648L227.181 49.19ZM213.726 58.16L214.433 58.8671L214.433 58.8671L213.726 58.16ZM204.561 72.005L203.637 71.622L203.633 71.6317L203.629 71.6415L204.561 72.005ZM204.561 107.495L203.626 107.851L203.632 107.865L203.637 107.878L204.561 107.495ZM213.531 121.34L212.812 122.035L212.818 122.041L212.824 122.047L213.531 121.34ZM227.181 130.31L226.81 131.238L226.81 131.238L227.181 130.31ZM244.341 159.34C233.661 159.34 223.773 157.603 214.666 154.14L213.955 156.01C223.309 159.567 233.441 161.34 244.341 161.34L244.341 159.34ZM214.671 154.142C205.686 150.676 197.868 145.804 191.207 139.527L189.835 140.983C196.694 147.446 204.736 152.454 213.951 156.008L214.671 154.142ZM191.214 139.534C184.68 133.256 179.555 125.89 175.836 117.428L174.005 118.232C177.827 126.93 183.102 134.514 189.828 140.976L191.214 139.534ZM175.842 117.439C172.258 108.993 170.461 99.7677 170.461 89.75L168.461 89.75C168.461 100.012 170.303 109.507 174 118.221L175.842 117.439ZM170.461 89.75C170.461 79.7323 172.258 70.5065 175.842 62.0605L174 61.2794C170.303 69.9935 168.461 79.4877 168.461 89.75L170.461 89.75ZM175.836 62.0723C179.553 53.614 184.74 46.2499 191.402 39.9728L190.03 38.5172C183.172 44.9801 177.829 52.566 174.005 61.2677L175.836 62.0723ZM191.402 39.9728C198.063 33.6961 205.881 28.8237 214.866 25.358L214.146 23.492C204.931 27.0463 196.889 32.0539 190.03 38.5172L191.402 39.9728ZM214.866 25.358C223.841 21.8962 233.598 20.16 244.146 20.16L244.146 18.16C233.374 18.16 223.371 19.9338 214.146 23.492L214.866 25.358ZM244.146 20.16C254.826 20.16 264.581 21.8968 273.422 25.3562L274.15 23.4937C265.051 19.9332 255.046 18.16 244.146 18.16L244.146 20.16ZM273.426 25.358C282.41 28.8231 290.16 33.6937 296.688 39.9661L298.074 38.5239C291.342 32.0563 283.362 27.0468 274.146 23.492L273.426 25.358ZM296.695 39.9728C303.357 46.2499 308.544 53.614 312.26 62.0723L314.091 61.2677C310.268 52.566 304.925 44.9801 298.067 38.5172L296.695 39.9728ZM312.263 62.0774C315.969 70.3858 317.831 79.6049 317.831 89.75L319.831 89.75C319.831 79.3551 317.922 69.8542 314.089 61.2626L312.263 62.0774ZM317.831 89.75C317.831 99.7628 315.97 109.052 312.258 117.628L314.094 118.422C317.922 109.578 319.831 100.017 319.831 89.75L317.831 89.75ZM312.26 117.623C308.544 126.081 303.357 133.445 296.695 139.722L298.067 141.178C304.925 134.715 310.268 127.129 314.091 118.427L312.26 117.623ZM296.696 139.722C290.166 145.867 282.414 150.675 273.426 154.142L274.146 156.008C283.358 152.455 291.336 147.513 298.066 141.178L296.696 139.722ZM273.422 154.144C264.579 157.604 254.89 159.34 244.341 159.34L244.341 161.34C255.112 161.34 265.052 159.566 274.15 156.006L273.422 154.144ZM244.146 134.43C250.371 134.43 256.092 133.37 261.295 131.235L260.536 129.385C255.6 131.41 250.141 132.43 244.146 132.43L244.146 134.43ZM261.287 131.238C266.611 129.109 271.276 126.044 275.273 122.047L273.859 120.633C270.056 124.436 265.621 127.351 260.545 129.382L261.287 131.238ZM275.273 122.047C279.274 118.046 282.339 113.312 284.468 107.859L282.604 107.131C280.573 112.338 277.657 116.834 273.859 120.633L275.273 122.047ZM284.46 107.878C286.726 102.412 287.851 96.3649 287.851 89.75L285.851 89.75C285.851 96.1351 284.766 101.918 282.612 107.112L284.46 107.878ZM287.851 89.75C287.851 83.1351 286.726 77.0878 284.46 71.622L282.612 72.388C284.766 77.5822 285.851 83.3649 285.851 89.75L287.851 89.75ZM284.468 71.6415C282.339 66.1876 279.274 61.4543 275.273 57.4529L273.859 58.8671C277.657 62.6657 280.573 67.1624 282.604 72.3685L284.468 71.6415ZM275.285 57.465C271.414 53.4602 266.809 50.3922 261.482 48.2615L260.74 50.1185C265.813 52.1478 270.178 55.0598 273.847 58.855L275.285 57.465ZM261.482 48.2615C256.154 46.1301 250.372 45.07 244.146 45.07L244.146 47.07C250.14 47.07 255.668 48.0899 260.74 50.1185L261.482 48.2615ZM244.146 45.07C237.92 45.07 232.138 46.1301 226.81 48.2615L227.552 50.1185C232.624 48.0899 238.152 47.07 244.146 47.07L244.146 45.07ZM226.801 48.2648C221.608 50.3954 217.012 53.4598 213.019 57.4529L214.433 58.8671C218.24 55.0601 222.614 52.1445 227.56 50.1152L226.801 48.2648ZM213.019 57.4529C209.022 61.4499 205.895 66.1765 203.637 71.622L205.485 72.388C207.647 67.1735 210.63 62.6701 214.433 58.8671L213.019 57.4529ZM203.629 71.6415C201.498 77.102 200.441 83.1424 200.441 89.75L202.441 89.75C202.441 83.3576 203.463 77.568 205.493 72.3685L203.629 71.6415ZM200.441 89.75C200.441 96.2307 201.499 102.267 203.626 107.851L205.495 107.139C203.462 101.803 202.441 96.0093 202.441 89.75L200.441 89.75ZM203.637 107.878C205.892 113.316 208.949 118.039 212.812 122.035L214.25 120.645C210.573 116.841 207.65 112.334 205.485 107.112L203.637 107.878ZM212.824 122.047C216.821 126.044 221.486 129.109 226.81 131.238L227.552 129.382C222.476 127.351 218.041 124.436 214.238 120.633L212.824 122.047ZM226.81 131.238C232.138 133.37 237.92 134.43 244.146 134.43L244.146 132.43C238.152 132.43 232.624 131.41 227.552 129.382L226.81 131.238ZM346.472 158L345.472 158L345.472 159L346.472 159L346.472 158ZM346.472 21.5L346.472 20.5L345.472 20.5L345.472 21.5L346.472 21.5ZM372.602 21.5L373.376 20.8662L373.076 20.5L372.602 20.5L372.602 21.5ZM453.137 119.78L453.137 120.78L455.249 120.78L453.911 119.146L453.137 119.78ZM440.462 119.78L439.462 119.78L439.462 120.78L440.462 120.78L440.462 119.78ZM440.462 21.5L440.462 20.5L439.462 20.5L439.462 21.5L440.462 21.5ZM471.662 21.5L472.662 21.5L472.662 20.5L471.662 20.5L471.662 21.5ZM471.662 158L471.662 159L472.662 159L472.662 158L471.662 158ZM445.727 158L444.954 158.635L445.254 159L445.727 159L445.727 158ZM364.997 59.72L364.997 58.72L362.882 58.72L364.224 60.3547L364.997 59.72ZM377.672 59.72L378.672 59.72L378.672 58.72L377.672 58.72L377.672 59.72ZM377.672 158L377.672 159L378.672 159L378.672 158L377.672 158ZM347.472 158L347.472 21.5L345.472 21.5L345.472 158L347.472 158ZM346.472 22.5L372.602 22.5L372.602 20.5L346.472 20.5L346.472 22.5ZM371.829 22.1338L452.364 120.414L453.911 119.146L373.376 20.8662L371.829 22.1338ZM453.137 118.78L440.462 118.78L440.462 120.78L453.137 120.78L453.137 118.78ZM441.462 119.78L441.462 21.5L439.462 21.5L439.462 119.78L441.462 119.78ZM440.462 22.5L471.662 22.5L471.662 20.5L440.462 20.5L440.462 22.5ZM470.662 21.5L470.662 158L472.662 158L472.662 21.5L470.662 21.5ZM471.662 157L445.727 157L445.727 159L471.662 159L471.662 157ZM446.5 157.365L365.77 59.0853L364.224 60.3547L444.954 158.635L446.5 157.365ZM364.997 60.72L377.672 60.72L377.672 58.72L364.997 58.72L364.997 60.72ZM376.672 59.72L376.672 158L378.672 158L378.672 59.72L376.672 59.72ZM377.672 157L346.472 157L346.472 159L377.672 159L377.672 157ZM536.133 158L535.133 158L535.133 159L536.133 159L536.133 158ZM536.133 47.24L537.133 47.24L537.133 46.24L536.133 46.24L536.133 47.24ZM492.453 47.24L491.453 47.24L491.453 48.24L492.453 48.24L492.453 47.24ZM492.453 21.5L492.453 20.5L491.453 20.5L491.453 21.5L492.453 21.5ZM611.403 21.5L612.403 21.5L612.403 20.5L611.403 20.5L611.403 21.5ZM611.403 47.24L611.403 48.24L612.403 48.24L612.403 47.24L611.403 47.24ZM567.723 47.24L567.723 46.24L566.723 46.24L566.723 47.24L567.723 47.24ZM567.723 158L567.723 159L568.723 159L568.723 158L567.723 158ZM537.133 158L537.133 47.24L535.133 47.24L535.133 158L537.133 158ZM536.133 46.24L492.453 46.24L492.453 48.24L536.133 48.24L536.133 46.24ZM493.453 47.24L493.453 21.5L491.453 21.5L491.453 47.24L493.453 47.24ZM492.453 22.5L611.403 22.5L611.403 20.5L492.453 20.5L492.453 22.5ZM610.403 21.5L610.403 47.24L612.403 47.24L612.403 21.5L610.403 21.5ZM611.403 46.24L567.723 46.24L567.723 48.24L611.403 48.24L611.403 46.24ZM566.723 47.24L566.723 158L568.723 158L568.723 47.24L566.723 47.24ZM567.723 157L536.133 157L536.133 159L567.723 159L567.723 157ZM607.504 158L606.591 157.593L605.963 159L607.504 159L607.504 158ZM668.344 21.5L668.344 20.5L667.695 20.5L667.431 21.0929L668.344 21.5ZM699.544 21.5L700.457 21.0918L700.192 20.5L699.544 20.5L699.544 21.5ZM760.579 158L760.579 159L762.122 159L761.492 157.592L760.579 158ZM727.429 158L726.505 158.383L726.761 159L727.429 159L727.429 158ZM677.509 37.49L677.509 36.49L676.012 36.49L676.585 37.8727L677.509 37.49ZM689.989 37.49L690.912 37.874L691.488 36.49L689.989 36.49L689.989 37.49ZM639.874 158L639.874 159L640.541 159L640.797 158.384L639.874 158ZM637.924 128.75L636.98 128.42L636.515 129.75L637.924 129.75L637.924 128.75ZM646.309 104.765L646.309 103.765L645.599 103.765L645.365 104.435L646.309 104.765ZM716.509 104.765L717.451 104.428L717.213 103.765L716.509 103.765L716.509 104.765ZM725.089 128.75L725.089 129.75L726.509 129.75L726.031 128.413L725.089 128.75ZM608.417 158.407L669.257 21.9071L667.431 21.0929L606.591 157.593L608.417 158.407ZM668.344 22.5L699.544 22.5L699.544 20.5L668.344 20.5L668.344 22.5ZM698.631 21.9082L759.666 158.408L761.492 157.592L700.457 21.0918L698.631 21.9082ZM760.579 157L727.429 157L727.429 159L760.579 159L760.579 157ZM728.353 157.617L678.433 37.1073L676.585 37.8727L726.505 158.383L728.353 157.617ZM677.509 38.49L689.989 38.49L689.989 36.49L677.509 36.49L677.509 38.49ZM689.066 37.106L638.951 157.616L640.797 158.384L690.912 37.874L689.066 37.106ZM639.874 157L607.504 157L607.504 159L639.874 159L639.874 157ZM638.868 129.08L647.253 105.095L645.365 104.435L636.98 128.42L638.868 129.08ZM646.309 105.765L716.509 105.765L716.509 103.765L646.309 103.765L646.309 105.765ZM715.567 105.102L724.147 129.087L726.031 128.413L717.451 104.428L715.567 105.102ZM725.089 127.75L637.924 127.75L637.924 129.75L725.089 129.75L725.089 127.75ZM812.617 155.27L812.252 156.201L812.26 156.204L812.268 156.207L812.617 155.27ZM789.217 140.45L788.524 141.171L788.524 141.171L789.217 140.45ZM773.617 118.025L772.696 118.416L772.701 118.427L773.617 118.025ZM773.617 61.475L772.701 61.0727L772.696 61.0844L773.617 61.475ZM789.217 39.05L788.531 38.3222L788.524 38.3289L789.217 39.05ZM812.812 24.425L813.164 25.3608L813.176 25.3562L812.812 24.425ZM874.237 25.4L873.835 26.3159L873.843 26.3192L873.85 26.3223L874.237 25.4ZM898.417 43.34L899.095 44.0748L899.788 43.4353L899.19 42.7061L898.417 43.34ZM878.137 62.06L877.385 62.7198L878.062 63.4902L878.815 62.7948L878.137 62.06ZM862.537 50.165L862.106 51.0675L862.114 51.0715L862.123 51.0754L862.537 50.165ZM812.422 58.16L813.129 58.8671L813.129 58.8671L812.422 58.16ZM803.257 72.005L802.333 71.622L802.329 71.6317L802.325 71.6414L803.257 72.005ZM803.257 107.495L802.325 107.859L802.329 107.868L802.333 107.878L803.257 107.495ZM812.422 121.34L811.715 122.047L811.715 122.047L812.422 121.34ZM862.537 129.53L862.95 130.44L862.959 130.436L862.967 130.432L862.537 129.53ZM878.137 117.245L878.815 116.51L878.053 115.806L877.377 116.594L878.137 117.245ZM898.417 135.965L899.19 136.599L899.788 135.87L899.095 135.23L898.417 135.965ZM874.237 154.1L873.84 153.182L873.835 153.184L874.237 154.1ZM842.062 159.34C831.64 159.34 821.944 157.668 812.965 154.333L812.268 156.207C821.489 159.632 831.423 161.34 842.062 161.34L842.062 159.34ZM812.981 154.339C804.127 150.874 796.44 146.004 789.909 139.729L788.524 141.171C795.253 147.636 803.166 152.646 812.252 156.201L812.981 154.339ZM789.909 139.729C783.376 133.451 778.251 126.085 774.532 117.623L772.701 118.427C776.523 127.125 781.798 134.709 788.524 141.171L789.909 139.729ZM774.537 117.634C770.955 109.19 769.157 99.8995 769.157 89.75L767.157 89.75C767.157 100.14 768.999 109.7 772.696 118.416L774.537 117.634ZM769.157 89.75C769.157 79.6004 770.955 70.31 774.537 61.8655L772.696 61.0844C768.999 69.8 767.157 79.3595 767.157 89.75L769.157 89.75ZM774.532 61.8773C778.251 53.4147 783.376 46.0486 789.909 39.7711L788.524 38.3289C781.798 44.7913 776.523 52.3753 772.701 61.0727L774.532 61.8773ZM789.902 39.7778C796.563 33.5014 804.314 28.6957 813.164 25.3608L812.459 23.4892C803.369 26.9143 795.39 31.8586 788.531 38.3222L789.902 39.7778ZM813.176 25.3562C822.018 21.8963 831.708 20.16 842.257 20.16L842.257 18.16C831.485 18.16 821.545 19.9337 812.447 23.4937L813.176 25.3562ZM842.257 20.16C853.968 20.16 864.488 22.2187 873.835 26.3159L874.638 24.4841C865.005 20.2613 854.205 18.16 842.257 18.16L842.257 20.16ZM873.85 26.3223C883.322 30.2904 891.249 36.1725 897.643 43.9739L899.19 42.7061C892.585 34.6475 884.391 28.5696 874.623 24.4777L873.85 26.3223ZM897.738 42.6052L877.458 61.3252L878.815 62.7948L899.095 44.0748L897.738 42.6052ZM878.888 61.4002C874.127 55.9774 868.815 51.9204 862.95 49.2546L862.123 51.0754C867.698 53.6096 872.787 57.4825 877.385 62.7198L878.888 61.4002ZM862.967 49.2625C857.104 46.4641 850.716 45.07 843.817 45.07L843.817 47.07C850.438 47.07 856.529 48.4059 862.106 51.0675L862.967 49.2625ZM843.817 45.07C837.336 45.07 831.361 46.1284 825.903 48.2584L826.63 50.1216C831.832 48.0916 837.557 47.07 843.817 47.07L843.817 45.07ZM825.903 48.2584C820.449 50.3868 815.716 53.4514 811.715 57.4529L813.129 58.8671C816.927 55.0685 821.424 52.1532 826.63 50.1216L825.903 48.2584ZM811.715 57.4529C807.717 61.4499 804.591 66.1765 802.333 71.622L804.18 72.388C806.342 67.1735 809.326 62.6701 813.129 58.8671L811.715 57.4529ZM802.325 71.6414C800.194 77.102 799.137 83.1424 799.137 89.75L801.137 89.75C801.137 83.3576 802.159 77.568 804.188 72.3685L802.325 71.6414ZM799.137 89.75C799.137 96.3576 800.194 102.398 802.325 107.859L804.188 107.131C802.159 101.932 801.137 96.1424 801.137 89.75L799.137 89.75ZM802.333 107.878C804.591 113.324 807.717 118.05 811.715 122.047L813.129 120.633C809.326 116.83 806.342 112.326 804.18 107.112L802.333 107.878ZM811.715 122.047C815.716 126.049 820.449 129.113 825.903 131.242L826.63 129.378C821.424 127.347 816.927 124.431 813.129 120.633L811.715 122.047ZM825.903 131.242C831.361 133.372 837.336 134.43 843.817 134.43L843.817 132.43C837.557 132.43 831.832 131.408 826.63 129.378L825.903 131.242ZM843.817 134.43C850.708 134.43 857.091 133.104 862.95 130.44L862.123 128.62C856.542 131.156 850.445 132.43 843.817 132.43L843.817 134.43ZM862.967 130.432C868.829 127.635 874.137 123.447 878.896 117.896L877.377 116.594C872.776 121.963 867.684 125.965 862.106 128.628L862.967 130.432ZM877.458 117.98L897.738 136.7L899.095 135.23L878.815 116.51L877.458 117.98ZM897.643 135.331C891.247 143.135 883.317 149.084 873.84 153.182L874.634 155.018C884.397 150.796 892.587 144.655 899.19 136.599L897.643 135.331ZM873.835 153.184C864.49 157.281 853.905 159.34 842.062 159.34L842.062 161.34C854.139 161.34 865.003 159.239 874.638 155.016L873.835 153.184ZM950.591 158L949.591 158L949.591 159L950.591 159L950.591 158ZM950.591 47.24L951.591 47.24L951.591 46.24L950.591 46.24L950.591 47.24ZM906.911 47.24L905.911 47.24L905.911 48.24L906.911 48.24L906.911 47.24ZM906.911 21.5L906.911 20.5L905.911 20.5L905.911 21.5L906.911 21.5ZM1025.86 21.5L1026.86 21.5L1026.86 20.5L1025.86 20.5L1025.86 21.5ZM1025.86 47.24L1025.86 48.24L1026.86 48.24L1026.86 47.24L1025.86 47.24ZM982.181 47.24L982.181 46.24L981.181 46.24L981.181 47.24L982.181 47.24ZM982.181 158L982.181 159L983.181 159L983.181 158L982.181 158ZM951.591 158L951.591 47.24L949.591 47.24L949.591 158L951.591 158ZM950.591 46.24L906.911 46.24L906.911 48.24L950.591 48.24L950.591 46.24ZM907.911 47.24L907.911 21.5L905.911 21.5L905.911 47.24L907.911 47.24ZM906.911 22.5L1025.86 22.5L1025.86 20.5L906.911 20.5L906.911 22.5ZM1024.86 21.5L1024.86 47.24L1026.86 47.24L1026.86 21.5L1024.86 21.5ZM1025.86 46.24L982.181 46.24L982.181 48.24L1025.86 48.24L1025.86 46.24ZM981.181 47.24L981.181 158L983.181 158L983.181 47.24L981.181 47.24ZM982.181 157L950.591 157L950.591 159L982.181 159L982.181 157ZM1081.12 155.075L1080.76 156.008L1080.77 156.01L1081.12 155.075ZM1057.33 140.255L1056.64 140.976L1056.65 140.983L1057.33 140.255ZM1041.73 117.83L1040.81 118.221L1040.82 118.232L1041.73 117.83ZM1041.73 61.67L1040.82 61.2677L1040.81 61.2794L1041.73 61.67ZM1081.32 24.425L1080.96 23.492L1080.96 23.492L1081.32 24.425ZM1140.6 24.425L1140.23 25.3562L1140.24 25.358L1140.6 24.425ZM1164.19 39.245L1163.5 39.9661L1163.51 39.9728L1164.19 39.245ZM1179.99 61.67L1179.07 62.0723L1179.08 62.0774L1179.99 61.67ZM1179.99 118.025L1180.9 118.427L1180.91 118.422L1179.99 118.025ZM1164.19 140.45L1164.88 141.178L1164.88 141.178L1164.19 140.45ZM1140.6 155.075L1140.24 154.142L1140.23 154.144L1140.6 155.075ZM1127.73 130.31L1127.36 129.381L1127.35 129.385L1127.73 130.31ZM1141.38 121.34L1140.67 120.633L1140.67 120.633L1141.38 121.34ZM1150.35 107.495L1149.43 107.112L1149.42 107.122L1149.42 107.131L1150.35 107.495ZM1150.35 72.005L1149.42 72.3685L1149.42 72.3783L1149.43 72.388L1150.35 72.005ZM1141.38 58.16L1140.66 58.855L1140.67 58.8611L1140.67 58.8671L1141.38 58.16ZM1127.92 49.19L1127.55 50.1185L1127.55 50.1185L1127.92 49.19ZM1093.99 49.19L1093.62 48.2615L1093.61 48.2648L1093.99 49.19ZM1080.54 58.16L1081.25 58.8671L1081.25 58.8671L1080.54 58.16ZM1071.37 72.005L1070.45 71.622L1070.45 71.6317L1070.44 71.6414L1071.37 72.005ZM1071.37 107.495L1070.44 107.851L1070.44 107.865L1070.45 107.878L1071.37 107.495ZM1080.34 121.34L1079.62 122.035L1079.63 122.041L1079.64 122.047L1080.34 121.34ZM1093.99 130.31L1093.62 131.238L1093.62 131.238L1093.99 130.31ZM1111.15 159.34C1100.47 159.34 1090.59 157.603 1081.48 154.14L1080.77 156.01C1090.12 159.567 1100.25 161.34 1111.15 161.34L1111.15 159.34ZM1081.48 154.142C1072.5 150.676 1064.68 145.804 1058.02 139.527L1056.65 140.983C1063.51 147.446 1071.55 152.454 1080.76 156.008L1081.48 154.142ZM1058.03 139.534C1051.49 133.256 1046.37 125.89 1042.65 117.428L1040.82 118.232C1044.64 126.93 1049.91 134.514 1056.64 140.976L1058.03 139.534ZM1042.65 117.439C1039.07 108.993 1037.27 99.7677 1037.27 89.75L1035.27 89.75C1035.27 100.012 1037.12 109.507 1040.81 118.221L1042.65 117.439ZM1037.27 89.75C1037.27 79.7323 1039.07 70.5065 1042.65 62.0605L1040.81 61.2794C1037.12 69.9935 1035.27 79.4877 1035.27 89.75L1037.27 89.75ZM1042.65 62.0723C1046.37 53.6139 1051.55 46.2499 1058.21 39.9728L1056.84 38.5172C1049.98 44.98 1044.64 52.566 1040.82 61.2677L1042.65 62.0723ZM1058.21 39.9728C1064.88 33.6961 1072.69 28.8237 1081.68 25.358L1080.96 23.492C1071.74 27.0462 1063.7 32.0539 1056.84 38.5172L1058.21 39.9728ZM1081.68 25.358C1090.65 21.8962 1100.41 20.16 1110.96 20.16L1110.96 18.16C1100.19 18.16 1090.18 19.9338 1080.96 23.492L1081.68 25.358ZM1110.96 20.16C1121.64 20.16 1131.39 21.8968 1140.23 25.3562L1140.96 23.4937C1131.86 19.9332 1121.86 18.16 1110.96 18.16L1110.96 20.16ZM1140.24 25.358C1149.22 28.8231 1156.97 33.6937 1163.5 39.9661L1164.89 38.5239C1158.16 32.0563 1150.18 27.0468 1140.96 23.492L1140.24 25.358ZM1163.51 39.9728C1170.17 46.2499 1175.36 53.6139 1179.07 62.0723L1180.9 61.2677C1177.08 52.566 1171.74 44.98 1164.88 38.5172L1163.51 39.9728ZM1179.08 62.0774C1182.78 70.3858 1184.64 79.6049 1184.64 89.75L1186.64 89.75C1186.64 79.3551 1184.74 69.8542 1180.9 61.2625L1179.08 62.0774ZM1184.64 89.75C1184.64 99.7628 1182.78 109.052 1179.07 117.628L1180.91 118.422C1184.73 109.578 1186.64 100.017 1186.64 89.75L1184.64 89.75ZM1179.07 117.623C1175.36 126.081 1170.17 133.445 1163.51 139.722L1164.88 141.178C1171.74 134.715 1177.08 127.129 1180.9 118.427L1179.07 117.623ZM1163.51 139.722C1156.98 145.867 1149.23 150.675 1140.24 154.142L1140.96 156.008C1150.17 152.455 1158.15 147.513 1164.88 141.178L1163.51 139.722ZM1140.23 154.144C1131.39 157.604 1121.7 159.34 1111.15 159.34L1111.15 161.34C1121.93 161.34 1131.87 159.566 1140.96 156.006L1140.23 154.144ZM1110.96 134.43C1117.18 134.43 1122.9 133.37 1128.11 131.235L1127.35 129.385C1122.41 131.41 1116.95 132.43 1110.96 132.43L1110.96 134.43ZM1128.1 131.238C1133.42 129.109 1138.09 126.044 1142.09 122.047L1140.67 120.633C1136.87 124.436 1132.43 127.351 1127.36 129.382L1128.1 131.238ZM1142.09 122.047C1146.09 118.046 1149.15 113.312 1151.28 107.859L1149.42 107.131C1147.39 112.338 1144.47 116.834 1140.67 120.633L1142.09 122.047ZM1151.27 107.878C1153.54 102.412 1154.66 96.3649 1154.66 89.75L1152.66 89.75C1152.66 96.1351 1151.58 101.918 1149.43 107.112L1151.27 107.878ZM1154.66 89.75C1154.66 83.1351 1153.54 77.0878 1151.27 71.622L1149.43 72.388C1151.58 77.5822 1152.66 83.3649 1152.66 89.75L1154.66 89.75ZM1151.28 71.6414C1149.15 66.1876 1146.09 61.4543 1142.09 57.4529L1140.67 58.8671C1144.47 62.6657 1147.39 67.1624 1149.42 72.3685L1151.28 71.6414ZM1142.1 57.465C1138.23 53.4602 1133.62 50.3922 1128.3 48.2615L1127.55 50.1185C1132.63 52.1478 1136.99 55.0598 1140.66 58.855L1142.1 57.465ZM1128.3 48.2615C1122.97 46.1301 1117.18 45.07 1110.96 45.07L1110.96 47.07C1116.95 47.07 1122.48 48.0898 1127.55 50.1185L1128.3 48.2615ZM1110.96 45.07C1104.73 45.07 1098.95 46.1301 1093.62 48.2615L1094.37 50.1185C1099.44 48.0898 1104.96 47.07 1110.96 47.07L1110.96 45.07ZM1093.61 48.2648C1088.42 50.3954 1083.82 53.4598 1079.83 57.4529L1081.25 58.8671C1085.05 55.0601 1089.43 52.1445 1094.37 50.1152L1093.61 48.2648ZM1079.83 57.4529C1075.83 61.4499 1072.71 66.1765 1070.45 71.622L1072.3 72.388C1074.46 67.1735 1077.44 62.6701 1081.25 58.8671L1079.83 57.4529ZM1070.44 71.6414C1068.31 77.102 1067.25 83.1424 1067.25 89.75L1069.25 89.75C1069.25 83.3576 1070.28 77.568 1072.31 72.3685L1070.44 71.6414ZM1067.25 89.75C1067.25 96.2306 1068.31 102.267 1070.44 107.851L1072.31 107.139C1070.28 101.803 1069.25 96.0093 1069.25 89.75L1067.25 89.75ZM1070.45 107.878C1072.71 113.316 1075.76 118.039 1079.62 122.035L1081.06 120.645C1077.39 116.841 1074.46 112.334 1072.3 107.112L1070.45 107.878ZM1079.64 122.047C1083.63 126.044 1088.3 129.109 1093.62 131.238L1094.37 129.382C1089.29 127.351 1084.85 124.436 1081.05 120.633L1079.64 122.047ZM1093.62 131.238C1098.95 133.37 1104.73 134.43 1110.96 134.43L1110.96 132.43C1104.96 132.43 1099.44 131.41 1094.37 129.382L1093.62 131.238Z" fill="#B473FF"/>
</svg>
