<svg width="1240" height="211" viewBox="0 0 1240 211" fill="none" xmlns="http://www.w3.org/2000/svg">
<path d="M128.31 195.34C117.78 195.34 107.965 193.65 98.8647 190.27C89.8947 186.76 82.0947 181.82 75.4647 175.45C68.8347 169.08 63.6347 161.605 59.8647 153.025C56.2247 144.445 54.4047 135.02 54.4047 124.75C54.4047 114.48 56.2247 105.055 59.8647 96.4751C63.6347 87.8951 68.8347 80.4201 75.4647 74.0501C82.2247 67.6801 90.0897 62.8051 99.0597 59.4251C108.03 55.9151 117.845 54.1601 128.505 54.1601C140.335 54.1601 150.995 56.2401 160.485 60.4001C170.105 64.4301 178.165 70.4101 184.665 78.3401L164.385 97.0601C159.705 91.7301 154.505 87.7651 148.785 85.1651C143.065 82.4351 136.825 81.0701 130.065 81.0701C123.695 81.0701 117.845 82.1101 112.515 84.1901C107.185 86.2701 102.57 89.2601 98.6697 93.1601C94.7697 97.0601 91.7147 101.675 89.5047 107.005C87.4247 112.335 86.3847 118.25 86.3847 124.75C86.3847 131.25 87.4247 137.165 89.5047 142.495C91.7147 147.825 94.7697 152.44 98.6697 156.34C102.57 160.24 107.185 163.23 112.515 165.31C117.845 167.39 123.695 168.43 130.065 168.43C136.825 168.43 143.065 167.13 148.785 164.53C154.505 161.8 159.705 157.705 164.385 152.245L184.665 170.965C178.165 178.895 170.105 184.94 160.485 189.1C150.995 193.26 140.27 195.34 128.31 195.34ZM273.341 195.34C262.551 195.34 252.541 193.585 243.311 190.075C234.211 186.565 226.281 181.625 219.521 175.255C212.891 168.885 207.691 161.41 203.921 152.83C200.281 144.25 198.461 134.89 198.461 124.75C198.461 114.61 200.281 105.25 203.921 96.6701C207.691 88.0901 212.956 80.6151 219.716 74.2451C226.476 67.8751 234.406 62.9351 243.506 59.4251C252.606 55.9151 262.486 54.1601 273.146 54.1601C283.936 54.1601 293.816 55.9151 302.786 59.4251C311.886 62.9351 319.751 67.8751 326.381 74.2451C333.141 80.6151 338.406 88.0901 342.176 96.6701C345.946 105.12 347.831 114.48 347.831 124.75C347.831 134.89 345.946 144.315 342.176 153.025C338.406 161.605 333.141 169.08 326.381 175.45C319.751 181.69 311.886 186.565 302.786 190.075C293.816 193.585 284.001 195.34 273.341 195.34ZM273.146 168.43C279.256 168.43 284.846 167.39 289.916 165.31C295.116 163.23 299.666 160.24 303.566 156.34C307.466 152.44 310.456 147.825 312.536 142.495C314.746 137.165 315.851 131.25 315.851 124.75C315.851 118.25 314.746 112.335 312.536 107.005C310.456 101.675 307.466 97.0601 303.566 93.1601C299.796 89.2601 295.311 86.2701 290.111 84.1901C284.911 82.1101 279.256 81.0701 273.146 81.0701C267.036 81.0701 261.381 82.1101 256.181 84.1901C251.111 86.2701 246.626 89.2601 242.726 93.1601C238.826 97.0601 235.771 101.675 233.561 107.005C231.481 112.335 230.441 118.25 230.441 124.75C230.441 131.12 231.481 137.035 233.561 142.495C235.771 147.825 238.761 152.44 242.531 156.34C246.431 160.24 250.981 163.23 256.181 165.31C261.381 167.39 267.036 168.43 273.146 168.43ZM375.472 193L375.472 56.5001L401.602 56.5001L482.137 154.78L469.462 154.78L469.462 56.5001L500.662 56.5001L500.662 193L474.727 193L393.997 94.7201L406.672 94.7201L406.672 193L375.472 193ZM565.133 193L565.133 82.2401L521.453 82.2401L521.453 56.5001L640.403 56.5001L640.403 82.2401L596.723 82.2401L596.723 193L565.133 193ZM636.504 193L697.344 56.5001L728.544 56.5001L789.579 193L756.429 193L706.509 72.4901L718.989 72.4901L668.874 193L636.504 193ZM666.924 163.75L675.309 139.765L745.509 139.765L754.089 163.75L666.924 163.75ZM871.062 195.34C860.532 195.34 850.717 193.65 841.617 190.27C832.647 186.76 824.847 181.82 818.217 175.45C811.587 169.08 806.387 161.605 802.617 153.025C798.977 144.445 797.157 135.02 797.157 124.75C797.157 114.48 798.977 105.055 802.617 96.4751C806.387 87.8951 811.587 80.4201 818.217 74.0501C824.977 67.6801 832.842 62.8051 841.812 59.4251C850.782 55.9151 860.597 54.1601 871.257 54.1601C883.087 54.1601 893.747 56.2401 903.237 60.4001C912.857 64.4301 920.917 70.4101 927.417 78.3401L907.137 97.0601C902.457 91.7301 897.257 87.7651 891.537 85.1651C885.817 82.4351 879.577 81.0701 872.817 81.0701C866.447 81.0701 860.597 82.1101 855.267 84.1901C849.937 86.2701 845.322 89.2601 841.422 93.1601C837.522 97.0601 834.467 101.675 832.257 107.005C830.177 112.335 829.137 118.25 829.137 124.75C829.137 131.25 830.177 137.165 832.257 142.495C834.467 147.825 837.522 152.44 841.422 156.34C845.322 160.24 849.937 163.23 855.267 165.31C860.597 167.39 866.447 168.43 872.817 168.43C879.577 168.43 885.817 167.13 891.537 164.53C897.257 161.8 902.457 157.705 907.137 152.245L927.417 170.965C920.917 178.895 912.857 184.94 903.237 189.1C893.747 193.26 883.022 195.34 871.062 195.34ZM979.591 193L979.591 82.2401L935.911 82.2401L935.911 56.5001L1054.86 56.5001L1054.86 82.2401L1011.18 82.2401L1011.18 193L979.591 193ZM1140.15 195.34C1129.36 195.34 1119.35 193.585 1110.12 190.075C1101.02 186.565 1093.09 181.625 1086.33 175.255C1079.7 168.885 1074.5 161.41 1070.73 152.83C1067.09 144.25 1065.27 134.89 1065.27 124.75C1065.27 114.61 1067.09 105.25 1070.73 96.6701C1074.5 88.0901 1079.77 80.6151 1086.53 74.2451C1093.29 67.8751 1101.22 62.9351 1110.32 59.4251C1119.42 55.9151 1129.3 54.1601 1139.96 54.1601C1150.75 54.1601 1160.63 55.9151 1169.6 59.4251C1178.7 62.9351 1186.56 67.8751 1193.19 74.2451C1199.95 80.6151 1205.22 88.0901 1208.99 96.6701C1212.76 105.12 1214.64 114.48 1214.64 124.75C1214.64 134.89 1212.76 144.315 1208.99 153.025C1205.22 161.605 1199.95 169.08 1193.19 175.45C1186.56 181.69 1178.7 186.565 1169.6 190.075C1160.63 193.585 1150.81 195.34 1140.15 195.34ZM1139.96 168.43C1146.07 168.43 1151.66 167.39 1156.73 165.31C1161.93 163.23 1166.48 160.24 1170.38 156.34C1174.28 152.44 1177.27 147.825 1179.35 142.495C1181.56 137.165 1182.66 131.25 1182.66 124.75C1182.66 118.25 1181.56 112.335 1179.35 107.005C1177.27 101.675 1174.28 97.0601 1170.38 93.1601C1166.61 89.2601 1162.12 86.2701 1156.92 84.1901C1151.72 82.1101 1146.07 81.0701 1139.96 81.0701C1133.85 81.0701 1128.19 82.1101 1122.99 84.1901C1117.92 86.2701 1113.44 89.2601 1109.54 93.1601C1105.64 97.0601 1102.58 101.675 1100.37 107.005C1098.29 112.335 1097.25 118.25 1097.25 124.75C1097.25 131.12 1098.29 137.035 1100.37 142.495C1102.58 147.825 1105.57 152.44 1109.34 156.34C1113.24 160.24 1117.79 163.23 1122.99 165.31C1128.19 167.39 1133.85 168.43 1139.96 168.43Z" fill="black"/>
<path d="M98.8647 190.27L98.5003 191.201L98.5084 191.205L98.5165 191.208L98.8647 190.27ZM75.4647 175.45L74.7719 176.171L74.7719 176.171L75.4647 175.45ZM59.8647 153.025L58.944 153.416L58.9492 153.427L59.8647 153.025ZM59.8647 96.4751L58.9491 96.0728L58.9441 96.0846L59.8647 96.4751ZM75.4647 74.0501L74.7788 73.3223L74.7719 73.329L75.4647 74.0501ZM99.0597 59.4251L99.4123 60.361L99.4241 60.3564L99.0597 59.4251ZM160.485 60.4001L160.083 61.316L160.091 61.3193L160.098 61.3225L160.485 60.4001ZM184.665 78.3401L185.343 79.0749L186.036 78.4354L185.438 77.7062L184.665 78.3401ZM164.385 97.0601L163.633 97.7199L164.31 98.4903L165.063 97.7949L164.385 97.0601ZM148.785 85.1651L148.354 86.0676L148.362 86.0716L148.371 86.0755L148.785 85.1651ZM98.6697 93.1601L99.3768 93.8672L99.3768 93.8672L98.6697 93.1601ZM89.5047 107.005L88.5809 106.622L88.5769 106.632L88.5731 106.642L89.5047 107.005ZM89.5047 142.495L88.5731 142.859L88.5769 142.868L88.5809 142.878L89.5047 142.495ZM98.6697 156.34L97.9626 157.047L97.9626 157.047L98.6697 156.34ZM148.785 164.53L149.198 165.44L149.207 165.437L149.215 165.433L148.785 164.53ZM164.385 152.245L165.063 151.51L164.301 150.807L163.625 151.594L164.385 152.245ZM184.665 170.965L185.438 171.599L186.036 170.87L185.343 170.23L184.665 170.965ZM160.485 189.1L160.088 188.182L160.083 188.184L160.485 189.1ZM128.31 194.34C117.888 194.34 108.192 192.668 99.2129 189.333L98.5165 191.208C107.737 194.632 117.671 196.34 128.31 196.34L128.31 194.34ZM99.2291 189.339C90.3754 185.874 82.6884 181.004 76.1575 174.729L74.7719 176.171C81.501 182.636 89.414 187.646 98.5003 191.201L99.2291 189.339ZM76.1575 174.729C69.6237 168.451 64.4986 161.085 60.7802 152.623L58.9492 153.427C62.7708 162.125 68.0456 169.709 74.7719 176.171L76.1575 174.729ZM60.7853 152.635C57.2028 144.19 55.4047 134.9 55.4047 124.75L53.4047 124.75C53.4047 135.141 55.2466 144.7 58.9441 153.416L60.7853 152.635ZM55.4047 124.75C55.4047 114.601 57.2028 105.31 60.7853 96.8657L58.9441 96.0846C55.2466 104.8 53.4047 114.36 53.4047 124.75L55.4047 124.75ZM60.7802 96.8774C64.4986 88.4148 69.6237 81.0488 76.1575 74.7712L74.7719 73.329C68.0456 79.7915 62.7708 87.3754 58.9492 96.0728L60.7802 96.8774ZM76.1505 74.7779C82.8112 68.5015 90.562 63.6958 99.4123 60.3609L98.7071 58.4893C89.6174 61.9144 81.6382 66.8587 74.7789 73.3223L76.1505 74.7779ZM99.4241 60.3564C108.266 56.8964 117.956 55.1601 128.505 55.1601L128.505 53.1601C117.733 53.1601 107.793 54.9338 98.6953 58.4939L99.4241 60.3564ZM128.505 55.1601C140.216 55.1601 150.737 57.2188 160.083 61.316L160.886 59.4843C151.253 55.2614 140.453 53.1601 128.505 53.1601L128.505 55.1601ZM160.098 61.3225C169.57 65.2905 177.497 71.1726 183.891 78.974L185.438 77.7062C178.833 69.6476 170.639 63.5697 160.871 59.4778L160.098 61.3225ZM183.986 77.6053L163.706 96.3253L165.063 97.7949L185.343 79.0749L183.986 77.6053ZM165.136 96.4003C160.375 90.9776 155.063 86.9205 149.198 84.2547L148.371 86.0755C153.946 88.6097 159.035 92.4827 163.633 97.7199L165.136 96.4003ZM149.215 84.2626C143.352 81.4642 136.964 80.0701 130.065 80.0701L130.065 82.0701C136.686 82.0701 142.777 83.406 148.354 86.0676L149.215 84.2626ZM130.065 80.0701C123.584 80.0701 117.609 81.1285 112.151 83.2585L112.878 85.1217C118.08 83.0918 123.805 82.0701 130.065 82.0701L130.065 80.0701ZM112.151 83.2585C106.697 85.3869 101.964 88.4516 97.9626 92.453L99.3768 93.8672C103.175 90.0687 107.672 87.1533 112.878 85.1217L112.151 83.2585ZM97.9626 92.453C93.9655 96.45 90.8388 101.177 88.5809 106.622L90.4284 107.388C92.5905 102.174 95.5738 97.6702 99.3768 93.8672L97.9626 92.453ZM88.5731 106.642C86.4422 112.102 85.3847 118.143 85.3847 124.75L87.3847 124.75C87.3847 118.358 88.4072 112.568 90.4363 107.369L88.5731 106.642ZM85.3847 124.75C85.3847 131.358 86.4422 137.398 88.5731 142.859L90.4363 142.132C88.4072 136.932 87.3847 131.143 87.3847 124.75L85.3847 124.75ZM88.5809 142.878C90.8388 148.324 93.9655 153.05 97.9626 157.047L99.3768 155.633C95.5738 151.83 92.5905 147.327 90.4284 142.112L88.5809 142.878ZM97.9626 157.047C101.964 161.049 106.697 164.113 112.151 166.242L112.878 164.379C107.672 162.347 103.175 159.432 99.3768 155.633L97.9626 157.047ZM112.151 166.242C117.609 168.372 123.584 169.43 130.065 169.43L130.065 167.43C123.805 167.43 118.08 166.408 112.878 164.379L112.151 166.242ZM130.065 169.43C136.956 169.43 143.339 168.104 149.198 165.44L148.371 163.62C142.79 166.156 136.693 167.43 130.065 167.43L130.065 169.43ZM149.215 165.433C155.077 162.635 160.385 158.448 165.144 152.896L163.625 151.594C159.024 156.963 153.932 160.965 148.354 163.628L149.215 165.433ZM163.706 152.98L183.986 171.7L185.343 170.23L165.063 151.51L163.706 152.98ZM183.891 170.331C177.495 178.135 169.565 184.084 160.088 188.182L160.882 190.018C170.645 185.796 178.835 179.655 185.438 171.599L183.891 170.331ZM160.083 188.184C150.738 192.281 140.153 194.34 128.31 194.34L128.31 196.34C140.387 196.34 151.252 194.239 160.886 190.016L160.083 188.184ZM243.311 190.075L242.951 191.008L242.955 191.01L243.311 190.075ZM219.521 175.255L218.828 175.976L218.835 175.983L219.521 175.255ZM203.921 152.83L203 153.221L203.005 153.232L203.921 152.83ZM203.921 96.6701L203.005 96.2678L203 96.2796L203.921 96.6701ZM243.506 59.4251L243.146 58.4921L243.146 58.4921L243.506 59.4251ZM302.786 59.4251L302.422 60.3564L302.426 60.3581L302.786 59.4251ZM326.381 74.2451L325.688 74.9663L325.695 74.9729L326.381 74.2451ZM342.176 96.6701L341.26 97.0724L341.263 97.0776L342.176 96.6701ZM342.176 153.025L343.091 153.427L343.094 153.422L342.176 153.025ZM326.381 175.45L327.066 176.178L327.067 176.178L326.381 175.45ZM302.786 190.075L302.426 189.142L302.422 189.144L302.786 190.075ZM289.916 165.31L289.545 164.382L289.536 164.385L289.916 165.31ZM303.566 156.34L302.859 155.633L302.859 155.633L303.566 156.34ZM312.536 142.495L311.612 142.112L311.608 142.122L311.604 142.132L312.536 142.495ZM312.536 107.005L311.604 107.369L311.608 107.378L311.612 107.388L312.536 107.005ZM303.566 93.1601L302.847 93.8551L302.853 93.8612L302.859 93.8672L303.566 93.1601ZM290.111 84.1901L289.74 85.1186L289.74 85.1186L290.111 84.1901ZM256.181 84.1901L255.81 83.2616L255.801 83.2649L256.181 84.1901ZM242.726 93.1601L243.433 93.8672L243.433 93.8672L242.726 93.1601ZM233.561 107.005L232.637 106.622L232.633 106.632L232.629 106.642L233.561 107.005ZM233.561 142.495L232.626 142.851L232.632 142.865L232.637 142.878L233.561 142.495ZM242.531 156.34L241.812 157.035L241.818 157.041L241.824 157.047L242.531 156.34ZM256.181 165.31L255.81 166.239L255.81 166.239L256.181 165.31ZM273.341 194.34C262.661 194.34 252.773 192.603 243.666 189.14L242.955 191.01C252.309 194.567 262.441 196.34 273.341 196.34L273.341 194.34ZM243.671 189.142C234.686 185.676 226.868 180.804 220.207 174.527L218.835 175.983C225.694 182.446 233.736 187.454 242.951 191.008L243.671 189.142ZM220.214 174.534C213.68 168.256 208.555 160.89 204.836 152.428L203.005 153.232C206.827 161.93 212.102 169.514 218.828 175.976L220.214 174.534ZM204.842 152.44C201.258 143.994 199.461 134.768 199.461 124.75L197.461 124.75C197.461 135.012 199.303 144.507 203 153.221L204.842 152.44ZM199.461 124.75C199.461 114.732 201.258 105.507 204.842 97.0607L203 96.2796C199.303 104.994 197.461 114.488 197.461 124.75L199.461 124.75ZM204.836 97.0724C208.553 88.6141 213.74 81.2501 220.402 74.9729L219.03 73.5173C212.172 79.9802 206.829 87.5662 203.005 96.2678L204.836 97.0724ZM220.402 74.9729C227.063 68.6962 234.881 63.8238 243.866 60.3581L243.146 58.4921C233.931 62.0464 225.889 67.054 219.03 73.5173L220.402 74.9729ZM243.866 60.3581C252.841 56.8963 262.598 55.1601 273.146 55.1601L273.146 53.1601C262.374 53.1601 252.371 54.9339 243.146 58.4921L243.866 60.3581ZM273.146 55.1601C283.826 55.1601 293.581 56.8969 302.422 60.3564L303.15 58.4939C294.051 54.9333 284.046 53.1601 273.146 53.1601L273.146 55.1601ZM302.426 60.3581C311.41 63.8232 319.16 68.6938 325.688 74.9662L327.074 73.524C320.342 67.0564 312.362 62.047 303.146 58.4921L302.426 60.3581ZM325.695 74.9729C332.357 81.2501 337.544 88.6141 341.26 97.0724L343.091 96.2678C339.268 87.5662 333.925 79.9802 327.067 73.5173L325.695 74.9729ZM341.263 97.0776C344.969 105.386 346.831 114.605 346.831 124.75L348.831 124.75C348.831 114.355 346.922 104.854 343.089 96.2627L341.263 97.0776ZM346.831 124.75C346.831 134.763 344.97 144.052 341.258 152.628L343.094 153.422C346.922 144.579 348.831 135.017 348.831 124.75L346.831 124.75ZM341.26 152.623C337.544 161.081 332.357 168.445 325.695 174.722L327.067 176.178C333.925 169.715 339.268 162.129 343.091 153.427L341.26 152.623ZM325.696 174.722C319.166 180.867 311.414 185.675 302.426 189.142L303.146 191.008C312.358 187.455 320.336 182.513 327.066 176.178L325.696 174.722ZM302.422 189.144C293.579 192.604 283.89 194.34 273.341 194.34L273.341 196.34C284.112 196.34 294.052 194.566 303.15 191.006L302.422 189.144ZM273.146 169.43C279.371 169.43 285.092 168.37 290.295 166.235L289.536 164.385C284.6 166.41 279.141 167.43 273.146 167.43L273.146 169.43ZM290.287 166.239C295.611 164.109 300.276 161.044 304.273 157.047L302.859 155.633C299.056 159.436 294.621 162.351 289.545 164.382L290.287 166.239ZM304.273 157.047C308.274 153.046 311.339 148.313 313.468 142.859L311.604 142.132C309.573 147.338 306.657 151.834 302.859 155.633L304.273 157.047ZM313.46 142.878C315.726 137.412 316.851 131.365 316.851 124.75L314.851 124.75C314.851 131.135 313.766 136.918 311.612 142.112L313.46 142.878ZM316.851 124.75C316.851 118.135 315.726 112.088 313.46 106.622L311.612 107.388C313.766 112.582 314.851 118.365 314.851 124.75L316.851 124.75ZM313.468 106.642C311.339 101.188 308.274 96.4544 304.273 92.453L302.859 93.8672C306.657 97.6658 309.573 102.163 311.604 107.369L313.468 106.642ZM304.285 92.4651C300.414 88.4603 295.809 85.3923 290.482 83.2616L289.74 85.1186C294.813 87.1479 299.178 90.0599 302.847 93.8551L304.285 92.4651ZM290.482 83.2616C285.154 81.1303 279.372 80.0701 273.146 80.0701L273.146 82.0701C279.14 82.0701 284.668 83.09 289.74 85.1186L290.482 83.2616ZM273.146 80.0701C266.92 80.0701 261.138 81.1303 255.81 83.2616L256.552 85.1186C261.624 83.09 267.152 82.0701 273.146 82.0701L273.146 80.0701ZM255.801 83.2649C250.608 85.3956 246.012 88.46 242.019 92.453L243.433 93.8672C247.24 90.0603 251.614 87.1447 256.56 85.1153L255.801 83.2649ZM242.019 92.453C238.022 96.45 234.895 101.177 232.637 106.622L234.485 107.388C236.647 102.174 239.63 97.6702 243.433 93.8672L242.019 92.453ZM232.629 106.642C230.498 112.102 229.441 118.143 229.441 124.75L231.441 124.75C231.441 118.358 232.463 112.568 234.493 107.369L232.629 106.642ZM229.441 124.75C229.441 131.231 230.499 137.268 232.626 142.851L234.495 142.139C232.462 136.803 231.441 131.009 231.441 124.75L229.441 124.75ZM232.637 142.878C234.892 148.317 237.949 153.039 241.812 157.035L243.25 155.645C239.573 151.841 236.65 147.334 234.485 142.112L232.637 142.878ZM241.824 157.047C245.821 161.044 250.486 164.109 255.81 166.239L256.552 164.382C251.476 162.351 247.041 159.436 243.238 155.633L241.824 157.047ZM255.81 166.239C261.138 168.37 266.92 169.43 273.146 169.43L273.146 167.43C267.152 167.43 261.624 166.41 256.552 164.382L255.81 166.239ZM375.472 193L374.472 193L374.472 194L375.472 194L375.472 193ZM375.472 56.5001L375.472 55.5001L374.472 55.5001L374.472 56.5001L375.472 56.5001ZM401.602 56.5001L402.376 55.8663L402.076 55.5001L401.602 55.5001L401.602 56.5001ZM482.137 154.78L482.137 155.78L484.249 155.78L482.911 154.146L482.137 154.78ZM469.462 154.78L468.462 154.78L468.462 155.78L469.462 155.78L469.462 154.78ZM469.462 56.5001L469.462 55.5001L468.462 55.5001L468.462 56.5001L469.462 56.5001ZM500.662 56.5001L501.662 56.5001L501.662 55.5001L500.662 55.5001L500.662 56.5001ZM500.662 193L500.662 194L501.662 194L501.662 193L500.662 193ZM474.727 193L473.954 193.635L474.254 194L474.727 194L474.727 193ZM393.997 94.7201L393.997 93.7201L391.882 93.7201L393.224 95.3549L393.997 94.7201ZM406.672 94.7201L407.672 94.7201L407.672 93.7201L406.672 93.7201L406.672 94.7201ZM406.672 193L406.672 194L407.672 194L407.672 193L406.672 193ZM376.472 193L376.472 56.5001L374.472 56.5001L374.472 193L376.472 193ZM375.472 57.5001L401.602 57.5001L401.602 55.5001L375.472 55.5001L375.472 57.5001ZM400.829 57.1339L481.364 155.414L482.911 154.146L402.376 55.8663L400.829 57.1339ZM482.137 153.78L469.462 153.78L469.462 155.78L482.137 155.78L482.137 153.78ZM470.462 154.78L470.462 56.5001L468.462 56.5001L468.462 154.78L470.462 154.78ZM469.462 57.5001L500.662 57.5001L500.662 55.5001L469.462 55.5001L469.462 57.5001ZM499.662 56.5001L499.662 193L501.662 193L501.662 56.5001L499.662 56.5001ZM500.662 192L474.727 192L474.727 194L500.662 194L500.662 192ZM475.5 192.365L394.77 94.0854L393.224 95.3549L473.954 193.635L475.5 192.365ZM393.997 95.7201L406.672 95.7201L406.672 93.7201L393.997 93.7201L393.997 95.7201ZM405.672 94.7201L405.672 193L407.672 193L407.672 94.7201L405.672 94.7201ZM406.672 192L375.472 192L375.472 194L406.672 194L406.672 192ZM565.133 193L564.133 193L564.133 194L565.133 194L565.133 193ZM565.133 82.2401L566.133 82.2401L566.133 81.2401L565.133 81.2401L565.133 82.2401ZM521.453 82.2401L520.453 82.2401L520.453 83.2401L521.453 83.2401L521.453 82.2401ZM521.453 56.5001L521.453 55.5001L520.453 55.5001L520.453 56.5001L521.453 56.5001ZM640.403 56.5001L641.403 56.5001L641.403 55.5001L640.403 55.5001L640.403 56.5001ZM640.403 82.2401L640.403 83.2401L641.403 83.2401L641.403 82.2401L640.403 82.2401ZM596.723 82.2401L596.723 81.2401L595.723 81.2401L595.723 82.2401L596.723 82.2401ZM596.723 193L596.723 194L597.723 194L597.723 193L596.723 193ZM566.133 193L566.133 82.2401L564.133 82.2401L564.133 193L566.133 193ZM565.133 81.2401L521.453 81.2401L521.453 83.2401L565.133 83.2401L565.133 81.2401ZM522.453 82.2401L522.453 56.5001L520.453 56.5001L520.453 82.2401L522.453 82.2401ZM521.453 57.5001L640.403 57.5001L640.403 55.5001L521.453 55.5001L521.453 57.5001ZM639.403 56.5001L639.403 82.2401L641.403 82.2401L641.403 56.5001L639.403 56.5001ZM640.403 81.2401L596.723 81.2401L596.723 83.2401L640.403 83.2401L640.403 81.2401ZM595.723 82.2401L595.723 193L597.723 193L597.723 82.2401L595.723 82.2401ZM596.723 192L565.133 192L565.133 194L596.723 194L596.723 192ZM636.504 193L635.591 192.593L634.963 194L636.504 194L636.504 193ZM697.344 56.5001L697.344 55.5001L696.695 55.5001L696.431 56.093L697.344 56.5001ZM728.544 56.5001L729.457 56.0919L729.192 55.5001L728.544 55.5001L728.544 56.5001ZM789.579 193L789.579 194L791.122 194L790.492 192.592L789.579 193ZM756.429 193L755.505 193.383L755.761 194L756.429 194L756.429 193ZM706.509 72.4901L706.509 71.4901L705.012 71.4901L705.585 72.8728L706.509 72.4901ZM718.989 72.4901L719.912 72.8741L720.488 71.4901L718.989 71.4901L718.989 72.4901ZM668.874 193L668.874 194L669.541 194L669.797 193.384L668.874 193ZM666.924 163.75L665.98 163.42L665.515 164.75L666.924 164.75L666.924 163.75ZM675.309 139.765L675.309 138.765L674.599 138.765L674.365 139.435L675.309 139.765ZM745.509 139.765L746.451 139.428L746.213 138.765L745.509 138.765L745.509 139.765ZM754.089 163.75L754.089 164.75L755.509 164.75L755.031 163.413L754.089 163.75ZM637.417 193.407L698.257 56.9072L696.431 56.093L635.591 192.593L637.417 193.407ZM697.344 57.5001L728.544 57.5001L728.544 55.5001L697.344 55.5001L697.344 57.5001ZM727.631 56.9083L788.666 193.408L790.492 192.592L729.457 56.0919L727.631 56.9083ZM789.579 192L756.429 192L756.429 194L789.579 194L789.579 192ZM757.353 192.617L707.433 72.1074L705.585 72.8728L755.505 193.383L757.353 192.617ZM706.509 73.4901L718.989 73.4901L718.989 71.4901L706.509 71.4901L706.509 73.4901ZM718.066 72.1061L667.951 192.616L669.797 193.384L719.912 72.8741L718.066 72.1061ZM668.874 192L636.504 192L636.504 194L668.874 194L668.874 192ZM667.868 164.08L676.253 140.095L674.365 139.435L665.98 163.42L667.868 164.08ZM675.309 140.765L745.509 140.765L745.509 138.765L675.309 138.765L675.309 140.765ZM744.567 140.102L753.147 164.087L755.031 163.413L746.451 139.428L744.567 140.102ZM754.089 162.75L666.924 162.75L666.924 164.75L754.089 164.75L754.089 162.75ZM841.617 190.27L841.252 191.201L841.26 191.205L841.268 191.208L841.617 190.27ZM818.217 175.45L817.524 176.171L817.524 176.171L818.217 175.45ZM802.617 153.025L801.696 153.416L801.701 153.427L802.617 153.025ZM802.617 96.4751L801.701 96.0728L801.696 96.0846L802.617 96.4751ZM818.217 74.0501L817.531 73.3223L817.524 73.329L818.217 74.0501ZM841.812 59.4251L842.164 60.361L842.176 60.3563L841.812 59.4251ZM903.237 60.4001L902.835 61.316L902.843 61.3193L902.85 61.3225L903.237 60.4001ZM927.417 78.3401L928.095 79.0749L928.788 78.4354L928.19 77.7062L927.417 78.3401ZM907.137 97.0601L906.385 97.7199L907.062 98.4903L907.815 97.7949L907.137 97.0601ZM891.537 85.1651L891.106 86.0676L891.114 86.0716L891.123 86.0755L891.537 85.1651ZM841.422 93.1601L842.129 93.8672L842.129 93.8672L841.422 93.1601ZM832.257 107.005L831.333 106.622L831.329 106.632L831.325 106.642L832.257 107.005ZM832.257 142.495L831.325 142.859L831.329 142.868L831.333 142.878L832.257 142.495ZM841.422 156.34L840.715 157.047L840.715 157.047L841.422 156.34ZM891.537 164.53L891.95 165.44L891.959 165.437L891.967 165.433L891.537 164.53ZM907.137 152.245L907.815 151.51L907.053 150.807L906.377 151.594L907.137 152.245ZM927.417 170.965L928.19 171.599L928.788 170.87L928.095 170.23L927.417 170.965ZM903.237 189.1L902.84 188.182L902.835 188.184L903.237 189.1ZM871.062 194.34C860.64 194.34 850.944 192.668 841.965 189.333L841.268 191.208C850.489 194.632 860.423 196.34 871.062 196.34L871.062 194.34ZM841.981 189.339C833.127 185.874 825.44 181.004 818.909 174.729L817.524 176.171C824.253 182.636 832.166 187.646 841.252 191.201L841.981 189.339ZM818.909 174.729C812.376 168.451 807.251 161.085 803.532 152.623L801.701 153.427C805.523 162.125 810.798 169.709 817.524 176.171L818.909 174.729ZM803.537 152.635C799.955 144.19 798.157 134.9 798.157 124.75L796.157 124.75C796.157 135.141 797.999 144.7 801.696 153.416L803.537 152.635ZM798.157 124.75C798.157 114.601 799.955 105.31 803.537 96.8657L801.696 96.0846C797.999 104.8 796.157 114.36 796.157 124.75L798.157 124.75ZM803.532 96.8774C807.251 88.4148 812.376 81.0488 818.909 74.7712L817.524 73.329C810.798 79.7915 805.523 87.3754 801.701 96.0728L803.532 96.8774ZM818.902 74.7779C825.563 68.5015 833.314 63.6958 842.164 60.3609L841.459 58.4893C832.369 61.9144 824.39 66.8587 817.531 73.3223L818.902 74.7779ZM842.176 60.3563C851.018 56.8964 860.708 55.1601 871.257 55.1601L871.257 53.1601C860.485 53.1601 850.545 54.9338 841.447 58.4939L842.176 60.3563ZM871.257 55.1601C882.968 55.1601 893.488 57.2188 902.835 61.316L903.638 59.4842C894.005 55.2614 883.205 53.1601 871.257 53.1601L871.257 55.1601ZM902.85 61.3225C912.322 65.2905 920.249 71.1726 926.643 78.974L928.19 77.7062C921.585 69.6476 913.391 63.5697 903.623 59.4778L902.85 61.3225ZM926.738 77.6053L906.458 96.3253L907.815 97.7949L928.095 79.0749L926.738 77.6053ZM907.888 96.4003C903.127 90.9775 897.815 86.9205 891.95 84.2547L891.123 86.0755C896.698 88.6097 901.787 92.4827 906.385 97.7199L907.888 96.4003ZM891.967 84.2626C886.104 81.4642 879.716 80.0701 872.817 80.0701L872.817 82.0701C879.438 82.0701 885.529 83.406 891.106 86.0676L891.967 84.2626ZM872.817 80.0701C866.336 80.0701 860.361 81.1285 854.903 83.2585L855.63 85.1217C860.832 83.0918 866.557 82.0701 872.817 82.0701L872.817 80.0701ZM854.903 83.2585C849.449 85.3869 844.716 88.4516 840.715 92.453L842.129 93.8672C845.927 90.0687 850.424 87.1533 855.63 85.1217L854.903 83.2585ZM840.715 92.453C836.717 96.45 833.591 101.177 831.333 106.622L833.18 107.388C835.342 102.174 838.326 97.6702 842.129 93.8672L840.715 92.453ZM831.325 106.642C829.194 112.102 828.137 118.143 828.137 124.75L830.137 124.75C830.137 118.358 831.159 112.568 833.188 107.369L831.325 106.642ZM828.137 124.75C828.137 131.358 829.194 137.398 831.325 142.859L833.188 142.132C831.159 136.932 830.137 131.143 830.137 124.75L828.137 124.75ZM831.333 142.878C833.591 148.324 836.717 153.05 840.715 157.047L842.129 155.633C838.326 151.83 835.342 147.327 833.18 142.112L831.333 142.878ZM840.715 157.047C844.716 161.049 849.449 164.113 854.903 166.242L855.63 164.379C850.424 162.347 845.927 159.432 842.129 155.633L840.715 157.047ZM854.903 166.242C860.361 168.372 866.336 169.43 872.817 169.43L872.817 167.43C866.557 167.43 860.832 166.408 855.63 164.379L854.903 166.242ZM872.817 169.43C879.708 169.43 886.091 168.104 891.95 165.44L891.123 163.62C885.542 166.156 879.445 167.43 872.817 167.43L872.817 169.43ZM891.967 165.433C897.829 162.635 903.137 158.448 907.896 152.896L906.377 151.594C901.776 156.963 896.684 160.965 891.106 163.628L891.967 165.433ZM906.458 152.98L926.738 171.7L928.095 170.23L907.815 151.51L906.458 152.98ZM926.643 170.331C920.247 178.135 912.317 184.084 902.84 188.182L903.634 190.018C913.397 185.796 921.587 179.655 928.19 171.599L926.643 170.331ZM902.835 188.184C893.49 192.281 882.905 194.34 871.062 194.34L871.062 196.34C883.139 196.34 894.003 194.239 903.638 190.016L902.835 188.184ZM979.591 193L978.591 193L978.591 194L979.591 194L979.591 193ZM979.591 82.2401L980.591 82.2401L980.591 81.2401L979.591 81.2401L979.591 82.2401ZM935.911 82.2401L934.911 82.2401L934.911 83.2401L935.911 83.2401L935.911 82.2401ZM935.911 56.5001L935.911 55.5001L934.911 55.5001L934.911 56.5001L935.911 56.5001ZM1054.86 56.5001L1055.86 56.5001L1055.86 55.5001L1054.86 55.5001L1054.86 56.5001ZM1054.86 82.2401L1054.86 83.2401L1055.86 83.2401L1055.86 82.2401L1054.86 82.2401ZM1011.18 82.2401L1011.18 81.2401L1010.18 81.2401L1010.18 82.2401L1011.18 82.2401ZM1011.18 193L1011.18 194L1012.18 194L1012.18 193L1011.18 193ZM980.591 193L980.591 82.2401L978.591 82.2401L978.591 193L980.591 193ZM979.591 81.2401L935.911 81.2401L935.911 83.2401L979.591 83.2401L979.591 81.2401ZM936.911 82.2401L936.911 56.5001L934.911 56.5001L934.911 82.2401L936.911 82.2401ZM935.911 57.5001L1054.86 57.5001L1054.86 55.5001L935.911 55.5001L935.911 57.5001ZM1053.86 56.5001L1053.86 82.2401L1055.86 82.2401L1055.86 56.5001L1053.86 56.5001ZM1054.86 81.2401L1011.18 81.2401L1011.18 83.2401L1054.86 83.2401L1054.86 81.2401ZM1010.18 82.2401L1010.18 193L1012.18 193L1012.18 82.2401L1010.18 82.2401ZM1011.18 192L979.591 192L979.591 194L1011.18 194L1011.18 192ZM1110.12 190.075L1109.76 191.008L1109.77 191.01L1110.12 190.075ZM1086.33 175.255L1085.64 175.976L1085.65 175.983L1086.33 175.255ZM1070.73 152.83L1069.81 153.221L1069.82 153.232L1070.73 152.83ZM1070.73 96.6701L1069.82 96.2678L1069.81 96.2796L1070.73 96.6701ZM1110.32 59.4251L1109.96 58.4921L1109.96 58.4921L1110.32 59.4251ZM1169.6 59.4251L1169.23 60.3564L1169.24 60.3581L1169.6 59.4251ZM1193.19 74.2451L1192.5 74.9662L1192.51 74.9729L1193.19 74.2451ZM1208.99 96.6701L1208.07 97.0724L1208.08 97.0776L1208.99 96.6701ZM1208.99 153.025L1209.9 153.427L1209.91 153.422L1208.99 153.025ZM1193.19 175.45L1193.88 176.178L1193.88 176.178L1193.19 175.45ZM1169.6 190.075L1169.24 189.142L1169.23 189.144L1169.6 190.075ZM1156.73 165.31L1156.36 164.382L1156.35 164.385L1156.73 165.31ZM1170.38 156.34L1169.67 155.633L1169.67 155.633L1170.38 156.34ZM1179.35 142.495L1178.43 142.112L1178.42 142.122L1178.42 142.132L1179.35 142.495ZM1179.35 107.005L1178.42 107.369L1178.42 107.378L1178.43 107.388L1179.35 107.005ZM1170.38 93.1601L1169.66 93.8551L1169.67 93.8612L1169.67 93.8672L1170.38 93.1601ZM1156.92 84.1901L1156.55 85.1186L1156.55 85.1186L1156.92 84.1901ZM1122.99 84.1901L1122.62 83.2616L1122.61 83.2649L1122.99 84.1901ZM1109.54 93.1601L1110.25 93.8672L1110.25 93.8672L1109.54 93.1601ZM1100.37 107.005L1099.45 106.622L1099.45 106.632L1099.44 106.642L1100.37 107.005ZM1100.37 142.495L1099.44 142.851L1099.44 142.865L1099.45 142.878L1100.37 142.495ZM1109.34 156.34L1108.62 157.035L1108.63 157.041L1108.64 157.047L1109.34 156.34ZM1122.99 165.31L1122.62 166.239L1122.62 166.239L1122.99 165.31ZM1140.15 194.34C1129.47 194.34 1119.59 192.603 1110.48 189.14L1109.77 191.01C1119.12 194.567 1129.25 196.34 1140.15 196.34L1140.15 194.34ZM1110.48 189.142C1101.5 185.676 1093.68 180.804 1087.02 174.527L1085.65 175.983C1092.51 182.446 1100.55 187.454 1109.76 191.008L1110.48 189.142ZM1087.03 174.534C1080.49 168.256 1075.37 160.89 1071.65 152.428L1069.82 153.232C1073.64 161.93 1078.91 169.514 1085.64 175.976L1087.03 174.534ZM1071.65 152.44C1068.07 143.994 1066.27 134.768 1066.27 124.75L1064.27 124.75C1064.27 135.012 1066.12 144.507 1069.81 153.221L1071.65 152.44ZM1066.27 124.75C1066.27 114.732 1068.07 105.507 1071.65 97.0607L1069.81 96.2796C1066.12 104.994 1064.27 114.488 1064.27 124.75L1066.27 124.75ZM1071.65 97.0724C1075.37 88.6141 1080.55 81.2501 1087.21 74.9729L1085.84 73.5173C1078.98 79.9802 1073.64 87.5662 1069.82 96.2678L1071.65 97.0724ZM1087.21 74.9729C1093.88 68.6962 1101.69 63.8238 1110.68 60.3581L1109.96 58.4921C1100.74 62.0464 1092.7 67.054 1085.84 73.5173L1087.21 74.9729ZM1110.68 60.3581C1119.65 56.8963 1129.41 55.1601 1139.96 55.1601L1139.96 53.1601C1129.19 53.1601 1119.18 54.9339 1109.96 58.4921L1110.68 60.3581ZM1139.96 55.1601C1150.64 55.1601 1160.39 56.8969 1169.23 60.3563L1169.96 58.4939C1160.86 54.9333 1150.86 53.1601 1139.96 53.1601L1139.96 55.1601ZM1169.24 60.3581C1178.22 63.8232 1185.97 68.6938 1192.5 74.9662L1193.89 73.524C1187.16 67.0564 1179.18 62.047 1169.96 58.4921L1169.24 60.3581ZM1192.51 74.9729C1199.17 81.2501 1204.36 88.6141 1208.07 97.0724L1209.9 96.2678C1206.08 87.5662 1200.74 79.9802 1193.88 73.5173L1192.51 74.9729ZM1208.08 97.0776C1211.78 105.386 1213.64 114.605 1213.64 124.75L1215.64 124.75C1215.64 114.355 1213.74 104.854 1209.9 96.2627L1208.08 97.0776ZM1213.64 124.75C1213.64 134.763 1211.78 144.052 1208.07 152.628L1209.91 153.422C1213.73 144.579 1215.64 135.017 1215.64 124.75L1213.64 124.75ZM1208.07 152.623C1204.36 161.081 1199.17 168.445 1192.51 174.722L1193.88 176.178C1200.74 169.715 1206.08 162.129 1209.9 153.427L1208.07 152.623ZM1192.51 174.722C1185.98 180.867 1178.23 185.675 1169.24 189.142L1169.96 191.008C1179.17 187.455 1187.15 182.513 1193.88 176.178L1192.51 174.722ZM1169.23 189.144C1160.39 192.604 1150.7 194.34 1140.15 194.34L1140.15 196.34C1150.93 196.34 1160.87 194.566 1169.96 191.006L1169.23 189.144ZM1139.96 169.43C1146.18 169.43 1151.9 168.37 1157.11 166.235L1156.35 164.385C1151.41 166.41 1145.95 167.43 1139.96 167.43L1139.96 169.43ZM1157.1 166.239C1162.42 164.109 1167.09 161.044 1171.09 157.047L1169.67 155.633C1165.87 159.436 1161.43 162.351 1156.36 164.382L1157.1 166.239ZM1171.09 157.047C1175.09 153.046 1178.15 148.313 1180.28 142.859L1178.42 142.132C1176.39 147.338 1173.47 151.834 1169.67 155.633L1171.09 157.047ZM1180.27 142.878C1182.54 137.412 1183.66 131.365 1183.66 124.75L1181.66 124.75C1181.66 131.135 1180.58 136.918 1178.43 142.112L1180.27 142.878ZM1183.66 124.75C1183.66 118.135 1182.54 112.088 1180.27 106.622L1178.43 107.388C1180.58 112.582 1181.66 118.365 1181.66 124.75L1183.66 124.75ZM1180.28 106.642C1178.15 101.188 1175.09 96.4544 1171.09 92.453L1169.67 93.8672C1173.47 97.6658 1176.39 102.163 1178.42 107.369L1180.28 106.642ZM1171.1 92.4651C1167.23 88.4603 1162.62 85.3923 1157.3 83.2616L1156.55 85.1186C1161.63 87.1479 1165.99 90.0599 1169.66 93.8551L1171.1 92.4651ZM1157.3 83.2616C1151.97 81.1303 1146.18 80.0701 1139.96 80.0701L1139.96 82.0701C1145.95 82.0701 1151.48 83.09 1156.55 85.1186L1157.3 83.2616ZM1139.96 80.0701C1133.73 80.0701 1127.95 81.1303 1122.62 83.2616L1123.37 85.1186C1128.44 83.09 1133.96 82.0701 1139.96 82.0701L1139.96 80.0701ZM1122.61 83.2649C1117.42 85.3955 1112.82 88.46 1108.83 92.453L1110.25 93.8672C1114.05 90.0603 1118.43 87.1447 1123.37 85.1153L1122.61 83.2649ZM1108.83 92.453C1104.83 96.45 1101.71 101.177 1099.45 106.622L1101.3 107.388C1103.46 102.174 1106.44 97.6702 1110.25 93.8672L1108.83 92.453ZM1099.44 106.642C1097.31 112.102 1096.25 118.143 1096.25 124.75L1098.25 124.75C1098.25 118.358 1099.28 112.568 1101.31 107.369L1099.44 106.642ZM1096.25 124.75C1096.25 131.231 1097.31 137.268 1099.44 142.851L1101.31 142.139C1099.28 136.803 1098.25 131.009 1098.25 124.75L1096.25 124.75ZM1099.45 142.878C1101.71 148.317 1104.76 153.039 1108.62 157.035L1110.06 155.645C1106.39 151.841 1103.46 147.334 1101.3 142.112L1099.45 142.878ZM1108.64 157.047C1112.63 161.044 1117.3 164.109 1122.62 166.239L1123.37 164.382C1118.29 162.351 1113.85 159.436 1110.05 155.633L1108.64 157.047ZM1122.62 166.239C1127.95 168.37 1133.73 169.43 1139.96 169.43L1139.96 167.43C1133.96 167.43 1128.44 166.41 1123.37 164.382L1122.62 166.239Z" fill="#707070"/>
<path d="M110.31 177.34C99.7797 177.34 89.9647 175.65 80.8647 172.27C71.8947 168.76 64.0947 163.82 57.4647 157.45C50.8347 151.08 45.6347 143.605 41.8647 135.025C38.2247 126.445 36.4047 117.02 36.4047 106.75C36.4047 96.4801 38.2247 87.0551 41.8647 78.4751C45.6347 69.8951 50.8347 62.4201 57.4647 56.0501C64.2247 49.6801 72.0897 44.8051 81.0597 41.4251C90.0297 37.9151 99.8447 36.1601 110.505 36.1601C122.335 36.1601 132.995 38.2401 142.485 42.4001C152.105 46.4301 160.165 52.4101 166.665 60.3401L146.385 79.0601C141.705 73.7301 136.505 69.7651 130.785 67.1651C125.065 64.4351 118.825 63.0701 112.065 63.0701C105.695 63.0701 99.8447 64.1101 94.5147 66.1901C89.1847 68.2701 84.5697 71.2601 80.6697 75.1601C76.7697 79.0601 73.7147 83.6751 71.5047 89.0051C69.4247 94.3351 68.3847 100.25 68.3847 106.75C68.3847 113.25 69.4247 119.165 71.5047 124.495C73.7147 129.825 76.7697 134.44 80.6697 138.34C84.5697 142.24 89.1847 145.23 94.5147 147.31C99.8447 149.39 105.695 150.43 112.065 150.43C118.825 150.43 125.065 149.13 130.785 146.53C136.505 143.8 141.705 139.705 146.385 134.245L166.665 152.965C160.165 160.895 152.105 166.94 142.485 171.1C132.995 175.26 122.27 177.34 110.31 177.34ZM255.341 177.34C244.551 177.34 234.541 175.585 225.311 172.075C216.211 168.565 208.281 163.625 201.521 157.255C194.891 150.885 189.691 143.41 185.921 134.83C182.281 126.25 180.461 116.89 180.461 106.75C180.461 96.6101 182.281 87.2501 185.921 78.6701C189.691 70.0901 194.956 62.6151 201.716 56.2451C208.476 49.8751 216.406 44.9351 225.506 41.4251C234.606 37.9151 244.486 36.1601 255.146 36.1601C265.936 36.1601 275.816 37.9151 284.786 41.4251C293.886 44.9351 301.751 49.8751 308.381 56.2451C315.141 62.6151 320.406 70.0901 324.176 78.6701C327.946 87.1201 329.831 96.4801 329.831 106.75C329.831 116.89 327.946 126.315 324.176 135.025C320.406 143.605 315.141 151.08 308.381 157.45C301.751 163.69 293.886 168.565 284.786 172.075C275.816 175.585 266.001 177.34 255.341 177.34ZM255.146 150.43C261.256 150.43 266.846 149.39 271.916 147.31C277.116 145.23 281.666 142.24 285.566 138.34C289.466 134.44 292.456 129.825 294.536 124.495C296.746 119.165 297.851 113.25 297.851 106.75C297.851 100.25 296.746 94.3351 294.536 89.0051C292.456 83.6751 289.466 79.0601 285.566 75.1601C281.796 71.2601 277.311 68.2701 272.111 66.1901C266.911 64.1101 261.256 63.0701 255.146 63.0701C249.036 63.0701 243.381 64.1101 238.181 66.1901C233.111 68.2701 228.626 71.2601 224.726 75.1601C220.826 79.0601 217.771 83.6751 215.561 89.0051C213.481 94.3351 212.441 100.25 212.441 106.75C212.441 113.12 213.481 119.035 215.561 124.495C217.771 129.825 220.761 134.44 224.531 138.34C228.431 142.24 232.981 145.23 238.181 147.31C243.381 149.39 249.036 150.43 255.146 150.43ZM357.472 175L357.472 38.5001L383.602 38.5001L464.137 136.78L451.462 136.78L451.462 38.5001L482.662 38.5001L482.662 175L456.727 175L375.997 76.7201L388.672 76.7201L388.672 175L357.472 175ZM547.133 175L547.133 64.2401L503.453 64.2401L503.453 38.5001L622.403 38.5001L622.403 64.2401L578.723 64.2401L578.723 175L547.133 175ZM618.504 175L679.344 38.5001L710.544 38.5001L771.579 175L738.429 175L688.509 54.4901L700.989 54.4901L650.874 175L618.504 175ZM648.924 145.75L657.309 121.765L727.509 121.765L736.089 145.75L648.924 145.75ZM853.062 177.34C842.532 177.34 832.717 175.65 823.617 172.27C814.647 168.76 806.847 163.82 800.217 157.45C793.587 151.08 788.387 143.605 784.617 135.025C780.977 126.445 779.157 117.02 779.157 106.75C779.157 96.4801 780.977 87.0551 784.617 78.4751C788.387 69.8951 793.587 62.4201 800.217 56.0501C806.977 49.6801 814.842 44.8051 823.812 41.4251C832.782 37.9151 842.597 36.1601 853.257 36.1601C865.087 36.1601 875.747 38.2401 885.237 42.4001C894.857 46.4301 902.917 52.4101 909.417 60.3401L889.137 79.0601C884.457 73.7301 879.257 69.7651 873.537 67.1651C867.817 64.4351 861.577 63.0701 854.817 63.0701C848.447 63.0701 842.597 64.1101 837.267 66.1901C831.937 68.2701 827.322 71.2601 823.422 75.1601C819.522 79.0601 816.467 83.6751 814.257 89.0051C812.177 94.3351 811.137 100.25 811.137 106.75C811.137 113.25 812.177 119.165 814.257 124.495C816.467 129.825 819.522 134.44 823.422 138.34C827.322 142.24 831.937 145.23 837.267 147.31C842.597 149.39 848.447 150.43 854.817 150.43C861.577 150.43 867.817 149.13 873.537 146.53C879.257 143.8 884.457 139.705 889.137 134.245L909.417 152.965C902.917 160.895 894.857 166.94 885.237 171.1C875.747 175.26 865.022 177.34 853.062 177.34ZM961.591 175L961.591 64.2401L917.911 64.2401L917.911 38.5001L1036.86 38.5001L1036.86 64.2401L993.181 64.2401L993.181 175L961.591 175ZM1122.15 177.34C1111.36 177.34 1101.35 175.585 1092.12 172.075C1083.02 168.565 1075.09 163.625 1068.33 157.255C1061.7 150.885 1056.5 143.41 1052.73 134.83C1049.09 126.25 1047.27 116.89 1047.27 106.75C1047.27 96.6101 1049.09 87.2501 1052.73 78.6701C1056.5 70.0901 1061.77 62.6151 1068.53 56.2451C1075.29 49.8751 1083.22 44.9351 1092.32 41.4251C1101.42 37.9151 1111.3 36.1601 1121.96 36.1601C1132.75 36.1601 1142.63 37.9151 1151.6 41.4251C1160.7 44.9351 1168.56 49.8751 1175.19 56.2451C1181.95 62.6151 1187.22 70.0901 1190.99 78.6701C1194.76 87.1201 1196.64 96.4801 1196.64 106.75C1196.64 116.89 1194.76 126.315 1190.99 135.025C1187.22 143.605 1181.95 151.08 1175.19 157.45C1168.56 163.69 1160.7 168.565 1151.6 172.075C1142.63 175.585 1132.81 177.34 1122.15 177.34ZM1121.96 150.43C1128.07 150.43 1133.66 149.39 1138.73 147.31C1143.93 145.23 1148.48 142.24 1152.38 138.34C1156.28 134.44 1159.27 129.825 1161.35 124.495C1163.56 119.165 1164.66 113.25 1164.66 106.75C1164.66 100.25 1163.56 94.3351 1161.35 89.0051C1159.27 83.6751 1156.28 79.0601 1152.38 75.1601C1148.61 71.2601 1144.12 68.2701 1138.92 66.1901C1133.72 64.1101 1128.07 63.0701 1121.96 63.0701C1115.85 63.0701 1110.19 64.1101 1104.99 66.1901C1099.92 68.2701 1095.44 71.2601 1091.54 75.1601C1087.64 79.0601 1084.58 83.6751 1082.37 89.0051C1080.29 94.3351 1079.25 100.25 1079.25 106.75C1079.25 113.12 1080.29 119.035 1082.37 124.495C1084.58 129.825 1087.57 134.44 1091.34 138.34C1095.24 142.24 1099.79 145.23 1104.99 147.31C1110.19 149.39 1115.85 150.43 1121.96 150.43Z" fill="#B473FF"/>
<path d="M80.8647 172.27L80.5003 173.201L80.5084 173.205L80.5165 173.208L80.8647 172.27ZM57.4647 157.45L56.7719 158.171L56.7719 158.171L57.4647 157.45ZM41.8647 135.025L40.944 135.416L40.9492 135.427L41.8647 135.025ZM41.8647 78.4751L40.9491 78.0728L40.9441 78.0846L41.8647 78.4751ZM57.4647 56.0501L56.7788 55.3223L56.7719 55.329L57.4647 56.0501ZM81.0597 41.4251L81.4123 42.361L81.4241 42.3564L81.0597 41.4251ZM142.485 42.4001L142.083 43.316L142.091 43.3193L142.098 43.3225L142.485 42.4001ZM166.665 60.3401L167.343 61.0749L168.036 60.4354L167.438 59.7062L166.665 60.3401ZM146.385 79.0601L145.633 79.7199L146.31 80.4903L147.063 79.7949L146.385 79.0601ZM130.785 67.1651L130.354 68.0676L130.362 68.0716L130.371 68.0755L130.785 67.1651ZM80.6697 75.1601L81.3768 75.8672L81.3768 75.8672L80.6697 75.1601ZM71.5047 89.0051L70.5809 88.6221L70.5769 88.6318L70.5731 88.6416L71.5047 89.0051ZM71.5047 124.495L70.5731 124.859L70.5769 124.868L70.5809 124.878L71.5047 124.495ZM80.6697 138.34L79.9626 139.047L79.9626 139.047L80.6697 138.34ZM130.785 146.53L131.198 147.44L131.207 147.437L131.215 147.433L130.785 146.53ZM146.385 134.245L147.063 133.51L146.301 132.807L145.625 133.594L146.385 134.245ZM166.665 152.965L167.438 153.599L168.036 152.87L167.343 152.23L166.665 152.965ZM142.485 171.1L142.088 170.182L142.083 170.184L142.485 171.1ZM110.31 176.34C99.8884 176.34 90.1924 174.668 81.2129 171.333L80.5165 173.208C89.737 176.632 99.6709 178.34 110.31 178.34L110.31 176.34ZM81.2291 171.339C72.3754 167.874 64.6884 163.004 58.1575 156.729L56.7719 158.171C63.501 164.636 71.414 169.646 80.5003 173.201L81.2291 171.339ZM58.1575 156.729C51.6237 150.451 46.4986 143.085 42.7802 134.623L40.9492 135.427C44.7708 144.125 50.0456 151.709 56.7719 158.171L58.1575 156.729ZM42.7853 134.635C39.2028 126.19 37.4047 116.9 37.4047 106.75L35.4047 106.75C35.4047 117.141 37.2466 126.7 40.9441 135.416L42.7853 134.635ZM37.4047 106.75C37.4047 96.6006 39.2028 87.3101 42.7853 78.8657L40.9441 78.0846C37.2466 86.8002 35.4047 96.3597 35.4047 106.75L37.4047 106.75ZM42.7802 78.8774C46.4986 70.4148 51.6237 63.0488 58.1575 56.7712L56.7719 55.329C50.0456 61.7915 44.7708 69.3754 40.9492 78.0728L42.7802 78.8774ZM58.1505 56.7779C64.8112 50.5015 72.562 45.6958 81.4123 42.3609L80.7071 40.4893C71.6174 43.9144 63.6382 48.8587 56.7789 55.3223L58.1505 56.7779ZM81.4241 42.3564C90.2662 38.8964 99.9561 37.1601 110.505 37.1601L110.505 35.1601C99.7333 35.1601 89.7932 36.9338 80.6953 40.4939L81.4241 42.3564ZM110.505 37.1601C122.216 37.1601 132.737 39.2188 142.083 43.316L142.886 41.4843C133.253 37.2614 122.453 35.1601 110.505 35.1601L110.505 37.1601ZM142.098 43.3225C151.57 47.2905 159.497 53.1726 165.891 60.974L167.438 59.7062C160.833 51.6476 152.639 45.5697 142.871 41.4778L142.098 43.3225ZM165.986 59.6053L145.706 78.3253L147.063 79.7949L167.343 61.0749L165.986 59.6053ZM147.136 78.4003C142.375 72.9776 137.063 68.9205 131.198 66.2547L130.371 68.0755C135.946 70.6097 141.035 74.4827 145.633 79.7199L147.136 78.4003ZM131.215 66.2626C125.352 63.4642 118.964 62.0701 112.065 62.0701L112.065 64.0701C118.686 64.0701 124.777 65.406 130.354 68.0676L131.215 66.2626ZM112.065 62.0701C105.584 62.0701 99.6094 63.1285 94.1511 65.2585L94.8782 67.1217C100.08 65.0918 105.805 64.0701 112.065 64.0701L112.065 62.0701ZM94.1511 65.2585C88.6973 67.3869 83.964 70.4516 79.9626 74.453L81.3768 75.8672C85.1754 72.0687 89.6721 69.1533 94.8782 67.1217L94.1511 65.2585ZM79.9626 74.453C75.9655 78.45 72.8388 83.1766 70.5809 88.6221L72.4284 89.3881C74.5905 84.1736 77.5738 79.6702 81.3768 75.8672L79.9626 74.453ZM70.5731 88.6416C68.4422 94.1021 67.3847 100.143 67.3847 106.75L69.3847 106.75C69.3847 100.358 70.4072 94.5681 72.4363 89.3687L70.5731 88.6416ZM67.3847 106.75C67.3847 113.358 68.4422 119.398 70.5731 124.859L72.4363 124.132C70.4072 118.932 69.3847 113.143 69.3847 106.75L67.3847 106.75ZM70.5809 124.878C72.8388 130.324 75.9655 135.05 79.9626 139.047L81.3768 137.633C77.5738 133.83 74.5905 129.327 72.4284 124.112L70.5809 124.878ZM79.9626 139.047C83.964 143.049 88.6973 146.113 94.1511 148.242L94.8782 146.379C89.6721 144.347 85.1754 141.432 81.3768 137.633L79.9626 139.047ZM94.1511 148.242C99.6094 150.372 105.584 151.43 112.065 151.43L112.065 149.43C105.805 149.43 100.08 148.408 94.8782 146.379L94.1511 148.242ZM112.065 151.43C118.956 151.43 125.339 150.104 131.198 147.44L130.371 145.62C124.79 148.156 118.693 149.43 112.065 149.43L112.065 151.43ZM131.215 147.433C137.077 144.635 142.385 140.448 147.144 134.896L145.625 133.594C141.024 138.963 135.932 142.965 130.354 145.628L131.215 147.433ZM145.706 134.98L165.986 153.7L167.343 152.23L147.063 133.51L145.706 134.98ZM165.891 152.331C159.495 160.135 151.565 166.084 142.088 170.182L142.882 172.018C152.645 167.796 160.835 161.655 167.438 153.599L165.891 152.331ZM142.083 170.184C132.738 174.281 122.153 176.34 110.31 176.34L110.31 178.34C122.387 178.34 133.252 176.239 142.886 172.016L142.083 170.184ZM225.311 172.075L224.951 173.008L224.955 173.01L225.311 172.075ZM201.521 157.255L200.828 157.976L200.835 157.983L201.521 157.255ZM185.921 134.83L185 135.221L185.005 135.232L185.921 134.83ZM185.921 78.6701L185.005 78.2678L185 78.2796L185.921 78.6701ZM225.506 41.4251L225.146 40.4921L225.146 40.4921L225.506 41.4251ZM284.786 41.4251L284.422 42.3564L284.426 42.3581L284.786 41.4251ZM308.381 56.2451L307.688 56.9663L307.695 56.9729L308.381 56.2451ZM324.176 78.6701L323.26 79.0724L323.263 79.0776L324.176 78.6701ZM324.176 135.025L325.091 135.427L325.094 135.422L324.176 135.025ZM308.381 157.45L309.066 158.178L309.067 158.178L308.381 157.45ZM284.786 172.075L284.426 171.142L284.422 171.144L284.786 172.075ZM271.916 147.31L271.545 146.382L271.536 146.385L271.916 147.31ZM285.566 138.34L284.859 137.633L284.859 137.633L285.566 138.34ZM294.536 124.495L293.612 124.112L293.608 124.122L293.604 124.132L294.536 124.495ZM294.536 89.0051L293.604 89.3687L293.608 89.3784L293.612 89.3881L294.536 89.0051ZM285.566 75.1601L284.847 75.8551L284.853 75.8612L284.859 75.8672L285.566 75.1601ZM272.111 66.1901L271.74 67.1186L271.74 67.1186L272.111 66.1901ZM238.181 66.1901L237.81 65.2616L237.801 65.2649L238.181 66.1901ZM224.726 75.1601L225.433 75.8672L225.433 75.8672L224.726 75.1601ZM215.561 89.0051L214.637 88.6221L214.633 88.6318L214.629 88.6416L215.561 89.0051ZM215.561 124.495L214.626 124.851L214.632 124.865L214.637 124.878L215.561 124.495ZM224.531 138.34L223.812 139.035L223.818 139.041L223.824 139.047L224.531 138.34ZM238.181 147.31L237.81 148.239L237.81 148.239L238.181 147.31ZM255.341 176.34C244.661 176.34 234.773 174.603 225.666 171.14L224.955 173.01C234.309 176.567 244.441 178.34 255.341 178.34L255.341 176.34ZM225.671 171.142C216.686 167.676 208.868 162.804 202.207 156.527L200.835 157.983C207.694 164.446 215.736 169.454 224.951 173.008L225.671 171.142ZM202.214 156.534C195.68 150.256 190.555 142.89 186.836 134.428L185.005 135.232C188.827 143.93 194.102 151.514 200.828 157.976L202.214 156.534ZM186.842 134.44C183.258 125.994 181.461 116.768 181.461 106.75L179.461 106.75C179.461 117.012 181.303 126.507 185 135.221L186.842 134.44ZM181.461 106.75C181.461 96.7324 183.258 87.5066 186.842 79.0607L185 78.2796C181.303 86.9936 179.461 96.4878 179.461 106.75L181.461 106.75ZM186.836 79.0724C190.553 70.6141 195.74 63.2501 202.402 56.9729L201.03 55.5173C194.172 61.9802 188.829 69.5662 185.005 78.2678L186.836 79.0724ZM202.402 56.9729C209.063 50.6962 216.881 45.8238 225.866 42.3581L225.146 40.4921C215.931 44.0464 207.889 49.054 201.03 55.5173L202.402 56.9729ZM225.866 42.3581C234.841 38.8963 244.598 37.1601 255.146 37.1601L255.146 35.1601C244.374 35.1601 234.371 36.9339 225.146 40.4921L225.866 42.3581ZM255.146 37.1601C265.826 37.1601 275.581 38.8969 284.422 42.3564L285.15 40.4939C276.051 36.9333 266.046 35.1601 255.146 35.1601L255.146 37.1601ZM284.426 42.3581C293.41 45.8232 301.16 50.6938 307.688 56.9662L309.074 55.524C302.342 49.0564 294.362 44.047 285.146 40.4921L284.426 42.3581ZM307.695 56.9729C314.357 63.2501 319.544 70.6141 323.26 79.0724L325.091 78.2678C321.268 69.5662 315.925 61.9802 309.067 55.5173L307.695 56.9729ZM323.263 79.0776C326.969 87.3859 328.831 96.605 328.831 106.75L330.831 106.75C330.831 96.3552 328.922 86.8543 325.089 78.2627L323.263 79.0776ZM328.831 106.75C328.831 116.763 326.97 126.052 323.258 134.628L325.094 135.422C328.922 126.579 330.831 117.017 330.831 106.75L328.831 106.75ZM323.26 134.623C319.544 143.081 314.357 150.445 307.695 156.722L309.067 158.178C315.925 151.715 321.268 144.129 325.091 135.427L323.26 134.623ZM307.696 156.722C301.166 162.867 293.414 167.675 284.426 171.142L285.146 173.008C294.358 169.455 302.336 164.513 309.066 158.178L307.696 156.722ZM284.422 171.144C275.579 174.604 265.89 176.34 255.341 176.34L255.341 178.34C266.112 178.34 276.052 176.566 285.15 173.006L284.422 171.144ZM255.146 151.43C261.371 151.43 267.092 150.37 272.295 148.235L271.536 146.385C266.6 148.41 261.141 149.43 255.146 149.43L255.146 151.43ZM272.287 148.239C277.611 146.109 282.276 143.044 286.273 139.047L284.859 137.633C281.056 141.436 276.621 144.351 271.545 146.382L272.287 148.239ZM286.273 139.047C290.274 135.046 293.339 130.313 295.468 124.859L293.604 124.132C291.573 129.338 288.657 133.834 284.859 137.633L286.273 139.047ZM295.46 124.878C297.726 119.412 298.851 113.365 298.851 106.75L296.851 106.75C296.851 113.135 295.766 118.918 293.612 124.112L295.46 124.878ZM298.851 106.75C298.851 100.135 297.726 94.088 295.46 88.6221L293.612 89.3881C295.766 94.5823 296.851 100.365 296.851 106.75L298.851 106.75ZM295.468 88.6416C293.339 83.1877 290.274 78.4544 286.273 74.453L284.859 75.8672C288.657 79.6658 291.573 84.1625 293.604 89.3687L295.468 88.6416ZM286.285 74.4651C282.414 70.4603 277.809 67.3923 272.482 65.2616L271.74 67.1186C276.813 69.1479 281.178 72.0599 284.847 75.8551L286.285 74.4651ZM272.482 65.2616C267.154 63.1303 261.372 62.0701 255.146 62.0701L255.146 64.0701C261.14 64.0701 266.668 65.09 271.74 67.1186L272.482 65.2616ZM255.146 62.0701C248.92 62.0701 243.138 63.1303 237.81 65.2616L238.552 67.1186C243.624 65.09 249.152 64.0701 255.146 64.0701L255.146 62.0701ZM237.801 65.2649C232.608 67.3956 228.012 70.46 224.019 74.453L225.433 75.8672C229.24 72.0603 233.614 69.1447 238.56 67.1153L237.801 65.2649ZM224.019 74.453C220.022 78.45 216.895 83.1766 214.637 88.6221L216.485 89.3881C218.647 84.1736 221.63 79.6702 225.433 75.8672L224.019 74.453ZM214.629 88.6416C212.498 94.1021 211.441 100.143 211.441 106.75L213.441 106.75C213.441 100.358 214.463 94.5681 216.493 89.3687L214.629 88.6416ZM211.441 106.75C211.441 113.231 212.499 119.268 214.626 124.851L216.495 124.139C214.462 118.803 213.441 113.009 213.441 106.75L211.441 106.75ZM214.637 124.878C216.892 130.317 219.949 135.039 223.812 139.035L225.25 137.645C221.573 133.841 218.65 129.334 216.485 124.112L214.637 124.878ZM223.824 139.047C227.821 143.044 232.486 146.109 237.81 148.239L238.552 146.382C233.476 144.351 229.041 141.436 225.238 137.633L223.824 139.047ZM237.81 148.239C243.138 150.37 248.92 151.43 255.146 151.43L255.146 149.43C249.152 149.43 243.624 148.41 238.552 146.382L237.81 148.239ZM357.472 175L356.472 175L356.472 176L357.472 176L357.472 175ZM357.472 38.5001L357.472 37.5001L356.472 37.5001L356.472 38.5001L357.472 38.5001ZM383.602 38.5001L384.376 37.8663L384.076 37.5001L383.602 37.5001L383.602 38.5001ZM464.137 136.78L464.137 137.78L466.249 137.78L464.911 136.146L464.137 136.78ZM451.462 136.78L450.462 136.78L450.462 137.78L451.462 137.78L451.462 136.78ZM451.462 38.5001L451.462 37.5001L450.462 37.5001L450.462 38.5001L451.462 38.5001ZM482.662 38.5001L483.662 38.5001L483.662 37.5001L482.662 37.5001L482.662 38.5001ZM482.662 175L482.662 176L483.662 176L483.662 175L482.662 175ZM456.727 175L455.954 175.635L456.254 176L456.727 176L456.727 175ZM375.997 76.7201L375.997 75.7201L373.882 75.7201L375.224 77.3549L375.997 76.7201ZM388.672 76.7201L389.672 76.7201L389.672 75.7201L388.672 75.7201L388.672 76.7201ZM388.672 175L388.672 176L389.672 176L389.672 175L388.672 175ZM358.472 175L358.472 38.5001L356.472 38.5001L356.472 175L358.472 175ZM357.472 39.5001L383.602 39.5001L383.602 37.5001L357.472 37.5001L357.472 39.5001ZM382.829 39.1339L463.364 137.414L464.911 136.146L384.376 37.8663L382.829 39.1339ZM464.137 135.78L451.462 135.78L451.462 137.78L464.137 137.78L464.137 135.78ZM452.462 136.78L452.462 38.5001L450.462 38.5001L450.462 136.78L452.462 136.78ZM451.462 39.5001L482.662 39.5001L482.662 37.5001L451.462 37.5001L451.462 39.5001ZM481.662 38.5001L481.662 175L483.662 175L483.662 38.5001L481.662 38.5001ZM482.662 174L456.727 174L456.727 176L482.662 176L482.662 174ZM457.5 174.365L376.77 76.0854L375.224 77.3549L455.954 175.635L457.5 174.365ZM375.997 77.7201L388.672 77.7201L388.672 75.7201L375.997 75.7201L375.997 77.7201ZM387.672 76.7201L387.672 175L389.672 175L389.672 76.7201L387.672 76.7201ZM388.672 174L357.472 174L357.472 176L388.672 176L388.672 174ZM547.133 175L546.133 175L546.133 176L547.133 176L547.133 175ZM547.133 64.2401L548.133 64.2401L548.133 63.2401L547.133 63.2401L547.133 64.2401ZM503.453 64.2401L502.453 64.2401L502.453 65.2401L503.453 65.2401L503.453 64.2401ZM503.453 38.5001L503.453 37.5001L502.453 37.5001L502.453 38.5001L503.453 38.5001ZM622.403 38.5001L623.403 38.5001L623.403 37.5001L622.403 37.5001L622.403 38.5001ZM622.403 64.2401L622.403 65.2401L623.403 65.2401L623.403 64.2401L622.403 64.2401ZM578.723 64.2401L578.723 63.2401L577.723 63.2401L577.723 64.2401L578.723 64.2401ZM578.723 175L578.723 176L579.723 176L579.723 175L578.723 175ZM548.133 175L548.133 64.2401L546.133 64.2401L546.133 175L548.133 175ZM547.133 63.2401L503.453 63.2401L503.453 65.2401L547.133 65.2401L547.133 63.2401ZM504.453 64.2401L504.453 38.5001L502.453 38.5001L502.453 64.2401L504.453 64.2401ZM503.453 39.5001L622.403 39.5001L622.403 37.5001L503.453 37.5001L503.453 39.5001ZM621.403 38.5001L621.403 64.2401L623.403 64.2401L623.403 38.5001L621.403 38.5001ZM622.403 63.2401L578.723 63.2401L578.723 65.2401L622.403 65.2401L622.403 63.2401ZM577.723 64.2401L577.723 175L579.723 175L579.723 64.2401L577.723 64.2401ZM578.723 174L547.133 174L547.133 176L578.723 176L578.723 174ZM618.504 175L617.591 174.593L616.963 176L618.504 176L618.504 175ZM679.344 38.5001L679.344 37.5001L678.695 37.5001L678.431 38.093L679.344 38.5001ZM710.544 38.5001L711.457 38.0919L711.192 37.5001L710.544 37.5001L710.544 38.5001ZM771.579 175L771.579 176L773.122 176L772.492 174.592L771.579 175ZM738.429 175L737.505 175.383L737.761 176L738.429 176L738.429 175ZM688.509 54.4901L688.509 53.4901L687.012 53.4901L687.585 54.8728L688.509 54.4901ZM700.989 54.4901L701.912 54.8741L702.488 53.4901L700.989 53.4901L700.989 54.4901ZM650.874 175L650.874 176L651.541 176L651.797 175.384L650.874 175ZM648.924 145.75L647.98 145.42L647.515 146.75L648.924 146.75L648.924 145.75ZM657.309 121.765L657.309 120.765L656.599 120.765L656.365 121.435L657.309 121.765ZM727.509 121.765L728.451 121.428L728.213 120.765L727.509 120.765L727.509 121.765ZM736.089 145.75L736.089 146.75L737.509 146.75L737.031 145.413L736.089 145.75ZM619.417 175.407L680.257 38.9072L678.431 38.093L617.591 174.593L619.417 175.407ZM679.344 39.5001L710.544 39.5001L710.544 37.5001L679.344 37.5001L679.344 39.5001ZM709.631 38.9083L770.666 175.408L772.492 174.592L711.457 38.0919L709.631 38.9083ZM771.579 174L738.429 174L738.429 176L771.579 176L771.579 174ZM739.353 174.617L689.433 54.1074L687.585 54.8728L737.505 175.383L739.353 174.617ZM688.509 55.4901L700.989 55.4901L700.989 53.4901L688.509 53.4901L688.509 55.4901ZM700.066 54.1061L649.951 174.616L651.797 175.384L701.912 54.8741L700.066 54.1061ZM650.874 174L618.504 174L618.504 176L650.874 176L650.874 174ZM649.868 146.08L658.253 122.095L656.365 121.435L647.98 145.42L649.868 146.08ZM657.309 122.765L727.509 122.765L727.509 120.765L657.309 120.765L657.309 122.765ZM726.567 122.102L735.147 146.087L737.031 145.413L728.451 121.428L726.567 122.102ZM736.089 144.75L648.924 144.75L648.924 146.75L736.089 146.75L736.089 144.75ZM823.617 172.27L823.252 173.201L823.26 173.205L823.268 173.208L823.617 172.27ZM800.217 157.45L799.524 158.171L799.524 158.171L800.217 157.45ZM784.617 135.025L783.696 135.416L783.701 135.427L784.617 135.025ZM784.617 78.4751L783.701 78.0728L783.696 78.0846L784.617 78.4751ZM800.217 56.0501L799.531 55.3223L799.524 55.329L800.217 56.0501ZM823.812 41.4251L824.164 42.361L824.176 42.3563L823.812 41.4251ZM885.237 42.4001L884.835 43.316L884.843 43.3193L884.85 43.3225L885.237 42.4001ZM909.417 60.3401L910.095 61.0749L910.788 60.4354L910.19 59.7062L909.417 60.3401ZM889.137 79.0601L888.385 79.7199L889.062 80.4903L889.815 79.7949L889.137 79.0601ZM873.537 67.1651L873.106 68.0676L873.114 68.0716L873.123 68.0755L873.537 67.1651ZM823.422 75.1601L824.129 75.8672L824.129 75.8672L823.422 75.1601ZM814.257 89.0051L813.333 88.6221L813.329 88.6318L813.325 88.6416L814.257 89.0051ZM814.257 124.495L813.325 124.859L813.329 124.868L813.333 124.878L814.257 124.495ZM823.422 138.34L822.715 139.047L822.715 139.047L823.422 138.34ZM873.537 146.53L873.95 147.44L873.959 147.437L873.967 147.433L873.537 146.53ZM889.137 134.245L889.815 133.51L889.053 132.807L888.377 133.594L889.137 134.245ZM909.417 152.965L910.19 153.599L910.788 152.87L910.095 152.23L909.417 152.965ZM885.237 171.1L884.84 170.182L884.835 170.184L885.237 171.1ZM853.062 176.34C842.64 176.34 832.944 174.668 823.965 171.333L823.268 173.208C832.489 176.632 842.423 178.34 853.062 178.34L853.062 176.34ZM823.981 171.339C815.127 167.874 807.44 163.004 800.909 156.729L799.524 158.171C806.253 164.636 814.166 169.646 823.252 173.201L823.981 171.339ZM800.909 156.729C794.376 150.451 789.251 143.085 785.532 134.623L783.701 135.427C787.523 144.125 792.798 151.709 799.524 158.171L800.909 156.729ZM785.537 134.635C781.955 126.19 780.157 116.9 780.157 106.75L778.157 106.75C778.157 117.141 779.999 126.7 783.696 135.416L785.537 134.635ZM780.157 106.75C780.157 96.6006 781.955 87.3101 785.537 78.8657L783.696 78.0846C779.999 86.8001 778.157 96.3597 778.157 106.75L780.157 106.75ZM785.532 78.8774C789.251 70.4148 794.376 63.0488 800.909 56.7712L799.524 55.329C792.798 61.7915 787.523 69.3754 783.701 78.0728L785.532 78.8774ZM800.902 56.7779C807.563 50.5015 815.314 45.6958 824.164 42.3609L823.459 40.4893C814.369 43.9144 806.39 48.8587 799.531 55.3223L800.902 56.7779ZM824.176 42.3563C833.018 38.8964 842.708 37.1601 853.257 37.1601L853.257 35.1601C842.485 35.1601 832.545 36.9338 823.447 40.4939L824.176 42.3563ZM853.257 37.1601C864.968 37.1601 875.488 39.2188 884.835 43.316L885.638 41.4842C876.005 37.2614 865.205 35.1601 853.257 35.1601L853.257 37.1601ZM884.85 43.3225C894.322 47.2905 902.249 53.1726 908.643 60.974L910.19 59.7062C903.585 51.6476 895.391 45.5697 885.623 41.4778L884.85 43.3225ZM908.738 59.6053L888.458 78.3253L889.815 79.7949L910.095 61.0749L908.738 59.6053ZM889.888 78.4003C885.127 72.9775 879.815 68.9205 873.95 66.2547L873.123 68.0755C878.698 70.6097 883.787 74.4827 888.385 79.7199L889.888 78.4003ZM873.967 66.2626C868.104 63.4642 861.716 62.0701 854.817 62.0701L854.817 64.0701C861.438 64.0701 867.529 65.406 873.106 68.0676L873.967 66.2626ZM854.817 62.0701C848.336 62.0701 842.361 63.1285 836.903 65.2585L837.63 67.1217C842.832 65.0918 848.557 64.0701 854.817 64.0701L854.817 62.0701ZM836.903 65.2585C831.449 67.3869 826.716 70.4516 822.715 74.453L824.129 75.8672C827.927 72.0687 832.424 69.1533 837.63 67.1217L836.903 65.2585ZM822.715 74.453C818.717 78.45 815.591 83.1766 813.333 88.6221L815.18 89.3881C817.342 84.1736 820.326 79.6702 824.129 75.8672L822.715 74.453ZM813.325 88.6416C811.194 94.1021 810.137 100.143 810.137 106.75L812.137 106.75C812.137 100.358 813.159 94.5681 815.188 89.3687L813.325 88.6416ZM810.137 106.75C810.137 113.358 811.194 119.398 813.325 124.859L815.188 124.132C813.159 118.932 812.137 113.143 812.137 106.75L810.137 106.75ZM813.333 124.878C815.591 130.324 818.717 135.05 822.715 139.047L824.129 137.633C820.326 133.83 817.342 129.327 815.18 124.112L813.333 124.878ZM822.715 139.047C826.716 143.049 831.449 146.113 836.903 148.242L837.63 146.379C832.424 144.347 827.927 141.432 824.129 137.633L822.715 139.047ZM836.903 148.242C842.361 150.372 848.336 151.43 854.817 151.43L854.817 149.43C848.557 149.43 842.832 148.408 837.63 146.379L836.903 148.242ZM854.817 151.43C861.708 151.43 868.091 150.104 873.95 147.44L873.123 145.62C867.542 148.156 861.445 149.43 854.817 149.43L854.817 151.43ZM873.967 147.433C879.829 144.635 885.137 140.448 889.896 134.896L888.377 133.594C883.776 138.963 878.684 142.965 873.106 145.628L873.967 147.433ZM888.458 134.98L908.738 153.7L910.095 152.23L889.815 133.51L888.458 134.98ZM908.643 152.331C902.247 160.135 894.317 166.084 884.84 170.182L885.634 172.018C895.397 167.796 903.587 161.655 910.19 153.599L908.643 152.331ZM884.835 170.184C875.49 174.281 864.905 176.34 853.062 176.34L853.062 178.34C865.139 178.34 876.003 176.239 885.638 172.016L884.835 170.184ZM961.591 175L960.591 175L960.591 176L961.591 176L961.591 175ZM961.591 64.2401L962.591 64.2401L962.591 63.2401L961.591 63.2401L961.591 64.2401ZM917.911 64.2401L916.911 64.2401L916.911 65.2401L917.911 65.2401L917.911 64.2401ZM917.911 38.5001L917.911 37.5001L916.911 37.5001L916.911 38.5001L917.911 38.5001ZM1036.86 38.5001L1037.86 38.5001L1037.86 37.5001L1036.86 37.5001L1036.86 38.5001ZM1036.86 64.2401L1036.86 65.2401L1037.86 65.2401L1037.86 64.2401L1036.86 64.2401ZM993.181 64.2401L993.181 63.2401L992.181 63.2401L992.181 64.2401L993.181 64.2401ZM993.181 175L993.181 176L994.181 176L994.181 175L993.181 175ZM962.591 175L962.591 64.2401L960.591 64.2401L960.591 175L962.591 175ZM961.591 63.2401L917.911 63.2401L917.911 65.2401L961.591 65.2401L961.591 63.2401ZM918.911 64.2401L918.911 38.5001L916.911 38.5001L916.911 64.2401L918.911 64.2401ZM917.911 39.5001L1036.86 39.5001L1036.86 37.5001L917.911 37.5001L917.911 39.5001ZM1035.86 38.5001L1035.86 64.2401L1037.86 64.2401L1037.86 38.5001L1035.86 38.5001ZM1036.86 63.2401L993.181 63.2401L993.181 65.2401L1036.86 65.2401L1036.86 63.2401ZM992.181 64.2401L992.181 175L994.181 175L994.181 64.2401L992.181 64.2401ZM993.181 174L961.591 174L961.591 176L993.181 176L993.181 174ZM1092.12 172.075L1091.76 173.008L1091.77 173.01L1092.12 172.075ZM1068.33 157.255L1067.64 157.976L1067.65 157.983L1068.33 157.255ZM1052.73 134.83L1051.81 135.221L1051.82 135.232L1052.73 134.83ZM1052.73 78.6701L1051.82 78.2678L1051.81 78.2796L1052.73 78.6701ZM1092.32 41.4251L1091.96 40.4921L1091.96 40.4921L1092.32 41.4251ZM1151.6 41.4251L1151.23 42.3564L1151.24 42.3581L1151.6 41.4251ZM1175.19 56.2451L1174.5 56.9662L1174.51 56.9729L1175.19 56.2451ZM1190.99 78.6701L1190.07 79.0724L1190.08 79.0776L1190.99 78.6701ZM1190.99 135.025L1191.9 135.427L1191.91 135.422L1190.99 135.025ZM1175.19 157.45L1175.88 158.178L1175.88 158.178L1175.19 157.45ZM1151.6 172.075L1151.24 171.142L1151.23 171.144L1151.6 172.075ZM1138.73 147.31L1138.36 146.382L1138.35 146.385L1138.73 147.31ZM1152.38 138.34L1151.67 137.633L1151.67 137.633L1152.38 138.34ZM1161.35 124.495L1160.43 124.112L1160.42 124.122L1160.42 124.132L1161.35 124.495ZM1161.35 89.0051L1160.42 89.3687L1160.42 89.3784L1160.43 89.3881L1161.35 89.0051ZM1152.38 75.1601L1151.66 75.8551L1151.67 75.8612L1151.67 75.8672L1152.38 75.1601ZM1138.92 66.1901L1138.55 67.1186L1138.55 67.1186L1138.92 66.1901ZM1104.99 66.1901L1104.62 65.2616L1104.61 65.2649L1104.99 66.1901ZM1091.54 75.1601L1092.25 75.8672L1092.25 75.8672L1091.54 75.1601ZM1082.37 89.0051L1081.45 88.6221L1081.45 88.6318L1081.44 88.6416L1082.37 89.0051ZM1082.37 124.495L1081.44 124.851L1081.44 124.865L1081.45 124.878L1082.37 124.495ZM1091.34 138.34L1090.62 139.035L1090.63 139.041L1090.64 139.047L1091.34 138.34ZM1104.99 147.31L1104.62 148.239L1104.62 148.239L1104.99 147.31ZM1122.15 176.34C1111.47 176.34 1101.59 174.603 1092.48 171.14L1091.77 173.01C1101.12 176.567 1111.25 178.34 1122.15 178.34L1122.15 176.34ZM1092.48 171.142C1083.5 167.676 1075.68 162.804 1069.02 156.527L1067.65 157.983C1074.51 164.446 1082.55 169.454 1091.76 173.008L1092.48 171.142ZM1069.03 156.534C1062.49 150.256 1057.37 142.89 1053.65 134.428L1051.82 135.232C1055.64 143.93 1060.91 151.514 1067.64 157.976L1069.03 156.534ZM1053.65 134.44C1050.07 125.994 1048.27 116.768 1048.27 106.75L1046.27 106.75C1046.27 117.012 1048.12 126.507 1051.81 135.221L1053.65 134.44ZM1048.27 106.75C1048.27 96.7324 1050.07 87.5066 1053.65 79.0607L1051.81 78.2796C1048.12 86.9936 1046.27 96.4878 1046.27 106.75L1048.27 106.75ZM1053.65 79.0724C1057.37 70.6141 1062.55 63.2501 1069.21 56.9729L1067.84 55.5173C1060.98 61.9802 1055.64 69.5662 1051.82 78.2678L1053.65 79.0724ZM1069.21 56.9729C1075.88 50.6962 1083.69 45.8238 1092.68 42.3581L1091.96 40.4921C1082.74 44.0464 1074.7 49.054 1067.84 55.5173L1069.21 56.9729ZM1092.68 42.3581C1101.65 38.8963 1111.41 37.1601 1121.96 37.1601L1121.96 35.1601C1111.19 35.1601 1101.18 36.9339 1091.96 40.4921L1092.68 42.3581ZM1121.96 37.1601C1132.64 37.1601 1142.39 38.8969 1151.23 42.3563L1151.96 40.4939C1142.86 36.9333 1132.86 35.1601 1121.96 35.1601L1121.96 37.1601ZM1151.24 42.3581C1160.22 45.8232 1167.97 50.6938 1174.5 56.9662L1175.89 55.524C1169.16 49.0564 1161.18 44.047 1151.96 40.4921L1151.24 42.3581ZM1174.51 56.9729C1181.17 63.2501 1186.36 70.6141 1190.07 79.0724L1191.9 78.2678C1188.08 69.5662 1182.74 61.9802 1175.88 55.5173L1174.51 56.9729ZM1190.08 79.0776C1193.78 87.3859 1195.64 96.605 1195.64 106.75L1197.64 106.75C1197.64 96.3552 1195.74 86.8543 1191.9 78.2627L1190.08 79.0776ZM1195.64 106.75C1195.64 116.763 1193.78 126.052 1190.07 134.628L1191.91 135.422C1195.73 126.579 1197.64 117.017 1197.64 106.75L1195.64 106.75ZM1190.07 134.623C1186.36 143.081 1181.17 150.445 1174.51 156.722L1175.88 158.178C1182.74 151.715 1188.08 144.129 1191.9 135.427L1190.07 134.623ZM1174.51 156.722C1167.98 162.867 1160.23 167.675 1151.24 171.142L1151.96 173.008C1161.17 169.455 1169.15 164.513 1175.88 158.178L1174.51 156.722ZM1151.23 171.144C1142.39 174.604 1132.7 176.34 1122.15 176.34L1122.15 178.34C1132.93 178.34 1142.87 176.566 1151.96 173.006L1151.23 171.144ZM1121.96 151.43C1128.18 151.43 1133.9 150.37 1139.11 148.235L1138.35 146.385C1133.41 148.41 1127.95 149.43 1121.96 149.43L1121.96 151.43ZM1139.1 148.239C1144.42 146.109 1149.09 143.044 1153.09 139.047L1151.67 137.633C1147.87 141.436 1143.43 144.351 1138.36 146.382L1139.1 148.239ZM1153.09 139.047C1157.09 135.046 1160.15 130.313 1162.28 124.859L1160.42 124.132C1158.39 129.338 1155.47 133.834 1151.67 137.633L1153.09 139.047ZM1162.27 124.878C1164.54 119.412 1165.66 113.365 1165.66 106.75L1163.66 106.75C1163.66 113.135 1162.58 118.918 1160.43 124.112L1162.27 124.878ZM1165.66 106.75C1165.66 100.135 1164.54 94.0879 1162.27 88.6221L1160.43 89.3881C1162.58 94.5823 1163.66 100.365 1163.66 106.75L1165.66 106.75ZM1162.28 88.6416C1160.15 83.1877 1157.09 78.4544 1153.09 74.453L1151.67 75.8672C1155.47 79.6658 1158.39 84.1625 1160.42 89.3687L1162.28 88.6416ZM1153.1 74.4651C1149.23 70.4603 1144.62 67.3923 1139.3 65.2616L1138.55 67.1186C1143.63 69.1479 1147.99 72.0599 1151.66 75.8551L1153.1 74.4651ZM1139.3 65.2616C1133.97 63.1303 1128.18 62.0701 1121.96 62.0701L1121.96 64.0701C1127.95 64.0701 1133.48 65.09 1138.55 67.1186L1139.3 65.2616ZM1121.96 62.0701C1115.73 62.0701 1109.95 63.1303 1104.62 65.2616L1105.37 67.1186C1110.44 65.09 1115.96 64.0701 1121.96 64.0701L1121.96 62.0701ZM1104.61 65.2649C1099.42 67.3955 1094.82 70.46 1090.83 74.453L1092.25 75.8672C1096.05 72.0603 1100.43 69.1447 1105.37 67.1153L1104.61 65.2649ZM1090.83 74.453C1086.83 78.45 1083.71 83.1766 1081.45 88.6221L1083.3 89.3881C1085.46 84.1736 1088.44 79.6702 1092.25 75.8672L1090.83 74.453ZM1081.44 88.6416C1079.31 94.1021 1078.25 100.143 1078.25 106.75L1080.25 106.75C1080.25 100.358 1081.28 94.5681 1083.31 89.3687L1081.44 88.6416ZM1078.25 106.75C1078.25 113.231 1079.31 119.268 1081.44 124.851L1083.31 124.139C1081.28 118.803 1080.25 113.009 1080.25 106.75L1078.25 106.75ZM1081.45 124.878C1083.71 130.317 1086.76 135.039 1090.62 139.035L1092.06 137.645C1088.39 133.841 1085.46 129.334 1083.3 124.112L1081.45 124.878ZM1090.64 139.047C1094.63 143.044 1099.3 146.109 1104.62 148.239L1105.37 146.382C1100.29 144.351 1095.85 141.436 1092.05 137.633L1090.64 139.047ZM1104.62 148.239C1109.95 150.37 1115.73 151.43 1121.96 151.43L1121.96 149.43C1115.96 149.43 1110.44 148.41 1105.37 146.382L1104.62 148.239Z" fill="#707070"/>
<path d="M69.8647 155.27L69.5003 156.201L69.5084 156.204L69.5165 156.207L69.8647 155.27ZM46.4647 140.45L45.7719 141.171L45.7719 141.171L46.4647 140.45ZM30.8647 118.025L29.944 118.416L29.9492 118.427L30.8647 118.025ZM30.8647 61.475L29.9491 61.0727L29.9441 61.0844L30.8647 61.475ZM46.4647 39.05L45.7788 38.3222L45.7719 38.3289L46.4647 39.05ZM70.0597 24.425L70.4123 25.3608L70.4241 25.3562L70.0597 24.425ZM131.485 25.4L131.083 26.3159L131.091 26.3192L131.098 26.3223L131.485 25.4ZM155.665 43.34L156.343 44.0748L157.036 43.4353L156.438 42.7061L155.665 43.34ZM135.385 62.06L134.633 62.7198L135.31 63.4902L136.063 62.7948L135.385 62.06ZM119.785 50.165L119.354 51.0675L119.362 51.0715L119.371 51.0754L119.785 50.165ZM69.6697 58.16L70.3768 58.8671L70.3768 58.8671L69.6697 58.16ZM60.5047 72.005L59.5809 71.622L59.5769 71.6317L59.5731 71.6415L60.5047 72.005ZM60.5047 107.495L59.5731 107.859L59.5769 107.868L59.5809 107.878L60.5047 107.495ZM69.6697 121.34L68.9626 122.047L68.9626 122.047L69.6697 121.34ZM119.785 129.53L120.198 130.44L120.207 130.436L120.215 130.432L119.785 129.53ZM135.385 117.245L136.063 116.51L135.301 115.806L134.625 116.594L135.385 117.245ZM155.665 135.965L156.438 136.599L157.036 135.87L156.343 135.23L155.665 135.965ZM131.485 154.1L131.088 153.182L131.083 153.184L131.485 154.1ZM99.3097 159.34C88.8884 159.34 79.1924 157.668 70.2129 154.333L69.5165 156.207C78.737 159.632 88.6709 161.34 99.3097 161.34L99.3097 159.34ZM70.2291 154.339C61.3754 150.874 53.6884 146.004 47.1575 139.729L45.7719 141.171C52.501 147.636 60.414 152.646 69.5003 156.201L70.2291 154.339ZM47.1575 139.729C40.6237 133.451 35.4986 126.085 31.7802 117.623L29.9492 118.427C33.7708 127.125 39.0456 134.709 45.7719 141.171L47.1575 139.729ZM31.7853 117.634C28.2028 109.19 26.4047 99.8995 26.4047 89.75L24.4047 89.75C24.4047 100.14 26.2466 109.7 29.9441 118.416L31.7853 117.634ZM26.4047 89.75C26.4047 79.6004 28.2028 70.31 31.7853 61.8655L29.9441 61.0844C26.2466 69.8 24.4047 79.3595 24.4047 89.75L26.4047 89.75ZM31.7802 61.8773C35.4986 53.4147 40.6237 46.0486 47.1575 39.7711L45.7719 38.3289C39.0456 44.7913 33.7708 52.3753 29.9492 61.0727L31.7802 61.8773ZM47.1505 39.7778C53.8112 33.5014 61.562 28.6957 70.4123 25.3608L69.7071 23.4892C60.6174 26.9143 52.6382 31.8586 45.7789 38.3222L47.1505 39.7778ZM70.4241 25.3562C79.2662 21.8963 88.9561 20.16 99.5047 20.16L99.5047 18.16C88.7333 18.16 78.7932 19.9337 69.6953 23.4937L70.4241 25.3562ZM99.5047 20.16C111.216 20.16 121.737 22.2187 131.083 26.3159L131.886 24.4841C122.253 20.2613 111.453 18.16 99.5047 18.16L99.5047 20.16ZM131.098 26.3223C140.57 30.2904 148.497 36.1725 154.891 43.9739L156.438 42.7061C149.833 34.6475 141.639 28.5696 131.871 24.4777L131.098 26.3223ZM154.986 42.6052L134.706 61.3252L136.063 62.7948L156.343 44.0748L154.986 42.6052ZM136.136 61.4002C131.375 55.9774 126.063 51.9204 120.198 49.2546L119.371 51.0754C124.946 53.6096 130.035 57.4826 134.633 62.7198L136.136 61.4002ZM120.215 49.2625C114.352 46.4641 107.964 45.07 101.065 45.07L101.065 47.07C107.686 47.07 113.777 48.4059 119.354 51.0675L120.215 49.2625ZM101.065 45.07C94.5844 45.07 88.6094 46.1284 83.1511 48.2584L83.8782 50.1216C89.0799 48.0916 94.805 47.07 101.065 47.07L101.065 45.07ZM83.1511 48.2584C77.6973 50.3868 72.964 53.4514 68.9626 57.4529L70.3768 58.8671C74.1754 55.0685 78.6721 52.1532 83.8782 50.1216L83.1511 48.2584ZM68.9626 57.4529C64.9655 61.4499 61.8388 66.1765 59.5809 71.622L61.4284 72.388C63.5905 67.1735 66.5738 62.6701 70.3768 58.8671L68.9626 57.4529ZM59.5731 71.6415C57.4422 77.102 56.3847 83.1424 56.3847 89.75L58.3847 89.75C58.3847 83.3576 59.4072 77.568 61.4363 72.3685L59.5731 71.6415ZM56.3847 89.75C56.3847 96.3576 57.4422 102.398 59.5731 107.859L61.4363 107.131C59.4072 101.932 58.3847 96.1424 58.3847 89.75L56.3847 89.75ZM59.5809 107.878C61.8388 113.324 64.9655 118.05 68.9626 122.047L70.3768 120.633C66.5738 116.83 63.5905 112.326 61.4284 107.112L59.5809 107.878ZM68.9626 122.047C72.964 126.049 77.6973 129.113 83.1511 131.242L83.8782 129.378C78.6721 127.347 74.1754 124.431 70.3768 120.633L68.9626 122.047ZM83.1511 131.242C88.6094 133.372 94.5844 134.43 101.065 134.43L101.065 132.43C94.805 132.43 89.0799 131.408 83.8782 129.378L83.1511 131.242ZM101.065 134.43C107.956 134.43 114.339 133.104 120.198 130.44L119.371 128.62C113.79 131.156 107.693 132.43 101.065 132.43L101.065 134.43ZM120.215 130.432C126.077 127.635 131.385 123.447 136.144 117.896L134.625 116.594C130.024 121.963 124.932 125.965 119.354 128.628L120.215 130.432ZM134.706 117.98L154.986 136.7L156.343 135.23L136.063 116.51L134.706 117.98ZM154.891 135.331C148.495 143.135 140.565 149.084 131.088 153.182L131.882 155.018C141.645 150.796 149.835 144.655 156.438 136.599L154.891 135.331ZM131.083 153.184C121.738 157.281 111.153 159.34 99.3097 159.34L99.3097 161.34C111.387 161.34 122.252 159.239 131.886 155.016L131.083 153.184ZM214.311 155.075L213.951 156.008L213.955 156.01L214.311 155.075ZM190.521 140.255L189.828 140.976L189.835 140.983L190.521 140.255ZM174.921 117.83L174 118.221L174.005 118.232L174.921 117.83ZM174.921 61.67L174.005 61.2677L174 61.2794L174.921 61.67ZM214.506 24.425L214.146 23.492L214.146 23.492L214.506 24.425ZM273.786 24.425L273.422 25.3562L273.426 25.358L273.786 24.425ZM297.381 39.245L296.688 39.9661L296.695 39.9728L297.381 39.245ZM313.176 61.67L312.26 62.0723L312.263 62.0774L313.176 61.67ZM313.176 118.025L314.091 118.427L314.094 118.422L313.176 118.025ZM297.381 140.45L298.066 141.178L298.067 141.178L297.381 140.45ZM273.786 155.075L273.426 154.142L273.422 154.144L273.786 155.075ZM260.916 130.31L260.545 129.381L260.536 129.385L260.916 130.31ZM274.566 121.34L273.859 120.633L273.859 120.633L274.566 121.34ZM283.536 107.495L282.612 107.112L282.608 107.122L282.604 107.131L283.536 107.495ZM283.536 72.005L282.604 72.3685L282.608 72.3783L282.612 72.388L283.536 72.005ZM274.566 58.16L273.847 58.855L273.853 58.8611L273.859 58.8671L274.566 58.16ZM261.111 49.19L260.74 50.1185L260.74 50.1185L261.111 49.19ZM227.181 49.19L226.81 48.2615L226.801 48.2648L227.181 49.19ZM213.726 58.16L214.433 58.8671L214.433 58.8671L213.726 58.16ZM204.561 72.005L203.637 71.622L203.633 71.6317L203.629 71.6415L204.561 72.005ZM204.561 107.495L203.626 107.851L203.632 107.865L203.637 107.878L204.561 107.495ZM213.531 121.34L212.812 122.035L212.818 122.041L212.824 122.047L213.531 121.34ZM227.181 130.31L226.81 131.238L226.81 131.238L227.181 130.31ZM244.341 159.34C233.661 159.34 223.773 157.603 214.666 154.14L213.955 156.01C223.309 159.567 233.441 161.34 244.341 161.34L244.341 159.34ZM214.671 154.142C205.686 150.676 197.868 145.804 191.207 139.527L189.835 140.983C196.694 147.446 204.736 152.454 213.951 156.008L214.671 154.142ZM191.214 139.534C184.68 133.256 179.555 125.89 175.836 117.428L174.005 118.232C177.827 126.93 183.102 134.514 189.828 140.976L191.214 139.534ZM175.842 117.439C172.258 108.993 170.461 99.7677 170.461 89.75L168.461 89.75C168.461 100.012 170.303 109.507 174 118.221L175.842 117.439ZM170.461 89.75C170.461 79.7323 172.258 70.5065 175.842 62.0605L174 61.2794C170.303 69.9935 168.461 79.4877 168.461 89.75L170.461 89.75ZM175.836 62.0723C179.553 53.614 184.74 46.2499 191.402 39.9728L190.03 38.5172C183.172 44.9801 177.829 52.566 174.005 61.2677L175.836 62.0723ZM191.402 39.9728C198.063 33.6961 205.881 28.8237 214.866 25.358L214.146 23.492C204.931 27.0463 196.889 32.0539 190.03 38.5172L191.402 39.9728ZM214.866 25.358C223.841 21.8962 233.598 20.16 244.146 20.16L244.146 18.16C233.374 18.16 223.371 19.9338 214.146 23.492L214.866 25.358ZM244.146 20.16C254.826 20.16 264.581 21.8968 273.422 25.3562L274.15 23.4937C265.051 19.9332 255.046 18.16 244.146 18.16L244.146 20.16ZM273.426 25.358C282.41 28.8231 290.16 33.6937 296.688 39.9661L298.074 38.5239C291.342 32.0563 283.362 27.0468 274.146 23.492L273.426 25.358ZM296.695 39.9728C303.357 46.2499 308.544 53.614 312.26 62.0723L314.091 61.2677C310.268 52.566 304.925 44.9801 298.067 38.5172L296.695 39.9728ZM312.263 62.0774C315.969 70.3858 317.831 79.6049 317.831 89.75L319.831 89.75C319.831 79.3551 317.922 69.8542 314.089 61.2626L312.263 62.0774ZM317.831 89.75C317.831 99.7628 315.97 109.052 312.258 117.628L314.094 118.422C317.922 109.578 319.831 100.017 319.831 89.75L317.831 89.75ZM312.26 117.623C308.544 126.081 303.357 133.445 296.695 139.722L298.067 141.178C304.925 134.715 310.268 127.129 314.091 118.427L312.26 117.623ZM296.696 139.722C290.166 145.867 282.414 150.675 273.426 154.142L274.146 156.008C283.358 152.455 291.336 147.513 298.066 141.178L296.696 139.722ZM273.422 154.144C264.579 157.604 254.89 159.34 244.341 159.34L244.341 161.34C255.112 161.34 265.052 159.566 274.15 156.006L273.422 154.144ZM244.146 134.43C250.371 134.43 256.092 133.37 261.295 131.235L260.536 129.385C255.6 131.41 250.141 132.43 244.146 132.43L244.146 134.43ZM261.287 131.238C266.611 129.109 271.276 126.044 275.273 122.047L273.859 120.633C270.056 124.436 265.621 127.351 260.545 129.382L261.287 131.238ZM275.273 122.047C279.274 118.046 282.339 113.312 284.468 107.859L282.604 107.131C280.573 112.338 277.657 116.834 273.859 120.633L275.273 122.047ZM284.46 107.878C286.726 102.412 287.851 96.3649 287.851 89.75L285.851 89.75C285.851 96.1351 284.766 101.918 282.612 107.112L284.46 107.878ZM287.851 89.75C287.851 83.1351 286.726 77.0878 284.46 71.622L282.612 72.388C284.766 77.5822 285.851 83.3649 285.851 89.75L287.851 89.75ZM284.468 71.6415C282.339 66.1876 279.274 61.4543 275.273 57.4529L273.859 58.8671C277.657 62.6657 280.573 67.1624 282.604 72.3685L284.468 71.6415ZM275.285 57.465C271.414 53.4602 266.809 50.3922 261.482 48.2615L260.74 50.1185C265.813 52.1478 270.178 55.0598 273.847 58.855L275.285 57.465ZM261.482 48.2615C256.154 46.1301 250.372 45.07 244.146 45.07L244.146 47.07C250.14 47.07 255.668 48.0899 260.74 50.1185L261.482 48.2615ZM244.146 45.07C237.92 45.07 232.138 46.1301 226.81 48.2615L227.552 50.1185C232.624 48.0899 238.152 47.07 244.146 47.07L244.146 45.07ZM226.801 48.2648C221.608 50.3954 217.012 53.4598 213.019 57.4529L214.433 58.8671C218.24 55.0601 222.614 52.1445 227.56 50.1152L226.801 48.2648ZM213.019 57.4529C209.022 61.4499 205.895 66.1765 203.637 71.622L205.485 72.388C207.647 67.1735 210.63 62.6701 214.433 58.8671L213.019 57.4529ZM203.629 71.6415C201.498 77.102 200.441 83.1424 200.441 89.75L202.441 89.75C202.441 83.3576 203.463 77.568 205.493 72.3685L203.629 71.6415ZM200.441 89.75C200.441 96.2307 201.499 102.267 203.626 107.851L205.495 107.139C203.462 101.803 202.441 96.0093 202.441 89.75L200.441 89.75ZM203.637 107.878C205.892 113.316 208.949 118.039 212.812 122.035L214.25 120.645C210.573 116.841 207.65 112.334 205.485 107.112L203.637 107.878ZM212.824 122.047C216.821 126.044 221.486 129.109 226.81 131.238L227.552 129.382C222.476 127.351 218.041 124.436 214.238 120.633L212.824 122.047ZM226.81 131.238C232.138 133.37 237.92 134.43 244.146 134.43L244.146 132.43C238.152 132.43 232.624 131.41 227.552 129.382L226.81 131.238ZM346.472 158L345.472 158L345.472 159L346.472 159L346.472 158ZM346.472 21.5L346.472 20.5L345.472 20.5L345.472 21.5L346.472 21.5ZM372.602 21.5L373.376 20.8662L373.076 20.5L372.602 20.5L372.602 21.5ZM453.137 119.78L453.137 120.78L455.249 120.78L453.911 119.146L453.137 119.78ZM440.462 119.78L439.462 119.78L439.462 120.78L440.462 120.78L440.462 119.78ZM440.462 21.5L440.462 20.5L439.462 20.5L439.462 21.5L440.462 21.5ZM471.662 21.5L472.662 21.5L472.662 20.5L471.662 20.5L471.662 21.5ZM471.662 158L471.662 159L472.662 159L472.662 158L471.662 158ZM445.727 158L444.954 158.635L445.254 159L445.727 159L445.727 158ZM364.997 59.72L364.997 58.72L362.882 58.72L364.224 60.3547L364.997 59.72ZM377.672 59.72L378.672 59.72L378.672 58.72L377.672 58.72L377.672 59.72ZM377.672 158L377.672 159L378.672 159L378.672 158L377.672 158ZM347.472 158L347.472 21.5L345.472 21.5L345.472 158L347.472 158ZM346.472 22.5L372.602 22.5L372.602 20.5L346.472 20.5L346.472 22.5ZM371.829 22.1338L452.364 120.414L453.911 119.146L373.376 20.8662L371.829 22.1338ZM453.137 118.78L440.462 118.78L440.462 120.78L453.137 120.78L453.137 118.78ZM441.462 119.78L441.462 21.5L439.462 21.5L439.462 119.78L441.462 119.78ZM440.462 22.5L471.662 22.5L471.662 20.5L440.462 20.5L440.462 22.5ZM470.662 21.5L470.662 158L472.662 158L472.662 21.5L470.662 21.5ZM471.662 157L445.727 157L445.727 159L471.662 159L471.662 157ZM446.5 157.365L365.77 59.0853L364.224 60.3547L444.954 158.635L446.5 157.365ZM364.997 60.72L377.672 60.72L377.672 58.72L364.997 58.72L364.997 60.72ZM376.672 59.72L376.672 158L378.672 158L378.672 59.72L376.672 59.72ZM377.672 157L346.472 157L346.472 159L377.672 159L377.672 157ZM536.133 158L535.133 158L535.133 159L536.133 159L536.133 158ZM536.133 47.24L537.133 47.24L537.133 46.24L536.133 46.24L536.133 47.24ZM492.453 47.24L491.453 47.24L491.453 48.24L492.453 48.24L492.453 47.24ZM492.453 21.5L492.453 20.5L491.453 20.5L491.453 21.5L492.453 21.5ZM611.403 21.5L612.403 21.5L612.403 20.5L611.403 20.5L611.403 21.5ZM611.403 47.24L611.403 48.24L612.403 48.24L612.403 47.24L611.403 47.24ZM567.723 47.24L567.723 46.24L566.723 46.24L566.723 47.24L567.723 47.24ZM567.723 158L567.723 159L568.723 159L568.723 158L567.723 158ZM537.133 158L537.133 47.24L535.133 47.24L535.133 158L537.133 158ZM536.133 46.24L492.453 46.24L492.453 48.24L536.133 48.24L536.133 46.24ZM493.453 47.24L493.453 21.5L491.453 21.5L491.453 47.24L493.453 47.24ZM492.453 22.5L611.403 22.5L611.403 20.5L492.453 20.5L492.453 22.5ZM610.403 21.5L610.403 47.24L612.403 47.24L612.403 21.5L610.403 21.5ZM611.403 46.24L567.723 46.24L567.723 48.24L611.403 48.24L611.403 46.24ZM566.723 47.24L566.723 158L568.723 158L568.723 47.24L566.723 47.24ZM567.723 157L536.133 157L536.133 159L567.723 159L567.723 157ZM607.504 158L606.591 157.593L605.963 159L607.504 159L607.504 158ZM668.344 21.5L668.344 20.5L667.695 20.5L667.431 21.0929L668.344 21.5ZM699.544 21.5L700.457 21.0918L700.192 20.5L699.544 20.5L699.544 21.5ZM760.579 158L760.579 159L762.122 159L761.492 157.592L760.579 158ZM727.429 158L726.505 158.383L726.761 159L727.429 159L727.429 158ZM677.509 37.49L677.509 36.49L676.012 36.49L676.585 37.8727L677.509 37.49ZM689.989 37.49L690.912 37.874L691.488 36.49L689.989 36.49L689.989 37.49ZM639.874 158L639.874 159L640.541 159L640.797 158.384L639.874 158ZM637.924 128.75L636.98 128.42L636.515 129.75L637.924 129.75L637.924 128.75ZM646.309 104.765L646.309 103.765L645.599 103.765L645.365 104.435L646.309 104.765ZM716.509 104.765L717.451 104.428L717.213 103.765L716.509 103.765L716.509 104.765ZM725.089 128.75L725.089 129.75L726.509 129.75L726.031 128.413L725.089 128.75ZM608.417 158.407L669.257 21.9071L667.431 21.0929L606.591 157.593L608.417 158.407ZM668.344 22.5L699.544 22.5L699.544 20.5L668.344 20.5L668.344 22.5ZM698.631 21.9082L759.666 158.408L761.492 157.592L700.457 21.0918L698.631 21.9082ZM760.579 157L727.429 157L727.429 159L760.579 159L760.579 157ZM728.353 157.617L678.433 37.1073L676.585 37.8727L726.505 158.383L728.353 157.617ZM677.509 38.49L689.989 38.49L689.989 36.49L677.509 36.49L677.509 38.49ZM689.066 37.106L638.951 157.616L640.797 158.384L690.912 37.874L689.066 37.106ZM639.874 157L607.504 157L607.504 159L639.874 159L639.874 157ZM638.868 129.08L647.253 105.095L645.365 104.435L636.98 128.42L638.868 129.08ZM646.309 105.765L716.509 105.765L716.509 103.765L646.309 103.765L646.309 105.765ZM715.567 105.102L724.147 129.087L726.031 128.413L717.451 104.428L715.567 105.102ZM725.089 127.75L637.924 127.75L637.924 129.75L725.089 129.75L725.089 127.75ZM812.617 155.27L812.252 156.201L812.26 156.204L812.268 156.207L812.617 155.27ZM789.217 140.45L788.524 141.171L788.524 141.171L789.217 140.45ZM773.617 118.025L772.696 118.416L772.701 118.427L773.617 118.025ZM773.617 61.475L772.701 61.0727L772.696 61.0844L773.617 61.475ZM789.217 39.05L788.531 38.3222L788.524 38.3289L789.217 39.05ZM812.812 24.425L813.164 25.3608L813.176 25.3562L812.812 24.425ZM874.237 25.4L873.835 26.3159L873.843 26.3192L873.85 26.3223L874.237 25.4ZM898.417 43.34L899.095 44.0748L899.788 43.4353L899.19 42.7061L898.417 43.34ZM878.137 62.06L877.385 62.7198L878.062 63.4902L878.815 62.7948L878.137 62.06ZM862.537 50.165L862.106 51.0675L862.114 51.0715L862.123 51.0754L862.537 50.165ZM812.422 58.16L813.129 58.8671L813.129 58.8671L812.422 58.16ZM803.257 72.005L802.333 71.622L802.329 71.6317L802.325 71.6414L803.257 72.005ZM803.257 107.495L802.325 107.859L802.329 107.868L802.333 107.878L803.257 107.495ZM812.422 121.34L811.715 122.047L811.715 122.047L812.422 121.34ZM862.537 129.53L862.95 130.44L862.959 130.436L862.967 130.432L862.537 129.53ZM878.137 117.245L878.815 116.51L878.053 115.806L877.377 116.594L878.137 117.245ZM898.417 135.965L899.19 136.599L899.788 135.87L899.095 135.23L898.417 135.965ZM874.237 154.1L873.84 153.182L873.835 153.184L874.237 154.1ZM842.062 159.34C831.64 159.34 821.944 157.668 812.965 154.333L812.268 156.207C821.489 159.632 831.423 161.34 842.062 161.34L842.062 159.34ZM812.981 154.339C804.127 150.874 796.44 146.004 789.909 139.729L788.524 141.171C795.253 147.636 803.166 152.646 812.252 156.201L812.981 154.339ZM789.909 139.729C783.376 133.451 778.251 126.085 774.532 117.623L772.701 118.427C776.523 127.125 781.798 134.709 788.524 141.171L789.909 139.729ZM774.537 117.634C770.955 109.19 769.157 99.8995 769.157 89.75L767.157 89.75C767.157 100.14 768.999 109.7 772.696 118.416L774.537 117.634ZM769.157 89.75C769.157 79.6004 770.955 70.31 774.537 61.8655L772.696 61.0844C768.999 69.8 767.157 79.3595 767.157 89.75L769.157 89.75ZM774.532 61.8773C778.251 53.4147 783.376 46.0486 789.909 39.7711L788.524 38.3289C781.798 44.7913 776.523 52.3753 772.701 61.0727L774.532 61.8773ZM789.902 39.7778C796.563 33.5014 804.314 28.6957 813.164 25.3608L812.459 23.4892C803.369 26.9143 795.39 31.8586 788.531 38.3222L789.902 39.7778ZM813.176 25.3562C822.018 21.8963 831.708 20.16 842.257 20.16L842.257 18.16C831.485 18.16 821.545 19.9337 812.447 23.4937L813.176 25.3562ZM842.257 20.16C853.968 20.16 864.488 22.2187 873.835 26.3159L874.638 24.4841C865.005 20.2613 854.205 18.16 842.257 18.16L842.257 20.16ZM873.85 26.3223C883.322 30.2904 891.249 36.1725 897.643 43.9739L899.19 42.7061C892.585 34.6475 884.391 28.5696 874.623 24.4777L873.85 26.3223ZM897.738 42.6052L877.458 61.3252L878.815 62.7948L899.095 44.0748L897.738 42.6052ZM878.888 61.4002C874.127 55.9774 868.815 51.9204 862.95 49.2546L862.123 51.0754C867.698 53.6096 872.787 57.4825 877.385 62.7198L878.888 61.4002ZM862.967 49.2625C857.104 46.4641 850.716 45.07 843.817 45.07L843.817 47.07C850.438 47.07 856.529 48.4059 862.106 51.0675L862.967 49.2625ZM843.817 45.07C837.336 45.07 831.361 46.1284 825.903 48.2584L826.63 50.1216C831.832 48.0916 837.557 47.07 843.817 47.07L843.817 45.07ZM825.903 48.2584C820.449 50.3868 815.716 53.4514 811.715 57.4529L813.129 58.8671C816.927 55.0685 821.424 52.1532 826.63 50.1216L825.903 48.2584ZM811.715 57.4529C807.717 61.4499 804.591 66.1765 802.333 71.622L804.18 72.388C806.342 67.1735 809.326 62.6701 813.129 58.8671L811.715 57.4529ZM802.325 71.6414C800.194 77.102 799.137 83.1424 799.137 89.75L801.137 89.75C801.137 83.3576 802.159 77.568 804.188 72.3685L802.325 71.6414ZM799.137 89.75C799.137 96.3576 800.194 102.398 802.325 107.859L804.188 107.131C802.159 101.932 801.137 96.1424 801.137 89.75L799.137 89.75ZM802.333 107.878C804.591 113.324 807.717 118.05 811.715 122.047L813.129 120.633C809.326 116.83 806.342 112.326 804.18 107.112L802.333 107.878ZM811.715 122.047C815.716 126.049 820.449 129.113 825.903 131.242L826.63 129.378C821.424 127.347 816.927 124.431 813.129 120.633L811.715 122.047ZM825.903 131.242C831.361 133.372 837.336 134.43 843.817 134.43L843.817 132.43C837.557 132.43 831.832 131.408 826.63 129.378L825.903 131.242ZM843.817 134.43C850.708 134.43 857.091 133.104 862.95 130.44L862.123 128.62C856.542 131.156 850.445 132.43 843.817 132.43L843.817 134.43ZM862.967 130.432C868.829 127.635 874.137 123.447 878.896 117.896L877.377 116.594C872.776 121.963 867.684 125.965 862.106 128.628L862.967 130.432ZM877.458 117.98L897.738 136.7L899.095 135.23L878.815 116.51L877.458 117.98ZM897.643 135.331C891.247 143.135 883.317 149.084 873.84 153.182L874.634 155.018C884.397 150.796 892.587 144.655 899.19 136.599L897.643 135.331ZM873.835 153.184C864.49 157.281 853.905 159.34 842.062 159.34L842.062 161.34C854.139 161.34 865.003 159.239 874.638 155.016L873.835 153.184ZM950.591 158L949.591 158L949.591 159L950.591 159L950.591 158ZM950.591 47.24L951.591 47.24L951.591 46.24L950.591 46.24L950.591 47.24ZM906.911 47.24L905.911 47.24L905.911 48.24L906.911 48.24L906.911 47.24ZM906.911 21.5L906.911 20.5L905.911 20.5L905.911 21.5L906.911 21.5ZM1025.86 21.5L1026.86 21.5L1026.86 20.5L1025.86 20.5L1025.86 21.5ZM1025.86 47.24L1025.86 48.24L1026.86 48.24L1026.86 47.24L1025.86 47.24ZM982.181 47.24L982.181 46.24L981.181 46.24L981.181 47.24L982.181 47.24ZM982.181 158L982.181 159L983.181 159L983.181 158L982.181 158ZM951.591 158L951.591 47.24L949.591 47.24L949.591 158L951.591 158ZM950.591 46.24L906.911 46.24L906.911 48.24L950.591 48.24L950.591 46.24ZM907.911 47.24L907.911 21.5L905.911 21.5L905.911 47.24L907.911 47.24ZM906.911 22.5L1025.86 22.5L1025.86 20.5L906.911 20.5L906.911 22.5ZM1024.86 21.5L1024.86 47.24L1026.86 47.24L1026.86 21.5L1024.86 21.5ZM1025.86 46.24L982.181 46.24L982.181 48.24L1025.86 48.24L1025.86 46.24ZM981.181 47.24L981.181 158L983.181 158L983.181 47.24L981.181 47.24ZM982.181 157L950.591 157L950.591 159L982.181 159L982.181 157ZM1081.12 155.075L1080.76 156.008L1080.77 156.01L1081.12 155.075ZM1057.33 140.255L1056.64 140.976L1056.65 140.983L1057.33 140.255ZM1041.73 117.83L1040.81 118.221L1040.82 118.232L1041.73 117.83ZM1041.73 61.67L1040.82 61.2677L1040.81 61.2794L1041.73 61.67ZM1081.32 24.425L1080.96 23.492L1080.96 23.492L1081.32 24.425ZM1140.6 24.425L1140.23 25.3562L1140.24 25.358L1140.6 24.425ZM1164.19 39.245L1163.5 39.9661L1163.51 39.9728L1164.19 39.245ZM1179.99 61.67L1179.07 62.0723L1179.08 62.0774L1179.99 61.67ZM1179.99 118.025L1180.9 118.427L1180.91 118.422L1179.99 118.025ZM1164.19 140.45L1164.88 141.178L1164.88 141.178L1164.19 140.45ZM1140.6 155.075L1140.24 154.142L1140.23 154.144L1140.6 155.075ZM1127.73 130.31L1127.36 129.381L1127.35 129.385L1127.73 130.31ZM1141.38 121.34L1140.67 120.633L1140.67 120.633L1141.38 121.34ZM1150.35 107.495L1149.43 107.112L1149.42 107.122L1149.42 107.131L1150.35 107.495ZM1150.35 72.005L1149.42 72.3685L1149.42 72.3783L1149.43 72.388L1150.35 72.005ZM1141.38 58.16L1140.66 58.855L1140.67 58.8611L1140.67 58.8671L1141.38 58.16ZM1127.92 49.19L1127.55 50.1185L1127.55 50.1185L1127.92 49.19ZM1093.99 49.19L1093.62 48.2615L1093.61 48.2648L1093.99 49.19ZM1080.54 58.16L1081.25 58.8671L1081.25 58.8671L1080.54 58.16ZM1071.37 72.005L1070.45 71.622L1070.45 71.6317L1070.44 71.6414L1071.37 72.005ZM1071.37 107.495L1070.44 107.851L1070.44 107.865L1070.45 107.878L1071.37 107.495ZM1080.34 121.34L1079.62 122.035L1079.63 122.041L1079.64 122.047L1080.34 121.34ZM1093.99 130.31L1093.62 131.238L1093.62 131.238L1093.99 130.31ZM1111.15 159.34C1100.47 159.34 1090.59 157.603 1081.48 154.14L1080.77 156.01C1090.12 159.567 1100.25 161.34 1111.15 161.34L1111.15 159.34ZM1081.48 154.142C1072.5 150.676 1064.68 145.804 1058.02 139.527L1056.65 140.983C1063.51 147.446 1071.55 152.454 1080.76 156.008L1081.48 154.142ZM1058.03 139.534C1051.49 133.256 1046.37 125.89 1042.65 117.428L1040.82 118.232C1044.64 126.93 1049.91 134.514 1056.64 140.976L1058.03 139.534ZM1042.65 117.439C1039.07 108.993 1037.27 99.7677 1037.27 89.75L1035.27 89.75C1035.27 100.012 1037.12 109.507 1040.81 118.221L1042.65 117.439ZM1037.27 89.75C1037.27 79.7323 1039.07 70.5065 1042.65 62.0605L1040.81 61.2794C1037.12 69.9935 1035.27 79.4877 1035.27 89.75L1037.27 89.75ZM1042.65 62.0723C1046.37 53.6139 1051.55 46.2499 1058.21 39.9728L1056.84 38.5172C1049.98 44.98 1044.64 52.566 1040.82 61.2677L1042.65 62.0723ZM1058.21 39.9728C1064.88 33.6961 1072.69 28.8237 1081.68 25.358L1080.96 23.492C1071.74 27.0462 1063.7 32.0539 1056.84 38.5172L1058.21 39.9728ZM1081.68 25.358C1090.65 21.8962 1100.41 20.16 1110.96 20.16L1110.96 18.16C1100.19 18.16 1090.18 19.9338 1080.96 23.492L1081.68 25.358ZM1110.96 20.16C1121.64 20.16 1131.39 21.8968 1140.23 25.3562L1140.96 23.4937C1131.86 19.9332 1121.86 18.16 1110.96 18.16L1110.96 20.16ZM1140.24 25.358C1149.22 28.8231 1156.97 33.6937 1163.5 39.9661L1164.89 38.5239C1158.16 32.0563 1150.18 27.0468 1140.96 23.492L1140.24 25.358ZM1163.51 39.9728C1170.17 46.2499 1175.36 53.6139 1179.07 62.0723L1180.9 61.2677C1177.08 52.566 1171.74 44.98 1164.88 38.5172L1163.51 39.9728ZM1179.08 62.0774C1182.78 70.3858 1184.64 79.6049 1184.64 89.75L1186.64 89.75C1186.64 79.3551 1184.74 69.8542 1180.9 61.2625L1179.08 62.0774ZM1184.64 89.75C1184.64 99.7628 1182.78 109.052 1179.07 117.628L1180.91 118.422C1184.73 109.578 1186.64 100.017 1186.64 89.75L1184.64 89.75ZM1179.07 117.623C1175.36 126.081 1170.17 133.445 1163.51 139.722L1164.88 141.178C1171.74 134.715 1177.08 127.129 1180.9 118.427L1179.07 117.623ZM1163.51 139.722C1156.98 145.867 1149.23 150.675 1140.24 154.142L1140.96 156.008C1150.17 152.455 1158.15 147.513 1164.88 141.178L1163.51 139.722ZM1140.23 154.144C1131.39 157.604 1121.7 159.34 1111.15 159.34L1111.15 161.34C1121.93 161.34 1131.87 159.566 1140.96 156.006L1140.23 154.144ZM1110.96 134.43C1117.18 134.43 1122.9 133.37 1128.11 131.235L1127.35 129.385C1122.41 131.41 1116.95 132.43 1110.96 132.43L1110.96 134.43ZM1128.1 131.238C1133.42 129.109 1138.09 126.044 1142.09 122.047L1140.67 120.633C1136.87 124.436 1132.43 127.351 1127.36 129.382L1128.1 131.238ZM1142.09 122.047C1146.09 118.046 1149.15 113.312 1151.28 107.859L1149.42 107.131C1147.39 112.338 1144.47 116.834 1140.67 120.633L1142.09 122.047ZM1151.27 107.878C1153.54 102.412 1154.66 96.3649 1154.66 89.75L1152.66 89.75C1152.66 96.1351 1151.58 101.918 1149.43 107.112L1151.27 107.878ZM1154.66 89.75C1154.66 83.1351 1153.54 77.0878 1151.27 71.622L1149.43 72.388C1151.58 77.5822 1152.66 83.3649 1152.66 89.75L1154.66 89.75ZM1151.28 71.6414C1149.15 66.1876 1146.09 61.4543 1142.09 57.4529L1140.67 58.8671C1144.47 62.6657 1147.39 67.1624 1149.42 72.3685L1151.28 71.6414ZM1142.1 57.465C1138.23 53.4602 1133.62 50.3922 1128.3 48.2615L1127.55 50.1185C1132.63 52.1478 1136.99 55.0598 1140.66 58.855L1142.1 57.465ZM1128.3 48.2615C1122.97 46.1301 1117.18 45.07 1110.96 45.07L1110.96 47.07C1116.95 47.07 1122.48 48.0898 1127.55 50.1185L1128.3 48.2615ZM1110.96 45.07C1104.73 45.07 1098.95 46.1301 1093.62 48.2615L1094.37 50.1185C1099.44 48.0898 1104.96 47.07 1110.96 47.07L1110.96 45.07ZM1093.61 48.2648C1088.42 50.3954 1083.82 53.4598 1079.83 57.4529L1081.25 58.8671C1085.05 55.0601 1089.43 52.1445 1094.37 50.1152L1093.61 48.2648ZM1079.83 57.4529C1075.83 61.4499 1072.71 66.1765 1070.45 71.622L1072.3 72.388C1074.46 67.1735 1077.44 62.6701 1081.25 58.8671L1079.83 57.4529ZM1070.44 71.6414C1068.31 77.102 1067.25 83.1424 1067.25 89.75L1069.25 89.75C1069.25 83.3576 1070.28 77.568 1072.31 72.3685L1070.44 71.6414ZM1067.25 89.75C1067.25 96.2306 1068.31 102.267 1070.44 107.851L1072.31 107.139C1070.28 101.803 1069.25 96.0093 1069.25 89.75L1067.25 89.75ZM1070.45 107.878C1072.71 113.316 1075.76 118.039 1079.62 122.035L1081.06 120.645C1077.39 116.841 1074.46 112.334 1072.3 107.112L1070.45 107.878ZM1079.64 122.047C1083.63 126.044 1088.3 129.109 1093.62 131.238L1094.37 129.382C1089.29 127.351 1084.85 124.436 1081.05 120.633L1079.64 122.047ZM1093.62 131.238C1098.95 133.37 1104.73 134.43 1110.96 134.43L1110.96 132.43C1104.96 132.43 1099.44 131.41 1094.37 129.382L1093.62 131.238Z" fill="#B473FF"/>
</svg>
