<svg width="93" height="50" viewBox="0 0 93 50" fill="none" xmlns="http://www.w3.org/2000/svg">
<path d="M9.46237 9L0 12V50H110V33L104.086 30H91.6667L83.9785 27.5L55.5914 21L48.4946 18L41.3978 16L36.6667 13L33.7097 9L24.8387 6L20.6989 9L13.6021 7L9.46237 9Z" fill="#FF9162"/>
<path d="M57.9567 11.5L47.3115 15V50H110V27.5L107.634 23L103.494 19.5L95.2147 17.5L92.2578 10.5L85.161 8.5L78.6556 5L73.333 11.5L70.9674 13.5L63.2793 15L57.9567 11.5Z" fill="#FF9162"/>
<path d="M63.871 6L54.4086 0L47.3118 7C45.3405 8.5 41.043 11 39.6237 11C38.2043 11 34.6953 11.6667 33.1183 12L30.7527 16L15.3763 22L11.828 23L10.6452 26L0 32V50H110V28L94.6236 26L89.8925 23L79.2473 22L70.9677 16L63.871 6Z" fill="#FA753C"/>
<path d="M81.6129 15.5L72.1505 17L57.3656 19.5L51.4516 18L45.5376 17L41.3978 18.5L37.2581 14L28.3871 15.5L23.0645 14L19.5161 11.5L14.1935 10L10.6452 13L6.50538 15.5L2.95699 13.5L0 13V50H110V13L105.86 10L100.538 11.5L91.6667 13L86.9355 11.5L81.6129 15.5Z" fill="#FA5E3C"/>
<path d="M11.2366 26L0 24V50H110V17L107.634 19.5L105.86 22.5L103.495 27L99.3548 31.5L87.5269 33L83.3871 30L81.0215 27L75.1075 26L70.3763 23L66.828 19.5L58.5484 16L52.043 19.5L43.7634 21L39.0323 25L31.9355 21H26.6129V24H18.3333L11.2366 26Z" fill="#D0372D"/>
<path d="M11.2366 32.5L0 35V50H110V39L105.86 36L99.3548 35L94.0323 36L88.1183 29.5L83.3871 26L81.6129 24.5L76.8817 23.5L73.3333 24.5L69.7849 26L62.6882 28L58.5484 31L49.086 35L39.0323 39L28.9785 32.5L27.2043 28H18.9247L11.2366 32.5Z" fill="#982020"/>
<path d="M0 43V50H110V32.5L106.452 31L103.495 34L102.312 37.5L95.8064 39L91.6667 42.5L86.3441 44L80.4301 40.5L64.4624 37.5H60.3226L56.1828 33L48.4946 31L43.7634 35L43.172 39L41.3978 40.5L39.0323 42.5L33.1183 44L28.9785 40.5L20.1075 42.5L13.6021 40.5L12.4194 37.5L10.0538 36L7.09677 39L0 43Z" fill="#761924"/>
</svg>
