<svg width="24" height="24" viewBox="0 0 24 24" fill="none" xmlns="http://www.w3.org/2000/svg">
<g clip-path="url(#clip0)">
<path d="M23.642 5.43C23.6513 5.46252 23.656 5.49617 23.656 5.53V10.679C23.656 10.814 23.583 10.939 23.467 11.005L19.144 13.495V18.429C19.1439 18.495 19.1264 18.5599 19.0934 18.6171C19.0605 18.6742 19.0131 18.7218 18.956 18.755L9.92999 23.949C9.90908 23.9605 9.88694 23.9695 9.86399 23.976C9.85599 23.978 9.84799 23.984 9.83999 23.986C9.77726 24.004 9.71073 24.004 9.64799 23.986C9.63699 23.984 9.62799 23.978 9.61799 23.974C9.59799 23.966 9.57599 23.96 9.55599 23.949L0.532994 18.755C0.475594 18.7221 0.427893 18.6746 0.394708 18.6174C0.361523 18.5601 0.344029 18.4952 0.343994 18.429V2.974C0.343994 2.941 0.348994 2.908 0.357994 2.876C0.360994 2.864 0.367994 2.856 0.371994 2.844C0.37801 2.82405 0.385704 2.80465 0.394994 2.786C0.398994 2.773 0.409994 2.764 0.417994 2.753L0.450994 2.708C0.462994 2.698 0.475994 2.69 0.487994 2.681C0.501994 2.669 0.514994 2.657 0.528994 2.647H0.529994L5.04299 0.0499963C5.1 0.0170832 5.16467 -0.000244141 5.23049 -0.000244141C5.29632 -0.000244141 5.36099 0.0170832 5.41799 0.0499963L9.92999 2.647H9.93199C9.94699 2.657 9.95899 2.668 9.97199 2.68L10.01 2.707C10.023 2.721 10.03 2.737 10.043 2.752C10.051 2.763 10.063 2.773 10.068 2.785C10.078 2.805 10.085 2.823 10.092 2.843C10.095 2.854 10.102 2.864 10.105 2.875C10.115 2.906 10.119 2.939 10.119 2.973V12.625L13.879 10.461V5.527C13.879 5.494 13.883 5.461 13.892 5.429C13.895 5.419 13.902 5.409 13.905 5.397C13.9117 5.37683 13.9197 5.35712 13.929 5.338C13.936 5.326 13.947 5.318 13.954 5.305C13.966 5.29 13.975 5.275 13.987 5.262C13.999 5.25 14.012 5.242 14.024 5.234C14.038 5.224 14.05 5.211 14.065 5.202H14.066L18.579 2.604C18.636 2.57108 18.7007 2.55376 18.7665 2.55376C18.8323 2.55376 18.897 2.57108 18.954 2.604L23.467 5.202C23.483 5.212 23.494 5.223 23.509 5.233C23.521 5.243 23.534 5.251 23.545 5.261C23.558 5.275 23.567 5.291 23.579 5.305C23.587 5.317 23.598 5.326 23.603 5.338C23.614 5.358 23.621 5.378 23.627 5.398C23.633 5.408 23.639 5.419 23.642 5.43V5.43ZM22.902 10.462V6.179L21.324 7.087L19.142 8.343V12.626L22.902 10.462ZM18.392 18.212V13.925L16.245 15.15L10.119 18.648V22.973L18.392 18.212ZM1.09299 3.624V18.212L9.36599 22.973V18.648L5.04399 16.203L5.04199 16.2H5.03999C5.02599 16.19 5.01499 16.179 4.99999 16.169C4.98899 16.159 4.97599 16.151 4.96499 16.142L4.96399 16.14C4.95099 16.128 4.94299 16.115 4.93299 16.1C4.92299 16.089 4.91199 16.078 4.90499 16.064H4.90299C4.89499 16.05 4.88999 16.033 4.88299 16.017C4.87699 16.001 4.86899 15.99 4.86499 15.974C4.86121 15.9552 4.85854 15.9361 4.85699 15.917C4.85499 15.903 4.85099 15.89 4.85099 15.876V5.789L2.67099 4.532L1.09299 3.624ZM5.22999 0.809996L1.46999 2.974L5.22999 5.138L8.98799 2.974L5.22999 0.809996ZM7.18599 14.315L9.36799 13.059V3.624L7.78799 4.534L5.60599 5.789V15.224L7.18599 14.315ZM18.767 3.365L15.007 5.528L18.767 7.691L22.526 5.527L18.767 3.365ZM18.391 8.343L16.21 7.087L14.63 6.18V10.463L16.812 11.719L18.392 12.627L18.391 8.343ZM9.74099 17.997L15.255 14.849L18.011 13.277L14.254 11.114L9.93099 13.603L5.98999 15.873L9.74099 17.997Z" fill="black"/>
</g>
<defs>
<clipPath id="clip0">
<rect width="24" height="24" fill="white"/>
</clipPath>
</defs>
</svg>
